<svg width="1284" height="164" viewBox="0 0 1284 164" fill="none" xmlns="http://www.w3.org/2000/svg">
<rect width="1284" height="164" fill="white"/>
<rect x="2.5" y="2.5" width="398" height="159" stroke="#1A090D" stroke-width="5"/>
<rect x="442.5" y="2.5" width="398" height="159" stroke="#1A090D" stroke-width="5"/>
<rect x="883.5" y="2.5" width="398" height="159" stroke="#1A090D" stroke-width="5"/>
<rect x="16.5" y="18.5" width="176" height="56" stroke="#FE7F2D" stroke-width="5"/>
<rect x="456.5" y="18.5" width="176" height="56" stroke="#D6CE93" stroke-width="5"/>
<rect x="897.5" y="18.5" width="176" height="56" stroke="#8D3B72" stroke-width="5"/>
<rect x="209.5" y="18.5" width="176" height="56" stroke="#FE7F2D" stroke-width="5"/>
<rect x="649.5" y="18.5" width="176" height="56" stroke="#D6CE93" stroke-width="5"/>
<rect x="1090.5" y="18.5" width="176" height="56" stroke="#8D3B72" stroke-width="5"/>
<rect x="67.5" y="90.5" width="256" height="57" stroke="#FE7F2D" stroke-width="5"/>
<rect x="507.5" y="90.5" width="256" height="57" stroke="#D6CE93" stroke-width="5"/>
<rect x="948.5" y="90.5" width="256" height="57" stroke="#8D3B72" stroke-width="5"/>
<path d="M35.8999 56H39.4794V53.9034H39.6413C40.1442 54.9943 41.2436 56.2131 43.3572 56.2131C46.3402 56.2131 48.6669 53.8523 48.6669 49.4716C48.6669 44.9716 46.2379 42.7386 43.3658 42.7386C41.1754 42.7386 40.1271 44.0426 39.6413 45.108H39.5305V38.5455H35.8999V56ZM39.4538 49.4545C39.4538 47.1193 40.4425 45.6278 42.2067 45.6278C44.005 45.6278 44.9595 47.1875 44.9595 49.4545C44.9595 51.7386 43.9879 53.3239 42.2067 53.3239C40.4595 53.3239 39.4538 51.7898 39.4538 49.4545ZM59.4844 50.4261C59.4929 52.1818 58.2912 53.1023 56.9872 53.1023C55.6151 53.1023 54.7287 52.1392 54.7202 50.5966V42.9091H51.0895V51.2443C51.098 54.304 52.8878 56.1705 55.5213 56.1705C57.4901 56.1705 58.9048 55.1562 59.4929 53.6222H59.6293V56H63.1151V42.9091H59.4844V50.4261ZM72.9822 42.9091H70.5192V39.7727H66.8885V42.9091H65.0987V45.6364H66.8885V52.4545C66.8714 55.0199 68.6186 56.2898 71.2521 56.179C72.1896 56.1449 72.8544 55.9574 73.2209 55.8381L72.6499 53.1364C72.4709 53.1705 72.0874 53.2557 71.7464 53.2557C71.022 53.2557 70.5192 52.983 70.5192 51.9773V45.6364H72.9822V42.9091ZM82.3104 42.9091H79.8473V39.7727H76.2166V42.9091H74.4268V45.6364H76.2166V52.4545C76.1996 55.0199 77.9467 56.2898 80.5803 56.179C81.5178 56.1449 82.1825 55.9574 82.549 55.8381L81.978 53.1364C81.799 53.1705 81.4155 53.2557 81.0746 53.2557C80.3501 53.2557 79.8473 52.983 79.8473 51.9773V45.6364H82.3104V42.9091ZM90.4496 56.2557C94.4212 56.2557 96.8928 53.5369 96.8928 49.5057C96.8928 45.4489 94.4212 42.7386 90.4496 42.7386C86.478 42.7386 84.0064 45.4489 84.0064 49.5057C84.0064 53.5369 86.478 56.2557 90.4496 56.2557ZM90.4666 53.4432C88.6342 53.4432 87.6967 51.7642 87.6967 49.4801C87.6967 47.196 88.6342 45.5085 90.4666 45.5085C92.2649 45.5085 93.2024 47.196 93.2024 49.4801C93.2024 51.7642 92.2649 53.4432 90.4666 53.4432ZM102.884 48.4318C102.893 46.7443 103.898 45.7557 105.364 45.7557C106.822 45.7557 107.7 46.7102 107.691 48.3125V56H111.322V47.6648C111.322 44.6136 109.532 42.7386 106.805 42.7386C104.862 42.7386 103.455 43.6932 102.867 45.2188H102.714V42.9091H99.2536V56H102.884V48.4318ZM116.305 56.2216C117.396 56.2216 118.342 55.3097 118.351 54.1761C118.342 53.0597 117.396 52.1477 116.305 52.1477C115.18 52.1477 114.251 53.0597 114.26 54.1761C114.251 55.3097 115.18 56.2216 116.305 56.2216ZM124.962 48.4318C124.971 46.7443 126.002 45.7557 127.485 45.7557C128.96 45.7557 129.829 46.7017 129.82 48.3125V56H133.451V47.6648C133.46 44.5966 131.653 42.7386 128.925 42.7386C126.94 42.7386 125.61 43.6761 125.013 45.2188H124.86V38.5455H121.332V56H124.962V48.4318ZM143.271 42.9091H140.808V39.7727H137.178V42.9091H135.388V45.6364H137.178V52.4545C137.161 55.0199 138.908 56.2898 141.541 56.179C142.479 56.1449 143.143 55.9574 143.51 55.8381L142.939 53.1364C142.76 53.1705 142.376 53.2557 142.036 53.2557C141.311 53.2557 140.808 52.983 140.808 51.9773V45.6364H143.271V42.9091ZM145.636 56H149.267V48.142C149.267 46.6932 150.188 45.7301 151.398 45.7301C152.591 45.7301 153.392 46.5483 153.392 47.8352V56H156.912V48.0057C156.912 46.6506 157.688 45.7301 159.009 45.7301C160.168 45.7301 161.037 46.4545 161.037 47.9119V56H164.659V47.196C164.659 44.358 162.972 42.7386 160.534 42.7386C158.616 42.7386 157.125 43.7188 156.588 45.2188H156.452C156.034 43.7017 154.696 42.7386 152.898 42.7386C151.134 42.7386 149.795 43.6761 149.25 45.2188H149.097V42.9091H145.636V56ZM171.158 38.5455H167.527V56H171.158V38.5455Z" fill="#FE7F2D"/>
<path d="M477.556 48.4318C477.565 46.7443 478.596 45.7557 480.079 45.7557C481.553 45.7557 482.423 46.7017 482.414 48.3125V56H486.045V47.6648C486.053 44.5966 484.246 42.7386 481.519 42.7386C479.533 42.7386 478.204 43.6761 477.607 45.2188H477.454V38.5455H473.925V56H477.556V48.4318ZM494.868 56.2557C498.107 56.2557 500.288 54.679 500.8 52.25L497.442 52.0284C497.075 53.0256 496.138 53.5455 494.928 53.5455C493.112 53.5455 491.962 52.3438 491.962 50.392V50.3835H500.876V49.3864C500.876 44.9375 498.183 42.7386 494.723 42.7386C490.871 42.7386 488.374 45.4744 488.374 49.5142C488.374 53.6648 490.837 56.2557 494.868 56.2557ZM491.962 48.1335C492.038 46.642 493.172 45.4489 494.783 45.4489C496.359 45.4489 497.45 46.5739 497.459 48.1335H491.962ZM506.979 56.2472C508.913 56.2472 510.166 55.4034 510.805 54.1847H510.908V56H514.351V47.1705C514.351 44.0511 511.709 42.7386 508.794 42.7386C505.658 42.7386 503.595 44.2386 503.092 46.625L506.45 46.8977C506.697 46.0284 507.473 45.3892 508.777 45.3892C510.013 45.3892 510.72 46.0114 510.72 47.0852V47.1364C510.72 47.9801 509.825 48.0909 507.55 48.3125C504.959 48.5511 502.632 49.4205 502.632 52.3438C502.632 54.9347 504.482 56.2472 506.979 56.2472ZM508.018 53.7415C506.902 53.7415 506.101 53.2216 506.101 52.2244C506.101 51.2017 506.945 50.6989 508.223 50.5199C509.016 50.4091 510.311 50.2216 510.746 49.9318V51.321C510.746 52.6932 509.612 53.7415 508.018 53.7415ZM521.991 56.2131C524.105 56.2131 525.205 54.9943 525.707 53.9034H525.861V56H529.44V38.5455H525.818V45.108H525.707C525.222 44.0426 524.173 42.7386 521.983 42.7386C519.111 42.7386 516.682 44.9716 516.682 49.4716C516.682 53.8523 519.009 56.2131 521.991 56.2131ZM523.142 53.3239C521.361 53.3239 520.389 51.7386 520.389 49.4545C520.389 47.1875 521.344 45.6278 523.142 45.6278C524.906 45.6278 525.895 47.1193 525.895 49.4545C525.895 51.7898 524.889 53.3239 523.142 53.3239ZM538.391 56.2557C541.63 56.2557 543.812 54.679 544.323 52.25L540.965 52.0284C540.599 53.0256 539.661 53.5455 538.451 53.5455C536.636 53.5455 535.485 52.3438 535.485 50.392V50.3835H544.4V49.3864C544.4 44.9375 541.707 42.7386 538.246 42.7386C534.394 42.7386 531.897 45.4744 531.897 49.5142C531.897 53.6648 534.36 56.2557 538.391 56.2557ZM535.485 48.1335C535.562 46.642 536.695 45.4489 538.306 45.4489C539.883 45.4489 540.974 46.5739 540.982 48.1335H535.485ZM546.769 56H550.4V48.5938C550.4 46.983 551.576 45.875 553.178 45.875C553.681 45.875 554.371 45.9602 554.712 46.071V42.8494C554.388 42.7727 553.937 42.7216 553.57 42.7216C552.104 42.7216 550.903 43.5739 550.425 45.1932H550.289V42.9091H546.769V56ZM557.212 56.2216C558.303 56.2216 559.249 55.3097 559.257 54.1761C559.249 53.0597 558.303 52.1477 557.212 52.1477C556.087 52.1477 555.158 53.0597 555.166 54.1761C555.158 55.3097 556.087 56.2216 557.212 56.2216ZM565.869 48.4318C565.877 46.7443 566.908 45.7557 568.391 45.7557C569.866 45.7557 570.735 46.7017 570.727 48.3125V56H574.357V47.6648C574.366 44.5966 572.559 42.7386 569.832 42.7386C567.846 42.7386 566.516 43.6761 565.92 45.2188H565.766V38.5455H562.238V56H565.869V48.4318ZM584.178 42.9091H581.714V39.7727H578.084V42.9091H576.294V45.6364H578.084V52.4545C578.067 55.0199 579.814 56.2898 582.447 56.179C583.385 56.1449 584.05 55.9574 584.416 55.8381L583.845 53.1364C583.666 53.1705 583.283 53.2557 582.942 53.2557C582.217 53.2557 581.714 52.983 581.714 51.9773V45.6364H584.178V42.9091ZM586.543 56H590.173V48.142C590.173 46.6932 591.094 45.7301 592.304 45.7301C593.497 45.7301 594.298 46.5483 594.298 47.8352V56H597.818V48.0057C597.818 46.6506 598.594 45.7301 599.915 45.7301C601.074 45.7301 601.943 46.4545 601.943 47.9119V56H605.565V47.196C605.565 44.358 603.878 42.7386 601.44 42.7386C599.523 42.7386 598.031 43.7188 597.494 45.2188H597.358C596.94 43.7017 595.602 42.7386 593.804 42.7386C592.04 42.7386 590.702 43.6761 590.156 45.2188H590.003V42.9091H586.543V56ZM612.064 38.5455H608.433V56H612.064V38.5455Z" fill="#8E8647"/>
<path d="M917.734 60.9091H921.365V53.9034H921.475C921.978 54.9943 923.078 56.2131 925.191 56.2131C928.174 56.2131 930.501 53.8523 930.501 49.4716C930.501 44.9716 928.072 42.7386 925.2 42.7386C923.01 42.7386 921.961 44.0426 921.475 45.108H921.314V42.9091H917.734V60.9091ZM921.288 49.4545C921.288 47.1193 922.277 45.6278 924.041 45.6278C925.839 45.6278 926.794 47.1875 926.794 49.4545C926.794 51.7386 925.822 53.3239 924.041 53.3239C922.294 53.3239 921.288 51.7898 921.288 49.4545ZM932.922 56H936.552V42.9091H932.922V56ZM934.745 41.2216C935.828 41.2216 936.714 40.3949 936.714 39.3807C936.714 38.375 935.828 37.5483 934.745 37.5483C933.672 37.5483 932.785 38.375 932.785 39.3807C932.785 40.3949 933.672 41.2216 934.745 41.2216ZM939.392 56H950.395V53.1023H944.157V53.0085L950.174 45.2699V42.9091H939.614V45.8068H945.801V45.9006L939.392 53.8352V56ZM953.103 56H964.106V53.1023H957.868V53.0085L963.885 45.2699V42.9091H953.325V45.8068H959.512V45.9006L953.103 53.8352V56ZM970.615 56.2472C972.55 56.2472 973.803 55.4034 974.442 54.1847H974.544V56H977.988V47.1705C977.988 44.0511 975.346 42.7386 972.431 42.7386C969.294 42.7386 967.232 44.2386 966.729 46.625L970.087 46.8977C970.334 46.0284 971.11 45.3892 972.414 45.3892C973.65 45.3892 974.357 46.0114 974.357 47.0852V47.1364C974.357 47.9801 973.462 48.0909 971.186 48.3125C968.596 48.5511 966.269 49.4205 966.269 52.3438C966.269 54.9347 968.118 56.2472 970.615 56.2472ZM971.655 53.7415C970.539 53.7415 969.738 53.2216 969.738 52.2244C969.738 51.2017 970.581 50.6989 971.86 50.5199C972.652 50.4091 973.948 50.2216 974.382 49.9318V51.321C974.382 52.6932 973.249 53.7415 971.655 53.7415ZM991.696 46.642C991.373 44.2301 989.429 42.7386 986.123 42.7386C982.773 42.7386 980.566 44.2898 980.574 46.8125C980.566 48.7727 981.801 50.0426 984.358 50.554L986.625 51.0057C987.767 51.2358 988.287 51.6534 988.304 52.3097C988.287 53.0852 987.444 53.6392 986.174 53.6392C984.878 53.6392 984.017 53.0852 983.796 52.0199L980.225 52.2074C980.566 54.7131 982.696 56.2557 986.165 56.2557C989.557 56.2557 991.986 54.5256 991.995 51.9432C991.986 50.0511 990.75 48.9176 988.211 48.3977L985.841 47.9205C984.623 47.6562 984.171 47.2386 984.179 46.608C984.171 45.8239 985.057 45.3125 986.182 45.3125C987.444 45.3125 988.194 46.0028 988.373 46.8466L991.696 46.642ZM996.403 56.2216C997.494 56.2216 998.44 55.3097 998.449 54.1761C998.44 53.0597 997.494 52.1477 996.403 52.1477C995.278 52.1477 994.349 53.0597 994.358 54.1761C994.349 55.3097 995.278 56.2216 996.403 56.2216ZM1005.06 48.4318C1005.07 46.7443 1006.1 45.7557 1007.58 45.7557C1009.06 45.7557 1009.93 46.7017 1009.92 48.3125V56H1013.55V47.6648C1013.56 44.5966 1011.75 42.7386 1009.02 42.7386C1007.04 42.7386 1005.71 43.6761 1005.11 45.2188H1004.96V38.5455H1001.43V56H1005.06V48.4318ZM1023.37 42.9091H1020.91V39.7727H1017.28V42.9091H1015.49V45.6364H1017.28V52.4545C1017.26 55.0199 1019.01 56.2898 1021.64 56.179C1022.58 56.1449 1023.24 55.9574 1023.61 55.8381L1023.04 53.1364C1022.86 53.1705 1022.47 53.2557 1022.13 53.2557C1021.41 53.2557 1020.91 52.983 1020.91 51.9773V45.6364H1023.37V42.9091ZM1025.73 56H1029.36V48.142C1029.36 46.6932 1030.29 45.7301 1031.5 45.7301C1032.69 45.7301 1033.49 46.5483 1033.49 47.8352V56H1037.01V48.0057C1037.01 46.6506 1037.79 45.7301 1039.11 45.7301C1040.27 45.7301 1041.13 46.4545 1041.13 47.9119V56H1044.76V47.196C1044.76 44.358 1043.07 42.7386 1040.63 42.7386C1038.71 42.7386 1037.22 43.7188 1036.69 45.2188H1036.55C1036.13 43.7017 1034.79 42.7386 1033 42.7386C1031.23 42.7386 1029.89 43.6761 1029.35 45.2188H1029.19V42.9091H1025.73V56ZM1051.26 38.5455H1047.62V56H1051.26V38.5455Z" fill="#8D3B72"/>
<path d="M227.009 56H230.589V53.9034H230.751C231.254 54.9943 232.353 56.2131 234.467 56.2131C237.45 56.2131 239.776 53.8523 239.776 49.4716C239.776 44.9716 237.347 42.7386 234.475 42.7386C232.285 42.7386 231.237 44.0426 230.751 45.108H230.64V38.5455H227.009V56ZM230.563 49.4545C230.563 47.1193 231.552 45.6278 233.316 45.6278C235.114 45.6278 236.069 47.1875 236.069 49.4545C236.069 51.7386 235.097 53.3239 233.316 53.3239C231.569 53.3239 230.563 51.7898 230.563 49.4545ZM250.594 50.4261C250.602 52.1818 249.401 53.1023 248.097 53.1023C246.724 53.1023 245.838 52.1392 245.83 50.5966V42.9091H242.199V51.2443C242.207 54.304 243.997 56.1705 246.631 56.1705C248.599 56.1705 250.014 55.1562 250.602 53.6222H250.739V56H254.224V42.9091H250.594V50.4261ZM264.092 42.9091H261.629V39.7727H257.998V42.9091H256.208V45.6364H257.998V52.4545C257.981 55.0199 259.728 56.2898 262.362 56.179C263.299 56.1449 263.964 55.9574 264.33 55.8381L263.759 53.1364C263.58 53.1705 263.197 53.2557 262.856 53.2557C262.131 53.2557 261.629 52.983 261.629 51.9773V45.6364H264.092V42.9091ZM273.42 42.9091H270.957V39.7727H267.326V42.9091H265.536V45.6364H267.326V52.4545C267.309 55.0199 269.056 56.2898 271.69 56.179C272.627 56.1449 273.292 55.9574 273.658 55.8381L273.087 53.1364C272.908 53.1705 272.525 53.2557 272.184 53.2557C271.46 53.2557 270.957 52.983 270.957 51.9773V45.6364H273.42V42.9091ZM281.559 56.2557C285.531 56.2557 288.002 53.5369 288.002 49.5057C288.002 45.4489 285.531 42.7386 281.559 42.7386C277.587 42.7386 275.116 45.4489 275.116 49.5057C275.116 53.5369 277.587 56.2557 281.559 56.2557ZM281.576 53.4432C279.744 53.4432 278.806 51.7642 278.806 49.4801C278.806 47.196 279.744 45.5085 281.576 45.5085C283.374 45.5085 284.312 47.196 284.312 49.4801C284.312 51.7642 283.374 53.4432 281.576 53.4432ZM293.994 48.4318C294.002 46.7443 295.008 45.7557 296.474 45.7557C297.931 45.7557 298.809 46.7102 298.8 48.3125V56H302.431V47.6648C302.431 44.6136 300.641 42.7386 297.914 42.7386C295.971 42.7386 294.565 43.6932 293.977 45.2188H293.823V42.9091H290.363V56H293.994V48.4318ZM307.415 56.2216C308.506 56.2216 309.452 55.3097 309.46 54.1761C309.452 53.0597 308.506 52.1477 307.415 52.1477C306.29 52.1477 305.361 53.0597 305.369 54.1761C305.361 55.3097 306.29 56.2216 307.415 56.2216ZM323.333 46.642C323.009 44.2301 321.066 42.7386 317.759 42.7386C314.41 42.7386 312.202 44.2898 312.211 46.8125C312.202 48.7727 313.438 50.0426 315.995 50.554L318.262 51.0057C319.404 51.2358 319.924 51.6534 319.941 52.3097C319.924 53.0852 319.08 53.6392 317.81 53.6392C316.515 53.6392 315.654 53.0852 315.433 52.0199L311.862 52.2074C312.202 54.7131 314.333 56.2557 317.802 56.2557C321.194 56.2557 323.623 54.5256 323.631 51.9432C323.623 50.0511 322.387 48.9176 319.847 48.3977L317.478 47.9205C316.259 47.6562 315.808 47.2386 315.816 46.608C315.808 45.8239 316.694 45.3125 317.819 45.3125C319.08 45.3125 319.83 46.0028 320.009 46.8466L323.333 46.642ZM331.832 56.2557C335.318 56.2557 337.509 54.2102 337.679 51.2017H334.253C334.04 52.5994 333.119 53.3835 331.875 53.3835C330.179 53.3835 329.08 51.9602 329.08 49.4545C329.08 46.983 330.188 45.5682 331.875 45.5682C333.205 45.5682 334.057 46.446 334.253 47.75H337.679C337.526 44.7244 335.233 42.7386 331.815 42.7386C327.844 42.7386 325.389 45.4915 325.389 49.5057C325.389 53.4858 327.801 56.2557 331.832 56.2557ZM350.896 46.642C350.572 44.2301 348.629 42.7386 345.322 42.7386C341.972 42.7386 339.765 44.2898 339.773 46.8125C339.765 48.7727 341.001 50.0426 343.558 50.554L345.825 51.0057C346.967 51.2358 347.487 51.6534 347.504 52.3097C347.487 53.0852 346.643 53.6392 345.373 53.6392C344.077 53.6392 343.217 53.0852 342.995 52.0199L339.424 52.2074C339.765 54.7131 341.896 56.2557 345.364 56.2557C348.756 56.2557 351.185 54.5256 351.194 51.9432C351.185 50.0511 349.95 48.9176 347.41 48.3977L345.04 47.9205C343.822 47.6562 343.37 47.2386 343.379 46.608C343.37 45.8239 344.256 45.3125 345.381 45.3125C346.643 45.3125 347.393 46.0028 347.572 46.8466L350.896 46.642ZM364.372 46.642C364.048 44.2301 362.105 42.7386 358.798 42.7386C355.449 42.7386 353.241 44.2898 353.25 46.8125C353.241 48.7727 354.477 50.0426 357.034 50.554L359.301 51.0057C360.443 51.2358 360.963 51.6534 360.98 52.3097C360.963 53.0852 360.119 53.6392 358.849 53.6392C357.554 53.6392 356.693 53.0852 356.472 52.0199L352.901 52.2074C353.241 54.7131 355.372 56.2557 358.841 56.2557C362.233 56.2557 364.662 54.5256 364.67 51.9432C364.662 50.0511 363.426 48.9176 360.886 48.3977L358.517 47.9205C357.298 47.6562 356.847 47.2386 356.855 46.608C356.847 45.8239 357.733 45.3125 358.858 45.3125C360.119 45.3125 360.869 46.0028 361.048 46.8466L364.372 46.642Z" fill="#FE7F2D"/>
<path d="M669.165 48.4318C669.174 46.7443 670.205 45.7557 671.688 45.7557C673.163 45.7557 674.032 46.7017 674.023 48.3125V56H677.654V47.6648C677.663 44.5966 675.856 42.7386 673.129 42.7386C671.143 42.7386 669.813 43.6761 669.217 45.2188H669.063V38.5455H665.535V56H669.165V48.4318ZM686.477 56.2557C689.716 56.2557 691.898 54.679 692.409 52.25L689.051 52.0284C688.685 53.0256 687.747 53.5455 686.537 53.5455C684.722 53.5455 683.571 52.3438 683.571 50.392V50.3835H692.486V49.3864C692.486 44.9375 689.793 42.7386 686.332 42.7386C682.48 42.7386 679.983 45.4744 679.983 49.5142C679.983 53.6648 682.446 56.2557 686.477 56.2557ZM683.571 48.1335C683.648 46.642 684.781 45.4489 686.392 45.4489C687.969 45.4489 689.06 46.5739 689.068 48.1335H683.571ZM698.588 56.2472C700.523 56.2472 701.776 55.4034 702.415 54.1847H702.517V56H705.96V47.1705C705.96 44.0511 703.318 42.7386 700.403 42.7386C697.267 42.7386 695.205 44.2386 694.702 46.625L698.06 46.8977C698.307 46.0284 699.082 45.3892 700.386 45.3892C701.622 45.3892 702.33 46.0114 702.33 47.0852V47.1364C702.33 47.9801 701.435 48.0909 699.159 48.3125C696.568 48.5511 694.241 49.4205 694.241 52.3438C694.241 54.9347 696.091 56.2472 698.588 56.2472ZM699.628 53.7415C698.511 53.7415 697.71 53.2216 697.71 52.2244C697.71 51.2017 698.554 50.6989 699.832 50.5199C700.625 50.4091 701.92 50.2216 702.355 49.9318V51.321C702.355 52.6932 701.222 53.7415 699.628 53.7415ZM713.601 56.2131C715.714 56.2131 716.814 54.9943 717.317 53.9034H717.47V56H721.05V38.5455H717.428V45.108H717.317C716.831 44.0426 715.783 42.7386 713.592 42.7386C710.72 42.7386 708.291 44.9716 708.291 49.4716C708.291 53.8523 710.618 56.2131 713.601 56.2131ZM714.751 53.3239C712.97 53.3239 711.999 51.7386 711.999 49.4545C711.999 47.1875 712.953 45.6278 714.751 45.6278C716.516 45.6278 717.504 47.1193 717.504 49.4545C717.504 51.7898 716.499 53.3239 714.751 53.3239ZM730.001 56.2557C733.239 56.2557 735.421 54.679 735.933 52.25L732.575 52.0284C732.208 53.0256 731.271 53.5455 730.06 53.5455C728.245 53.5455 727.094 52.3438 727.094 50.392V50.3835H736.009V49.3864C736.009 44.9375 733.316 42.7386 729.856 42.7386C726.004 42.7386 723.506 45.4744 723.506 49.5142C723.506 53.6648 725.969 56.2557 730.001 56.2557ZM727.094 48.1335C727.171 46.642 728.305 45.4489 729.915 45.4489C731.492 45.4489 732.583 46.5739 732.592 48.1335H727.094ZM738.379 56H742.009V48.5938C742.009 46.983 743.185 45.875 744.788 45.875C745.29 45.875 745.981 45.9602 746.322 46.071V42.8494C745.998 42.7727 745.546 42.7216 745.18 42.7216C743.714 42.7216 742.512 43.5739 742.035 45.1932H741.898V42.9091H738.379V56ZM748.821 56.2216C749.912 56.2216 750.858 55.3097 750.866 54.1761C750.858 53.0597 749.912 52.1477 748.821 52.1477C747.696 52.1477 746.767 53.0597 746.776 54.1761C746.767 55.3097 747.696 56.2216 748.821 56.2216ZM764.739 46.642C764.415 44.2301 762.472 42.7386 759.165 42.7386C755.816 42.7386 753.609 44.2898 753.617 46.8125C753.609 48.7727 754.844 50.0426 757.401 50.554L759.668 51.0057C760.81 51.2358 761.33 51.6534 761.347 52.3097C761.33 53.0852 760.487 53.6392 759.217 53.6392C757.921 53.6392 757.06 53.0852 756.839 52.0199L753.268 52.2074C753.609 54.7131 755.739 56.2557 759.208 56.2557C762.6 56.2557 765.029 54.5256 765.038 51.9432C765.029 50.0511 763.793 48.9176 761.254 48.3977L758.884 47.9205C757.665 47.6562 757.214 47.2386 757.222 46.608C757.214 45.8239 758.1 45.3125 759.225 45.3125C760.487 45.3125 761.237 46.0028 761.415 46.8466L764.739 46.642ZM773.239 56.2557C776.724 56.2557 778.915 54.2102 779.085 51.2017H775.659C775.446 52.5994 774.526 53.3835 773.281 53.3835C771.585 53.3835 770.486 51.9602 770.486 49.4545C770.486 46.983 771.594 45.5682 773.281 45.5682C774.611 45.5682 775.463 46.446 775.659 47.75H779.085C778.932 44.7244 776.639 42.7386 773.222 42.7386C769.25 42.7386 766.795 45.4915 766.795 49.5057C766.795 53.4858 769.207 56.2557 773.239 56.2557ZM792.302 46.642C791.978 44.2301 790.035 42.7386 786.728 42.7386C783.379 42.7386 781.171 44.2898 781.18 46.8125C781.171 48.7727 782.407 50.0426 784.964 50.554L787.231 51.0057C788.373 51.2358 788.893 51.6534 788.91 52.3097C788.893 53.0852 788.049 53.6392 786.779 53.6392C785.484 53.6392 784.623 53.0852 784.401 52.0199L780.83 52.2074C781.171 54.7131 783.302 56.2557 786.771 56.2557C790.163 56.2557 792.592 54.5256 792.6 51.9432C792.592 50.0511 791.356 48.9176 788.816 48.3977L786.447 47.9205C785.228 47.6562 784.776 47.2386 784.785 46.608C784.776 45.8239 785.663 45.3125 786.788 45.3125C788.049 45.3125 788.799 46.0028 788.978 46.8466L792.302 46.642ZM805.778 46.642C805.455 44.2301 803.511 42.7386 800.205 42.7386C796.855 42.7386 794.648 44.2898 794.656 46.8125C794.648 48.7727 795.884 50.0426 798.44 50.554L800.707 51.0057C801.849 51.2358 802.369 51.6534 802.386 52.3097C802.369 53.0852 801.526 53.6392 800.256 53.6392C798.96 53.6392 798.099 53.0852 797.878 52.0199L794.307 52.2074C794.648 54.7131 796.778 56.2557 800.247 56.2557C803.639 56.2557 806.068 54.5256 806.077 51.9432C806.068 50.0511 804.832 48.9176 802.293 48.3977L799.923 47.9205C798.705 47.6562 798.253 47.2386 798.261 46.608C798.253 45.8239 799.139 45.3125 800.264 45.3125C801.526 45.3125 802.276 46.0028 802.455 46.8466L805.778 46.642Z" fill="#8E8647"/>
<path d="M1108.84 60.9091H1112.47V53.9034H1112.58C1113.09 54.9943 1114.19 56.2131 1116.3 56.2131C1119.28 56.2131 1121.61 53.8523 1121.61 49.4716C1121.61 44.9716 1119.18 42.7386 1116.31 42.7386C1114.12 42.7386 1113.07 44.0426 1112.58 45.108H1112.42V42.9091H1108.84V60.9091ZM1112.4 49.4545C1112.4 47.1193 1113.39 45.6278 1115.15 45.6278C1116.95 45.6278 1117.9 47.1875 1117.9 49.4545C1117.9 51.7386 1116.93 53.3239 1115.15 53.3239C1113.4 53.3239 1112.4 51.7898 1112.4 49.4545ZM1124.03 56H1127.66V42.9091H1124.03V56ZM1125.85 41.2216C1126.94 41.2216 1127.82 40.3949 1127.82 39.3807C1127.82 38.375 1126.94 37.5483 1125.85 37.5483C1124.78 37.5483 1123.89 38.375 1123.89 39.3807C1123.89 40.3949 1124.78 41.2216 1125.85 41.2216ZM1130.5 56H1141.5V53.1023H1135.27V53.0085L1141.28 45.2699V42.9091H1130.72V45.8068H1136.91V45.9006L1130.5 53.8352V56ZM1144.21 56H1155.22V53.1023H1148.98V53.0085L1154.99 45.2699V42.9091H1144.43V45.8068H1150.62V45.9006L1144.21 53.8352V56ZM1161.72 56.2472C1163.66 56.2472 1164.91 55.4034 1165.55 54.1847H1165.65V56H1169.1V47.1705C1169.1 44.0511 1166.45 42.7386 1163.54 42.7386C1160.4 42.7386 1158.34 44.2386 1157.84 46.625L1161.2 46.8977C1161.44 46.0284 1162.22 45.3892 1163.52 45.3892C1164.76 45.3892 1165.47 46.0114 1165.47 47.0852V47.1364C1165.47 47.9801 1164.57 48.0909 1162.3 48.3125C1159.7 48.5511 1157.38 49.4205 1157.38 52.3438C1157.38 54.9347 1159.23 56.2472 1161.72 56.2472ZM1162.76 53.7415C1161.65 53.7415 1160.85 53.2216 1160.85 52.2244C1160.85 51.2017 1161.69 50.6989 1162.97 50.5199C1163.76 50.4091 1165.06 50.2216 1165.49 49.9318V51.321C1165.49 52.6932 1164.36 53.7415 1162.76 53.7415ZM1182.81 46.642C1182.48 44.2301 1180.54 42.7386 1177.23 42.7386C1173.88 42.7386 1171.68 44.2898 1171.68 46.8125C1171.68 48.7727 1172.91 50.0426 1175.47 50.554L1177.73 51.0057C1178.88 51.2358 1179.4 51.6534 1179.41 52.3097C1179.4 53.0852 1178.55 53.6392 1177.28 53.6392C1175.99 53.6392 1175.13 53.0852 1174.91 52.0199L1171.33 52.2074C1171.68 54.7131 1173.81 56.2557 1177.27 56.2557C1180.67 56.2557 1183.1 54.5256 1183.1 51.9432C1183.1 50.0511 1181.86 48.9176 1179.32 48.3977L1176.95 47.9205C1175.73 47.6562 1175.28 47.2386 1175.29 46.608C1175.28 45.8239 1176.17 45.3125 1177.29 45.3125C1178.55 45.3125 1179.3 46.0028 1179.48 46.8466L1182.81 46.642ZM1187.51 56.2216C1188.6 56.2216 1189.55 55.3097 1189.56 54.1761C1189.55 53.0597 1188.6 52.1477 1187.51 52.1477C1186.39 52.1477 1185.46 53.0597 1185.47 54.1761C1185.46 55.3097 1186.39 56.2216 1187.51 56.2216ZM1203.43 46.642C1203.11 44.2301 1201.16 42.7386 1197.86 42.7386C1194.51 42.7386 1192.3 44.2898 1192.31 46.8125C1192.3 48.7727 1193.54 50.0426 1196.09 50.554L1198.36 51.0057C1199.5 51.2358 1200.02 51.6534 1200.04 52.3097C1200.02 53.0852 1199.18 53.6392 1197.91 53.6392C1196.61 53.6392 1195.75 53.0852 1195.53 52.0199L1191.96 52.2074C1192.3 54.7131 1194.43 56.2557 1197.9 56.2557C1201.29 56.2557 1203.72 54.5256 1203.73 51.9432C1203.72 50.0511 1202.48 48.9176 1199.94 48.3977L1197.58 47.9205C1196.36 47.6562 1195.91 47.2386 1195.91 46.608C1195.91 45.8239 1196.79 45.3125 1197.92 45.3125C1199.18 45.3125 1199.93 46.0028 1200.11 46.8466L1203.43 46.642ZM1211.93 56.2557C1215.42 56.2557 1217.61 54.2102 1217.78 51.2017H1214.35C1214.14 52.5994 1213.22 53.3835 1211.97 53.3835C1210.28 53.3835 1209.18 51.9602 1209.18 49.4545C1209.18 46.983 1210.29 45.5682 1211.97 45.5682C1213.3 45.5682 1214.15 46.446 1214.35 47.75H1217.78C1217.62 44.7244 1215.33 42.7386 1211.91 42.7386C1207.94 42.7386 1205.49 45.4915 1205.49 49.5057C1205.49 53.4858 1207.9 56.2557 1211.93 56.2557ZM1230.99 46.642C1230.67 44.2301 1228.73 42.7386 1225.42 42.7386C1222.07 42.7386 1219.86 44.2898 1219.87 46.8125C1219.86 48.7727 1221.1 50.0426 1223.66 50.554L1225.92 51.0057C1227.06 51.2358 1227.58 51.6534 1227.6 52.3097C1227.58 53.0852 1226.74 53.6392 1225.47 53.6392C1224.18 53.6392 1223.31 53.0852 1223.09 52.0199L1219.52 52.2074C1219.86 54.7131 1221.99 56.2557 1225.46 56.2557C1228.85 56.2557 1231.28 54.5256 1231.29 51.9432C1231.28 50.0511 1230.05 48.9176 1227.51 48.3977L1225.14 47.9205C1223.92 47.6562 1223.47 47.2386 1223.48 46.608C1223.47 45.8239 1224.35 45.3125 1225.48 45.3125C1226.74 45.3125 1227.49 46.0028 1227.67 46.8466L1230.99 46.642ZM1244.47 46.642C1244.15 44.2301 1242.2 42.7386 1238.9 42.7386C1235.55 42.7386 1233.34 44.2898 1233.35 46.8125C1233.34 48.7727 1234.57 50.0426 1237.13 50.554L1239.4 51.0057C1240.54 51.2358 1241.06 51.6534 1241.08 52.3097C1241.06 53.0852 1240.22 53.6392 1238.95 53.6392C1237.65 53.6392 1236.79 53.0852 1236.57 52.0199L1233 52.2074C1233.34 54.7131 1235.47 56.2557 1238.94 56.2557C1242.33 56.2557 1244.76 54.5256 1244.77 51.9432C1244.76 50.0511 1243.52 48.9176 1240.98 48.3977L1238.61 47.9205C1237.4 47.6562 1236.94 47.2386 1236.95 46.608C1236.94 45.8239 1237.83 45.3125 1238.96 45.3125C1240.22 45.3125 1240.97 46.0028 1241.15 46.8466L1244.47 46.642Z" fill="#8D3B72"/>
<path d="M82.7436 129H86.3232V126.903H86.4851C86.9879 127.994 88.0874 129.213 90.201 129.213C93.1839 129.213 95.5107 126.852 95.5107 122.472C95.5107 117.972 93.0817 115.739 90.2095 115.739C88.0192 115.739 86.9709 117.043 86.4851 118.108H86.3743V111.545H82.7436V129ZM86.2976 122.455C86.2976 120.119 87.2862 118.628 89.0504 118.628C90.8487 118.628 91.8033 120.188 91.8033 122.455C91.8033 124.739 90.8317 126.324 89.0504 126.324C87.3033 126.324 86.2976 124.79 86.2976 122.455ZM106.328 123.426C106.337 125.182 105.135 126.102 103.831 126.102C102.459 126.102 101.572 125.139 101.564 123.597V115.909H97.9332V124.244C97.9418 127.304 99.7315 129.17 102.365 129.17C104.334 129.17 105.749 128.156 106.337 126.622H106.473V129H109.959V115.909H106.328V123.426ZM119.826 115.909H117.363V112.773H113.732V115.909H111.942V118.636H113.732V125.455C113.715 128.02 115.462 129.29 118.096 129.179C119.033 129.145 119.698 128.957 120.065 128.838L119.494 126.136C119.315 126.17 118.931 126.256 118.59 126.256C117.866 126.256 117.363 125.983 117.363 124.977V118.636H119.826V115.909ZM129.154 115.909H126.691V112.773H123.06V115.909H121.271V118.636H123.06V125.455C123.043 128.02 124.79 129.29 127.424 129.179C128.362 129.145 129.026 128.957 129.393 128.838L128.822 126.136C128.643 126.17 128.259 126.256 127.918 126.256C127.194 126.256 126.691 125.983 126.691 124.977V118.636H129.154V115.909ZM137.293 129.256C141.265 129.256 143.737 126.537 143.737 122.506C143.737 118.449 141.265 115.739 137.293 115.739C133.322 115.739 130.85 118.449 130.85 122.506C130.85 126.537 133.322 129.256 137.293 129.256ZM137.31 126.443C135.478 126.443 134.54 124.764 134.54 122.48C134.54 120.196 135.478 118.509 137.31 118.509C139.109 118.509 140.046 120.196 140.046 122.48C140.046 124.764 139.109 126.443 137.31 126.443ZM149.728 121.432C149.737 119.744 150.742 118.756 152.208 118.756C153.665 118.756 154.543 119.71 154.535 121.312V129H158.165V120.665C158.165 117.614 156.376 115.739 153.648 115.739C151.705 115.739 150.299 116.693 149.711 118.219H149.558V115.909H146.097V129H149.728V121.432ZM163.149 129.222C164.24 129.222 165.186 128.31 165.195 127.176C165.186 126.06 164.24 125.148 163.149 125.148C162.024 125.148 161.095 126.06 161.104 127.176C161.095 128.31 162.024 129.222 163.149 129.222ZM179.067 119.642C178.744 117.23 176.8 115.739 173.494 115.739C170.144 115.739 167.937 117.29 167.945 119.812C167.937 121.773 169.173 123.043 171.729 123.554L173.996 124.006C175.138 124.236 175.658 124.653 175.675 125.31C175.658 126.085 174.815 126.639 173.545 126.639C172.249 126.639 171.388 126.085 171.167 125.02L167.596 125.207C167.937 127.713 170.067 129.256 173.536 129.256C176.928 129.256 179.357 127.526 179.366 124.943C179.357 123.051 178.121 121.918 175.582 121.398L173.212 120.92C171.994 120.656 171.542 120.239 171.55 119.608C171.542 118.824 172.428 118.312 173.553 118.312C174.815 118.312 175.565 119.003 175.744 119.847L179.067 119.642ZM188.615 115.909H186.152V112.773H182.521V115.909H180.732V118.636H182.521V125.455C182.504 128.02 184.251 129.29 186.885 129.179C187.822 129.145 188.487 128.957 188.854 128.838L188.283 126.136C188.104 126.17 187.72 126.256 187.379 126.256C186.655 126.256 186.152 125.983 186.152 124.977V118.636H188.615V115.909ZM196.754 129.256C200.726 129.256 203.197 126.537 203.197 122.506C203.197 118.449 200.726 115.739 196.754 115.739C192.783 115.739 190.311 118.449 190.311 122.506C190.311 126.537 192.783 129.256 196.754 129.256ZM196.771 126.443C194.939 126.443 194.001 124.764 194.001 122.48C194.001 120.196 194.939 118.509 196.771 118.509C198.57 118.509 199.507 120.196 199.507 122.48C199.507 124.764 198.57 126.443 196.771 126.443ZM205.558 129H209.189V121.594C209.189 119.983 210.365 118.875 211.967 118.875C212.47 118.875 213.161 118.96 213.501 119.071V115.849C213.178 115.773 212.726 115.722 212.359 115.722C210.893 115.722 209.692 116.574 209.214 118.193H209.078V115.909H205.558V129ZM215.379 129H219.009V115.909H215.379V129ZM217.202 114.222C218.285 114.222 219.171 113.395 219.171 112.381C219.171 111.375 218.285 110.548 217.202 110.548C216.129 110.548 215.242 111.375 215.242 112.381C215.242 113.395 216.129 114.222 217.202 114.222ZM227.884 129.256C231.122 129.256 233.304 127.679 233.815 125.25L230.457 125.028C230.091 126.026 229.153 126.545 227.943 126.545C226.128 126.545 224.977 125.344 224.977 123.392V123.384H233.892V122.386C233.892 117.938 231.199 115.739 227.739 115.739C223.886 115.739 221.389 118.474 221.389 122.514C221.389 126.665 223.852 129.256 227.884 129.256ZM224.977 121.134C225.054 119.642 226.188 118.449 227.798 118.449C229.375 118.449 230.466 119.574 230.474 121.134H224.977ZM247.153 119.642C246.83 117.23 244.886 115.739 241.58 115.739C238.23 115.739 236.023 117.29 236.031 119.812C236.023 121.773 237.259 123.043 239.815 123.554L242.082 124.006C243.224 124.236 243.744 124.653 243.761 125.31C243.744 126.085 242.901 126.639 241.631 126.639C240.335 126.639 239.474 126.085 239.253 125.02L235.682 125.207C236.023 127.713 238.153 129.256 241.622 129.256C245.014 129.256 247.443 127.526 247.452 124.943C247.443 123.051 246.207 121.918 243.668 121.398L241.298 120.92C240.08 120.656 239.628 120.239 239.636 119.608C239.628 118.824 240.514 118.312 241.639 118.312C242.901 118.312 243.651 119.003 243.83 119.847L247.153 119.642ZM251.86 129.222C252.951 129.222 253.897 128.31 253.906 127.176C253.897 126.06 252.951 125.148 251.86 125.148C250.735 125.148 249.806 126.06 249.815 127.176C249.806 128.31 250.735 129.222 251.86 129.222ZM263.849 115.909H261.386V112.773H257.756V115.909H255.966V118.636H257.756V125.455C257.739 128.02 259.486 129.29 262.119 129.179C263.057 129.145 263.722 128.957 264.088 128.838L263.517 126.136C263.338 126.17 262.955 126.256 262.614 126.256C261.889 126.256 261.386 125.983 261.386 124.977V118.636H263.849V115.909ZM271.989 129.256C275.96 129.256 278.432 126.537 278.432 122.506C278.432 118.449 275.96 115.739 271.989 115.739C268.017 115.739 265.545 118.449 265.545 122.506C265.545 126.537 268.017 129.256 271.989 129.256ZM272.006 126.443C270.173 126.443 269.236 124.764 269.236 122.48C269.236 120.196 270.173 118.509 272.006 118.509C273.804 118.509 274.741 120.196 274.741 122.48C274.741 124.764 273.804 126.443 272.006 126.443ZM280.793 129H284.423V121.142C284.423 119.693 285.344 118.73 286.554 118.73C287.747 118.73 288.548 119.548 288.548 120.835V129H292.068V121.006C292.068 119.651 292.844 118.73 294.165 118.73C295.324 118.73 296.193 119.455 296.193 120.912V129H299.815V120.196C299.815 117.358 298.128 115.739 295.69 115.739C293.773 115.739 292.281 116.719 291.744 118.219H291.608C291.19 116.702 289.852 115.739 288.054 115.739C286.29 115.739 284.952 116.676 284.406 118.219H284.253V115.909H280.793V129ZM306.314 111.545H302.683V129H306.314V111.545Z" fill="#FE7F2D"/>
<path d="M524.4 121.432C524.408 119.744 525.44 118.756 526.923 118.756C528.397 118.756 529.266 119.702 529.258 121.312V129H532.888V120.665C532.897 117.597 531.09 115.739 528.363 115.739C526.377 115.739 525.048 116.676 524.451 118.219H524.298V111.545H520.769V129H524.4V121.432ZM541.712 129.256C544.95 129.256 547.132 127.679 547.643 125.25L544.286 125.028C543.919 126.026 542.982 126.545 541.771 126.545C539.956 126.545 538.805 125.344 538.805 123.392V123.384H547.72V122.386C547.72 117.938 545.027 115.739 541.567 115.739C537.714 115.739 535.217 118.474 535.217 122.514C535.217 126.665 537.68 129.256 541.712 129.256ZM538.805 121.134C538.882 119.642 540.016 118.449 541.626 118.449C543.203 118.449 544.294 119.574 544.303 121.134H538.805ZM553.822 129.247C555.757 129.247 557.01 128.403 557.649 127.185H557.751V129H561.195V120.17C561.195 117.051 558.553 115.739 555.638 115.739C552.501 115.739 550.439 117.239 549.936 119.625L553.294 119.898C553.541 119.028 554.317 118.389 555.621 118.389C556.857 118.389 557.564 119.011 557.564 120.085V120.136C557.564 120.98 556.669 121.091 554.393 121.312C551.803 121.551 549.476 122.42 549.476 125.344C549.476 127.935 551.325 129.247 553.822 129.247ZM554.862 126.741C553.746 126.741 552.945 126.222 552.945 125.224C552.945 124.202 553.788 123.699 555.067 123.52C555.859 123.409 557.155 123.222 557.589 122.932V124.321C557.589 125.693 556.456 126.741 554.862 126.741ZM568.835 129.213C570.949 129.213 572.048 127.994 572.551 126.903H572.705V129H576.284V111.545H572.662V118.108H572.551C572.065 117.043 571.017 115.739 568.827 115.739C565.955 115.739 563.526 117.972 563.526 122.472C563.526 126.852 565.852 129.213 568.835 129.213ZM569.986 126.324C568.205 126.324 567.233 124.739 567.233 122.455C567.233 120.188 568.188 118.628 569.986 118.628C571.75 118.628 572.739 120.119 572.739 122.455C572.739 124.79 571.733 126.324 569.986 126.324ZM585.235 129.256C588.474 129.256 590.656 127.679 591.167 125.25L587.809 125.028C587.442 126.026 586.505 126.545 585.295 126.545C583.479 126.545 582.329 125.344 582.329 123.392V123.384H591.244V122.386C591.244 117.938 588.55 115.739 585.09 115.739C581.238 115.739 578.741 118.474 578.741 122.514C578.741 126.665 581.204 129.256 585.235 129.256ZM582.329 121.134C582.406 119.642 583.539 118.449 585.15 118.449C586.727 118.449 587.817 119.574 587.826 121.134H582.329ZM593.613 129H597.244V121.594C597.244 119.983 598.42 118.875 600.022 118.875C600.525 118.875 601.215 118.96 601.556 119.071V115.849C601.232 115.773 600.781 115.722 600.414 115.722C598.948 115.722 597.746 116.574 597.269 118.193H597.133V115.909H593.613V129ZM604.055 129.222C605.146 129.222 606.092 128.31 606.101 127.176C606.092 126.06 605.146 125.148 604.055 125.148C602.93 125.148 602.001 126.06 602.01 127.176C602.001 128.31 602.93 129.222 604.055 129.222ZM619.974 119.642C619.65 117.23 617.707 115.739 614.4 115.739C611.05 115.739 608.843 117.29 608.852 119.812C608.843 121.773 610.079 123.043 612.636 123.554L614.903 124.006C616.045 124.236 616.565 124.653 616.582 125.31C616.565 126.085 615.721 126.639 614.451 126.639C613.156 126.639 612.295 126.085 612.073 125.02L608.502 125.207C608.843 127.713 610.974 129.256 614.442 129.256C617.835 129.256 620.263 127.526 620.272 124.943C620.263 123.051 619.028 121.918 616.488 121.398L614.119 120.92C612.9 120.656 612.448 120.239 612.457 119.608C612.448 118.824 613.335 118.312 614.46 118.312C615.721 118.312 616.471 119.003 616.65 119.847L619.974 119.642ZM629.521 115.909H627.058V112.773H623.428V115.909H621.638V118.636H623.428V125.455C623.411 128.02 625.158 129.29 627.791 129.179C628.729 129.145 629.393 128.957 629.76 128.838L629.189 126.136C629.01 126.17 628.626 126.256 628.286 126.256C627.561 126.256 627.058 125.983 627.058 124.977V118.636H629.521V115.909ZM637.661 129.256C641.632 129.256 644.104 126.537 644.104 122.506C644.104 118.449 641.632 115.739 637.661 115.739C633.689 115.739 631.217 118.449 631.217 122.506C631.217 126.537 633.689 129.256 637.661 129.256ZM637.678 126.443C635.845 126.443 634.908 124.764 634.908 122.48C634.908 120.196 635.845 118.509 637.678 118.509C639.476 118.509 640.413 120.196 640.413 122.48C640.413 124.764 639.476 126.443 637.678 126.443ZM646.464 129H650.095V121.594C650.095 119.983 651.271 118.875 652.874 118.875C653.376 118.875 654.067 118.96 654.408 119.071V115.849C654.084 115.773 653.632 115.722 653.266 115.722C651.8 115.722 650.598 116.574 650.121 118.193H649.984V115.909H646.464V129ZM656.285 129H659.915V115.909H656.285V129ZM658.109 114.222C659.191 114.222 660.077 113.395 660.077 112.381C660.077 111.375 659.191 110.548 658.109 110.548C657.035 110.548 656.148 111.375 656.148 112.381C656.148 113.395 657.035 114.222 658.109 114.222ZM668.79 129.256C672.028 129.256 674.21 127.679 674.722 125.25L671.364 125.028C670.997 126.026 670.06 126.545 668.849 126.545C667.034 126.545 665.884 125.344 665.884 123.392V123.384H674.798V122.386C674.798 117.938 672.105 115.739 668.645 115.739C664.793 115.739 662.295 118.474 662.295 122.514C662.295 126.665 664.759 129.256 668.79 129.256ZM665.884 121.134C665.96 119.642 667.094 118.449 668.705 118.449C670.281 118.449 671.372 119.574 671.381 121.134H665.884ZM688.06 119.642C687.736 117.23 685.793 115.739 682.486 115.739C679.136 115.739 676.929 117.29 676.938 119.812C676.929 121.773 678.165 123.043 680.722 123.554L682.989 124.006C684.131 124.236 684.651 124.653 684.668 125.31C684.651 126.085 683.807 126.639 682.537 126.639C681.241 126.639 680.381 126.085 680.159 125.02L676.588 125.207C676.929 127.713 679.06 129.256 682.528 129.256C685.92 129.256 688.349 127.526 688.358 124.943C688.349 123.051 687.114 121.918 684.574 121.398L682.205 120.92C680.986 120.656 680.534 120.239 680.543 119.608C680.534 118.824 681.42 118.312 682.545 118.312C683.807 118.312 684.557 119.003 684.736 119.847L688.06 119.642ZM692.766 129.222C693.857 129.222 694.803 128.31 694.812 127.176C694.803 126.06 693.857 125.148 692.766 125.148C691.641 125.148 690.712 126.06 690.721 127.176C690.712 128.31 691.641 129.222 692.766 129.222ZM704.756 115.909H702.293V112.773H698.662V115.909H696.872V118.636H698.662V125.455C698.645 128.02 700.392 129.29 703.026 129.179C703.963 129.145 704.628 128.957 704.994 128.838L704.423 126.136C704.244 126.17 703.861 126.256 703.52 126.256C702.795 126.256 702.293 125.983 702.293 124.977V118.636H704.756V115.909ZM712.895 129.256C716.866 129.256 719.338 126.537 719.338 122.506C719.338 118.449 716.866 115.739 712.895 115.739C708.923 115.739 706.452 118.449 706.452 122.506C706.452 126.537 708.923 129.256 712.895 129.256ZM712.912 126.443C711.08 126.443 710.142 124.764 710.142 122.48C710.142 120.196 711.08 118.509 712.912 118.509C714.71 118.509 715.648 120.196 715.648 122.48C715.648 124.764 714.71 126.443 712.912 126.443ZM721.699 129H725.33V121.142C725.33 119.693 726.25 118.73 727.46 118.73C728.653 118.73 729.455 119.548 729.455 120.835V129H732.974V121.006C732.974 119.651 733.75 118.73 735.071 118.73C736.23 118.73 737.099 119.455 737.099 120.912V129H740.722V120.196C740.722 117.358 739.034 115.739 736.597 115.739C734.679 115.739 733.188 116.719 732.651 118.219H732.514C732.097 116.702 730.759 115.739 728.96 115.739C727.196 115.739 725.858 116.676 725.312 118.219H725.159V115.909H721.699V129ZM747.22 111.545H743.589V129H747.22V111.545Z" fill="#8E8647"/>
<path d="M964.578 133.909H968.208V126.903H968.319C968.822 127.994 969.922 129.213 972.035 129.213C975.018 129.213 977.345 126.852 977.345 122.472C977.345 117.972 974.916 115.739 972.044 115.739C969.853 115.739 968.805 117.043 968.319 118.108H968.157V115.909H964.578V133.909ZM968.132 122.455C968.132 120.119 969.12 118.628 970.885 118.628C972.683 118.628 973.637 120.188 973.637 122.455C973.637 124.739 972.666 126.324 970.885 126.324C969.137 126.324 968.132 124.79 968.132 122.455ZM979.765 129H983.396V115.909H979.765V129ZM981.589 114.222C982.672 114.222 983.558 113.395 983.558 112.381C983.558 111.375 982.672 110.548 981.589 110.548C980.515 110.548 979.629 111.375 979.629 112.381C979.629 113.395 980.515 114.222 981.589 114.222ZM986.236 129H997.239V126.102H991V126.009L997.017 118.27V115.909H986.458V118.807H992.645V118.901L986.236 126.835V129ZM999.947 129H1010.95V126.102H1004.71V126.009L1010.73 118.27V115.909H1000.17V118.807H1006.36V118.901L999.947 126.835V129ZM1017.46 129.247C1019.39 129.247 1020.65 128.403 1021.29 127.185H1021.39V129H1024.83V120.17C1024.83 117.051 1022.19 115.739 1019.27 115.739C1016.14 115.739 1014.08 117.239 1013.57 119.625L1016.93 119.898C1017.18 119.028 1017.95 118.389 1019.26 118.389C1020.49 118.389 1021.2 119.011 1021.2 120.085V120.136C1021.2 120.98 1020.31 121.091 1018.03 121.312C1015.44 121.551 1013.11 122.42 1013.11 125.344C1013.11 127.935 1014.96 129.247 1017.46 129.247ZM1018.5 126.741C1017.38 126.741 1016.58 126.222 1016.58 125.224C1016.58 124.202 1017.43 123.699 1018.7 123.52C1019.5 123.409 1020.79 123.222 1021.23 122.932V124.321C1021.23 125.693 1020.09 126.741 1018.5 126.741ZM1038.54 119.642C1038.22 117.23 1036.27 115.739 1032.97 115.739C1029.62 115.739 1027.41 117.29 1027.42 119.812C1027.41 121.773 1028.65 123.043 1031.2 123.554L1033.47 124.006C1034.61 124.236 1035.13 124.653 1035.15 125.31C1035.13 126.085 1034.29 126.639 1033.02 126.639C1031.72 126.639 1030.86 126.085 1030.64 125.02L1027.07 125.207C1027.41 127.713 1029.54 129.256 1033.01 129.256C1036.4 129.256 1038.83 127.526 1038.84 124.943C1038.83 123.051 1037.59 121.918 1035.05 121.398L1032.69 120.92C1031.47 120.656 1031.01 120.239 1031.02 119.608C1031.01 118.824 1031.9 118.312 1033.03 118.312C1034.29 118.312 1035.04 119.003 1035.22 119.847L1038.54 119.642ZM1043.25 129.222C1044.34 129.222 1045.28 128.31 1045.29 127.176C1045.28 126.06 1044.34 125.148 1043.25 125.148C1042.12 125.148 1041.19 126.06 1041.2 127.176C1041.19 128.31 1042.12 129.222 1043.25 129.222ZM1059.17 119.642C1058.84 117.23 1056.9 115.739 1053.59 115.739C1050.24 115.739 1048.03 117.29 1048.04 119.812C1048.03 121.773 1049.27 123.043 1051.83 123.554L1054.09 124.006C1055.24 124.236 1055.76 124.653 1055.77 125.31C1055.76 126.085 1054.91 126.639 1053.64 126.639C1052.35 126.639 1051.49 126.085 1051.26 125.02L1047.69 125.207C1048.03 127.713 1050.17 129.256 1053.63 129.256C1057.03 129.256 1059.45 127.526 1059.46 124.943C1059.45 123.051 1058.22 121.918 1055.68 121.398L1053.31 120.92C1052.09 120.656 1051.64 120.239 1051.65 119.608C1051.64 118.824 1052.53 118.312 1053.65 118.312C1054.91 118.312 1055.66 119.003 1055.84 119.847L1059.17 119.642ZM1068.71 115.909H1066.25V112.773H1062.62V115.909H1060.83V118.636H1062.62V125.455C1062.6 128.02 1064.35 129.29 1066.98 129.179C1067.92 129.145 1068.58 128.957 1068.95 128.838L1068.38 126.136C1068.2 126.17 1067.82 126.256 1067.48 126.256C1066.75 126.256 1066.25 125.983 1066.25 124.977V118.636H1068.71V115.909ZM1076.85 129.256C1080.82 129.256 1083.3 126.537 1083.3 122.506C1083.3 118.449 1080.82 115.739 1076.85 115.739C1072.88 115.739 1070.41 118.449 1070.41 122.506C1070.41 126.537 1072.88 129.256 1076.85 129.256ZM1076.87 126.443C1075.04 126.443 1074.1 124.764 1074.1 122.48C1074.1 120.196 1075.04 118.509 1076.87 118.509C1078.67 118.509 1079.6 120.196 1079.6 122.48C1079.6 124.764 1078.67 126.443 1076.87 126.443ZM1085.66 129H1089.29V121.594C1089.29 119.983 1090.46 118.875 1092.06 118.875C1092.57 118.875 1093.26 118.96 1093.6 119.071V115.849C1093.28 115.773 1092.82 115.722 1092.46 115.722C1090.99 115.722 1089.79 116.574 1089.31 118.193H1089.18V115.909H1085.66V129ZM1095.48 129H1099.11V115.909H1095.48V129ZM1097.3 114.222C1098.38 114.222 1099.27 113.395 1099.27 112.381C1099.27 111.375 1098.38 110.548 1097.3 110.548C1096.23 110.548 1095.34 111.375 1095.34 112.381C1095.34 113.395 1096.23 114.222 1097.3 114.222ZM1107.98 129.256C1111.22 129.256 1113.4 127.679 1113.91 125.25L1110.56 125.028C1110.19 126.026 1109.25 126.545 1108.04 126.545C1106.23 126.545 1105.07 125.344 1105.07 123.392V123.384H1113.99V122.386C1113.99 117.938 1111.3 115.739 1107.84 115.739C1103.98 115.739 1101.49 118.474 1101.49 122.514C1101.49 126.665 1103.95 129.256 1107.98 129.256ZM1105.07 121.134C1105.15 119.642 1106.29 118.449 1107.9 118.449C1109.47 118.449 1110.56 119.574 1110.57 121.134H1105.07ZM1127.25 119.642C1126.93 117.23 1124.98 115.739 1121.68 115.739C1118.33 115.739 1116.12 117.29 1116.13 119.812C1116.12 121.773 1117.36 123.043 1119.91 123.554L1122.18 124.006C1123.32 124.236 1123.84 124.653 1123.86 125.31C1123.84 126.085 1123 126.639 1121.73 126.639C1120.43 126.639 1119.57 126.085 1119.35 125.02L1115.78 125.207C1116.12 127.713 1118.25 129.256 1121.72 129.256C1125.11 129.256 1127.54 127.526 1127.55 124.943C1127.54 123.051 1126.31 121.918 1123.77 121.398L1121.4 120.92C1120.18 120.656 1119.73 120.239 1119.73 119.608C1119.73 118.824 1120.61 118.312 1121.74 118.312C1123 118.312 1123.75 119.003 1123.93 119.847L1127.25 119.642ZM1131.96 129.222C1133.05 129.222 1133.99 128.31 1134 127.176C1133.99 126.06 1133.05 125.148 1131.96 125.148C1130.83 125.148 1129.9 126.06 1129.91 127.176C1129.9 128.31 1130.83 129.222 1131.96 129.222ZM1143.95 115.909H1141.48V112.773H1137.85V115.909H1136.06V118.636H1137.85V125.455C1137.84 128.02 1139.58 129.29 1142.22 129.179C1143.15 129.145 1143.82 128.957 1144.19 128.838L1143.61 126.136C1143.44 126.17 1143.05 126.256 1142.71 126.256C1141.99 126.256 1141.48 125.983 1141.48 124.977V118.636H1143.95V115.909ZM1152.09 129.256C1156.06 129.256 1158.53 126.537 1158.53 122.506C1158.53 118.449 1156.06 115.739 1152.09 115.739C1148.11 115.739 1145.64 118.449 1145.64 122.506C1145.64 126.537 1148.11 129.256 1152.09 129.256ZM1152.1 126.443C1150.27 126.443 1149.33 124.764 1149.33 122.48C1149.33 120.196 1150.27 118.509 1152.1 118.509C1153.9 118.509 1154.84 120.196 1154.84 122.48C1154.84 124.764 1153.9 126.443 1152.1 126.443ZM1160.89 129H1164.52V121.142C1164.52 119.693 1165.44 118.73 1166.65 118.73C1167.84 118.73 1168.65 119.548 1168.65 120.835V129H1172.17V121.006C1172.17 119.651 1172.94 118.73 1174.26 118.73C1175.42 118.73 1176.29 119.455 1176.29 120.912V129H1179.91V120.196C1179.91 117.358 1178.23 115.739 1175.79 115.739C1173.87 115.739 1172.38 116.719 1171.84 118.219H1171.71C1171.29 116.702 1169.95 115.739 1168.15 115.739C1166.39 115.739 1165.05 116.676 1164.5 118.219H1164.35V115.909H1160.89V129ZM1186.41 111.545H1182.78V129H1186.41V111.545Z" fill="#8D3B72"/>
</svg>
