<svg width="875" height="281" viewBox="0 0 875 281" fill="none" xmlns="http://www.w3.org/2000/svg">
<g clip-path="url(#clip0)">
<rect width="875" height="281" fill="white"/>
<rect x="2.5" y="98.5" width="279" height="78" stroke="black" stroke-width="5"/>
<rect x="630.5" y="46.5" width="216" height="78" stroke="black" stroke-width="5"/>
<rect x="630.5" y="156.5" width="235" height="78" stroke="black" stroke-width="5"/>
<path d="M63.8061 133.984C63.0774 127.938 58.5007 124.46 52.4411 124.46C45.5249 124.46 40.245 129.344 40.245 137.909C40.245 146.449 45.4354 151.358 52.4411 151.358C59.1527 151.358 63.2053 146.896 63.8061 142.077L58.2067 142.051C57.6825 144.851 55.4837 146.462 52.5305 146.462C48.5547 146.462 45.8572 143.509 45.8572 137.909C45.8572 132.463 48.5163 129.357 52.5689 129.357C55.5987 129.357 57.7848 131.108 58.2067 133.984H63.8061ZM76.5455 151.384C82.5028 151.384 86.2102 147.305 86.2102 141.259C86.2102 135.173 82.5028 131.108 76.5455 131.108C70.5881 131.108 66.8807 135.173 66.8807 141.259C66.8807 147.305 70.5881 151.384 76.5455 151.384ZM76.571 147.165C73.8224 147.165 72.4162 144.646 72.4162 141.22C72.4162 137.794 73.8224 135.263 76.571 135.263C79.2685 135.263 80.6747 137.794 80.6747 141.22C80.6747 144.646 79.2685 147.165 76.571 147.165ZM89.7514 151H95.1974V139.213C95.1974 137.04 96.5781 135.595 98.3935 135.595C100.183 135.595 101.385 136.822 101.385 138.753V151H106.665V139.009C106.665 136.976 107.828 135.595 109.81 135.595C111.548 135.595 112.852 136.682 112.852 138.868V151H118.286V137.794C118.286 133.537 115.754 131.108 112.098 131.108C109.222 131.108 106.984 132.578 106.179 134.828H105.974C105.348 132.553 103.341 131.108 100.643 131.108C97.9972 131.108 95.9901 132.514 95.1719 134.828H94.9418V131.364H89.7514V151ZM122.587 158.364H128.033V147.855H128.2C128.954 149.491 130.603 151.32 133.773 151.32C138.248 151.32 141.738 147.778 141.738 141.207C141.738 134.457 138.094 131.108 133.786 131.108C130.501 131.108 128.928 133.064 128.2 134.662H127.957V131.364H122.587V158.364ZM127.918 141.182C127.918 137.679 129.401 135.442 132.048 135.442C134.745 135.442 136.177 137.781 136.177 141.182C136.177 144.608 134.719 146.986 132.048 146.986C129.427 146.986 127.918 144.685 127.918 141.182ZM154.241 151.384C160.198 151.384 163.906 147.305 163.906 141.259C163.906 135.173 160.198 131.108 154.241 131.108C148.283 131.108 144.576 135.173 144.576 141.259C144.576 147.305 148.283 151.384 154.241 151.384ZM154.266 147.165C151.518 147.165 150.112 144.646 150.112 141.22C150.112 137.794 151.518 135.263 154.266 135.263C156.964 135.263 158.37 137.794 158.37 141.22C158.37 144.646 156.964 147.165 154.266 147.165ZM172.893 139.648C172.906 137.116 174.414 135.634 176.613 135.634C178.799 135.634 180.116 137.065 180.103 139.469V151H185.549V138.497C185.549 133.92 182.864 131.108 178.773 131.108C175.859 131.108 173.749 132.54 172.867 134.828H172.637V131.364H167.447V151H172.893V139.648ZM198.79 151.384C203.648 151.384 206.921 149.018 207.688 145.375L202.651 145.043C202.101 146.538 200.695 147.318 198.88 147.318C196.157 147.318 194.431 145.516 194.431 142.588V142.575H207.803V141.08C207.803 134.406 203.763 131.108 198.573 131.108C192.794 131.108 189.049 135.212 189.049 141.271C189.049 147.497 192.743 151.384 198.79 151.384ZM194.431 139.2C194.546 136.963 196.246 135.173 198.662 135.173C201.027 135.173 202.664 136.861 202.676 139.2H194.431ZM216.803 139.648C216.816 137.116 218.324 135.634 220.523 135.634C222.709 135.634 224.026 137.065 224.013 139.469V151H229.459V138.497C229.459 133.92 226.775 131.108 222.684 131.108C219.769 131.108 217.659 132.54 216.777 134.828H216.547V131.364H211.357V151H216.803V139.648ZM244.196 131.364H240.501V126.659H235.055V131.364H232.371V135.455H235.055V145.682C235.03 149.53 237.651 151.435 241.601 151.268C243.007 151.217 244.004 150.936 244.554 150.757L243.697 146.705C243.429 146.756 242.854 146.884 242.342 146.884C241.256 146.884 240.501 146.474 240.501 144.966V135.455H244.196V131.364Z" fill="black"/>
<path d="M672.212 99H677.607L682.58 81.8821H682.784L687.77 99H693.165L700.657 72.8182H694.61L690.276 91.0483H690.046L685.277 72.8182H680.1L675.319 91.0099H675.101L670.767 72.8182H664.721L672.212 99ZM710.357 99.3835C715.214 99.3835 718.487 97.0185 719.254 93.375L714.217 93.0426C713.668 94.5384 712.261 95.3182 710.446 95.3182C707.723 95.3182 705.997 93.5156 705.997 90.5881V90.5753H719.369V89.0795C719.369 82.4062 715.33 79.108 710.139 79.108C704.361 79.108 700.615 83.2116 700.615 89.2713C700.615 95.4972 704.31 99.3835 710.357 99.3835ZM705.997 87.2003C706.112 84.9631 707.812 83.1733 710.229 83.1733C712.594 83.1733 714.23 84.8608 714.243 87.2003H705.997ZM723.026 99H728.395V95.8551H728.638C729.392 97.4915 731.041 99.3196 734.212 99.3196C738.686 99.3196 742.176 95.7784 742.176 89.2074C742.176 82.4574 738.533 79.108 734.224 79.108C730.939 79.108 729.366 81.0639 728.638 82.6619H728.472V72.8182H723.026V99ZM728.357 89.1818C728.357 85.679 729.839 83.4418 732.486 83.4418C735.183 83.4418 736.615 85.7812 736.615 89.1818C736.615 92.608 735.158 94.9858 732.486 94.9858C729.865 94.9858 728.357 92.6847 728.357 89.1818ZM762.148 84.9631C761.662 81.3452 758.748 79.108 753.787 79.108C748.763 79.108 745.452 81.4347 745.465 85.2188C745.452 88.1591 747.306 90.0639 751.141 90.831L754.542 91.5085C756.255 91.8537 757.034 92.4801 757.06 93.4645C757.034 94.6278 755.769 95.4588 753.864 95.4588C751.921 95.4588 750.63 94.6278 750.297 93.0298L744.941 93.3111C745.452 97.0696 748.648 99.3835 753.851 99.3835C758.939 99.3835 762.583 96.7884 762.596 92.9148C762.583 90.0767 760.729 88.3764 756.919 87.5966L753.365 86.8807C751.537 86.4844 750.86 85.858 750.873 84.9119C750.86 83.7358 752.189 82.9688 753.877 82.9688C755.769 82.9688 756.894 84.0043 757.162 85.2699L762.148 84.9631ZM766.025 99H771.471V79.3636H766.025V99ZM768.761 76.8324C770.384 76.8324 771.714 75.5923 771.714 74.071C771.714 72.5625 770.384 71.3224 768.761 71.3224C767.15 71.3224 765.82 72.5625 765.82 74.071C765.82 75.5923 767.15 76.8324 768.761 76.8324ZM786.278 79.3636H782.583V74.6591H777.137V79.3636H774.453V83.4545H777.137V93.6818C777.112 97.5298 779.733 99.4347 783.683 99.2685C785.089 99.2173 786.086 98.9361 786.636 98.7571L785.779 94.7045C785.511 94.7557 784.936 94.8835 784.424 94.8835C783.338 94.8835 782.583 94.4744 782.583 92.9659V83.4545H786.278V79.3636ZM798.564 99.3835C803.422 99.3835 806.694 97.0185 807.461 93.375L802.424 93.0426C801.875 94.5384 800.468 95.3182 798.653 95.3182C795.93 95.3182 794.204 93.5156 794.204 90.5881V90.5753H807.576V89.0795C807.576 82.4062 803.537 79.108 798.346 79.108C792.568 79.108 788.822 83.2116 788.822 89.2713C788.822 95.4972 792.517 99.3835 798.564 99.3835ZM794.204 87.2003C794.319 84.9631 796.02 83.1733 798.436 83.1733C800.801 83.1733 802.437 84.8608 802.45 87.2003H794.204Z" fill="black"/>
<path d="M673.545 190.348H678.85C678.774 185.682 674.939 182.46 669.109 182.46C663.369 182.46 659.163 185.631 659.189 190.386C659.176 194.247 661.899 196.459 666.322 197.52L669.173 198.236C672.024 198.926 673.609 199.744 673.622 201.509C673.609 203.426 671.794 204.73 668.981 204.73C666.105 204.73 664.034 203.401 663.855 200.78H658.498C658.639 206.443 662.691 209.371 669.045 209.371C675.437 209.371 679.196 206.315 679.208 201.521C679.196 197.162 675.91 194.848 671.359 193.825L669.007 193.263C666.731 192.739 664.826 191.895 664.865 190.016C664.865 188.328 666.36 187.088 669.071 187.088C671.717 187.088 673.341 188.29 673.545 190.348ZM693.274 189.364H689.58V184.659H684.134V189.364H681.449V193.455H684.134V203.682C684.108 207.53 686.729 209.435 690.679 209.268C692.085 209.217 693.082 208.936 693.632 208.757L692.776 204.705C692.507 204.756 691.932 204.884 691.42 204.884C690.334 204.884 689.58 204.474 689.58 202.966V193.455H693.274V189.364ZM705.483 209.384C711.44 209.384 715.148 205.305 715.148 199.259C715.148 193.173 711.44 189.108 705.483 189.108C699.526 189.108 695.818 193.173 695.818 199.259C695.818 205.305 699.526 209.384 705.483 209.384ZM705.509 205.165C702.76 205.165 701.354 202.646 701.354 199.22C701.354 195.794 702.76 193.263 705.509 193.263C708.206 193.263 709.612 195.794 709.612 199.22C709.612 202.646 708.206 205.165 705.509 205.165ZM718.689 209H724.135V197.891C724.135 195.474 725.899 193.812 728.303 193.812C729.057 193.812 730.092 193.94 730.604 194.107V189.274C730.118 189.159 729.44 189.082 728.891 189.082C726.692 189.082 724.889 190.361 724.173 192.79H723.969V189.364H718.689V209ZM737.379 216.364C741.432 216.364 743.58 214.293 744.692 211.122L752.324 189.389L746.558 189.364L742.455 203.784H742.25L738.185 189.364H732.457L739.501 209.562L739.182 210.393C738.466 212.234 737.098 212.324 735.18 211.736L733.953 215.801C734.733 216.134 735.999 216.364 737.379 216.364ZM755.213 209H760.582V205.855H760.825C761.58 207.491 763.229 209.32 766.399 209.32C770.874 209.32 774.364 205.778 774.364 199.207C774.364 192.457 770.72 189.108 766.412 189.108C763.126 189.108 761.554 191.064 760.825 192.662H760.659V182.818H755.213V209ZM760.544 199.182C760.544 195.679 762.027 193.442 764.673 193.442C767.371 193.442 768.803 195.781 768.803 199.182C768.803 202.608 767.345 204.986 764.673 204.986C762.053 204.986 760.544 202.685 760.544 199.182ZM786.87 209.384C792.827 209.384 796.534 205.305 796.534 199.259C796.534 193.173 792.827 189.108 786.87 189.108C780.912 189.108 777.205 193.173 777.205 199.259C777.205 205.305 780.912 209.384 786.87 209.384ZM786.895 205.165C784.147 205.165 782.74 202.646 782.74 199.22C782.74 195.794 784.147 193.263 786.895 193.263C789.593 193.263 790.999 195.794 790.999 199.22C790.999 202.646 789.593 205.165 786.895 205.165ZM808.948 209.384C814.905 209.384 818.613 205.305 818.613 199.259C818.613 193.173 814.905 189.108 808.948 189.108C802.99 189.108 799.283 193.173 799.283 199.259C799.283 205.305 802.99 209.384 808.948 209.384ZM808.973 205.165C806.225 205.165 804.819 202.646 804.819 199.22C804.819 195.794 806.225 193.263 808.973 193.263C811.671 193.263 813.077 195.794 813.077 199.22C813.077 202.646 811.671 205.165 808.973 205.165ZM822.154 209H827.6V202.761L829.07 201.087L834.426 209H840.806L833.148 197.865L840.435 189.364H834.184L827.894 196.817H827.6V182.818H822.154V209Z" fill="black"/>
<path d="M298.5 115.5C355 127.5 374.084 100.513 422 106C487.5 113.5 532.145 118.575 595.807 94.4067" stroke="#FE7F2D" stroke-width="5" stroke-miterlimit="10" stroke-linecap="round" stroke-linejoin="round"/>
<path d="M590.279 116.865C593.124 104.325 604.351 98.4615 609.37 87.2341C599.982 87.2598 580.952 86.458 572.714 81.0097" stroke="#FE7F2D" stroke-width="5" stroke-miterlimit="10" stroke-linecap="round" stroke-linejoin="round"/>
<path d="M595.542 179.85C576.804 182.25 561.223 142.691 550.307 131.577C536.728 117.756 522.736 112.189 508.726 111.984" stroke="#FE7F2D" stroke-width="5" stroke-miterlimit="10" stroke-linecap="round"/>
<path d="M585.653 157.132C591.386 170.024 604.724 173.943 612.519 184.959C602.412 186.929 582.096 191.849 574.385 199.476" stroke="#FE7F2D" stroke-width="5" stroke-miterlimit="10" stroke-linecap="round" stroke-linejoin="round"/>
<path d="M313.753 146.792C313.753 146.552 313.657 146.312 313.465 146.072C313.273 145.88 313.057 145.76 312.817 145.76C312.625 145.76 312.337 145.928 312.001 146.24C311.713 146.48 311.425 146.72 311.185 146.96C310.777 147.272 310.273 147.416 309.673 147.416C308.713 147.416 308.257 146.84 308.257 145.64C308.257 144.896 308.473 144.152 308.905 143.432C309.337 142.712 309.865 142.112 310.513 141.68C310.801 141.848 311.233 141.92 311.833 141.92C312.145 141.92 312.457 141.8 312.769 141.512C313.033 141.224 313.177 140.96 313.177 140.672C313.177 140.288 313.033 140 312.745 139.76C312.433 139.544 312.097 139.424 311.737 139.424C310.225 139.424 308.881 140.216 307.729 141.776C306.793 143.024 306.337 144.392 306.337 145.88C306.337 146.936 306.673 147.776 307.345 148.448C308.017 149.096 308.857 149.432 309.865 149.432C310.777 149.432 311.713 149.072 312.625 148.352C313.369 147.776 313.753 147.272 313.753 146.792ZM323.578 143.72C323.578 142.784 323.314 141.92 322.786 141.152C322.234 140.408 321.538 139.88 320.698 139.592C320.362 139.496 320.17 139.448 320.122 139.448C319.93 139.448 319.714 139.568 319.426 139.76C319.09 139.952 318.826 140.096 318.634 140.168C317.818 140.576 317.146 141.296 316.666 142.304C316.186 143.216 315.97 144.2 315.97 145.232C315.97 146.456 316.282 147.464 316.954 148.256C317.626 149.024 318.466 149.432 319.474 149.432C320.626 149.432 321.61 148.904 322.402 147.8C323.17 146.696 323.578 145.352 323.578 143.72ZM321.682 144.08C321.682 144.896 321.442 145.64 321.01 146.336C320.53 147.056 320.026 147.416 319.45 147.416C318.97 147.416 318.586 147.2 318.298 146.744C317.986 146.312 317.842 145.808 317.842 145.232C317.842 144.464 318.01 143.744 318.394 143.072C318.826 142.304 319.378 141.896 320.05 141.896C320.29 142.04 320.602 142.112 320.986 142.112C321.442 142.4 321.682 143.072 321.682 144.08ZM342.56 147.992C342.56 147.92 342.44 147.68 342.2 147.296C341.624 146.432 341.288 144.752 341.192 142.304C341.168 141.728 340.904 141.44 340.376 141.44C339.152 141.44 337.424 142.976 335.168 146C334.904 145.28 334.784 143.984 334.784 142.16C334.784 141.536 334.736 141.104 334.664 140.912C334.544 140.624 334.28 140.456 333.896 140.456C333.272 140.456 331.568 141.8 328.736 144.464C329.192 142.4 329.432 141.08 329.432 140.456C329.432 138.968 329.072 138.2 328.376 138.2C328.064 138.2 327.776 138.32 327.512 138.56C327.224 138.8 327.056 139.112 327.032 139.496C327.272 139.976 327.392 140.456 327.392 140.912C327.392 141.44 327.2 142.52 326.84 144.2C326.456 145.928 326.288 147.128 326.288 147.848C326.288 149.192 326.648 149.864 327.392 149.864C327.896 149.864 328.256 149.528 328.448 148.856C329.072 146.696 330.488 144.872 332.672 143.384C332.816 145.376 333.152 146.912 333.728 147.968C334.016 148.544 334.4 148.832 334.832 148.832C335.264 148.832 335.72 148.472 336.2 147.728C337.208 146.24 338.192 145.04 339.176 144.152C339.56 147.464 340.256 149.12 341.264 149.12C342.128 149.12 342.56 148.76 342.56 147.992ZM353.205 140.696C353.205 139.544 352.941 138.584 352.413 137.816C351.837 136.976 350.997 136.544 349.941 136.544C348.429 136.544 347.253 137.6 346.413 139.712C345.837 141.176 345.549 142.856 345.549 144.728C345.549 144.968 345.549 145.16 345.573 145.28C344.901 145.52 344.589 145.88 344.589 146.384C344.589 147.008 344.901 147.344 345.573 147.392C345.621 147.776 345.645 148.352 345.645 149.12C345.645 150.656 345.549 151.736 345.405 152.408C345.237 153.056 345.165 153.416 345.165 153.488C345.165 153.752 345.261 153.992 345.453 154.208C345.645 154.4 345.885 154.52 346.149 154.52C346.653 154.52 347.013 154.016 347.229 153.032C347.469 151.928 347.589 150.8 347.589 149.696C347.589 148.688 347.541 147.704 347.469 146.744C351.285 145.352 353.205 143.336 353.205 140.696ZM351.285 140.288C351.285 142.256 350.013 143.696 347.493 144.608C347.493 143.312 347.709 141.992 348.165 140.696C348.669 139.28 349.269 138.56 349.941 138.56C350.349 138.56 350.685 138.752 350.949 139.088C351.165 139.424 351.285 139.832 351.285 140.288ZM363.187 143.72C363.187 142.784 362.923 141.92 362.395 141.152C361.843 140.408 361.147 139.88 360.307 139.592C359.971 139.496 359.779 139.448 359.731 139.448C359.539 139.448 359.323 139.568 359.035 139.76C358.699 139.952 358.435 140.096 358.243 140.168C357.427 140.576 356.755 141.296 356.275 142.304C355.795 143.216 355.579 144.2 355.579 145.232C355.579 146.456 355.891 147.464 356.563 148.256C357.235 149.024 358.075 149.432 359.083 149.432C360.235 149.432 361.219 148.904 362.011 147.8C362.779 146.696 363.187 145.352 363.187 143.72ZM361.291 144.08C361.291 144.896 361.051 145.64 360.619 146.336C360.139 147.056 359.635 147.416 359.059 147.416C358.579 147.416 358.195 147.2 357.907 146.744C357.595 146.312 357.451 145.808 357.451 145.232C357.451 144.464 357.619 143.744 358.003 143.072C358.435 142.304 358.987 141.896 359.659 141.896C359.899 142.04 360.211 142.112 360.595 142.112C361.051 142.4 361.291 143.072 361.291 144.08ZM374.658 142.112C374.658 141.752 374.49 141.464 374.202 141.224C373.914 141.008 373.602 140.888 373.266 140.864C371.322 141.944 369.498 143.528 367.794 145.592C367.794 144.392 367.914 143.168 368.154 141.896C368.274 141.32 368.394 140.792 368.514 140.312C368.514 139.928 368.394 139.592 368.154 139.28C367.914 139.016 367.602 138.872 367.242 138.872C366.954 138.872 366.786 139.064 366.69 139.4C366.162 141.344 365.898 143.24 365.898 145.112C365.898 147.968 366.378 149.384 367.386 149.384C367.626 149.384 367.866 149.168 368.106 148.784C368.25 148.496 368.394 148.184 368.562 147.896C369.378 146.552 370.77 145.136 372.762 143.624L372.402 146.696C372.306 147.584 372.258 148.04 372.258 148.064C372.258 148.448 372.378 148.784 372.618 149.096C372.858 149.384 373.146 149.528 373.506 149.528C373.842 149.528 374.034 149.288 374.082 148.856C374.466 145.472 374.658 143.216 374.658 142.112ZM386.623 148.568C386.623 148.328 386.527 148.088 386.335 147.848C386.143 147.656 385.903 147.536 385.663 147.536C385.471 147.536 385.159 147.584 384.751 147.632C384.343 147.68 384.031 147.704 383.839 147.704C383.119 147.704 382.495 147.368 381.919 146.672C384.319 145.376 385.519 143.84 385.519 142.064C385.519 141.392 385.231 140.744 384.655 140.168C384.079 139.592 383.503 139.304 382.903 139.304C381.871 139.304 381.031 139.904 380.359 141.08C379.783 142.088 379.495 143.168 379.495 144.32C379.495 144.56 379.519 144.896 379.591 145.304H379.039C378.703 145.304 378.391 145.184 378.055 144.944C377.719 144.704 377.479 144.584 377.335 144.584C376.711 144.584 376.399 144.92 376.399 145.592C376.399 146.12 376.783 146.552 377.599 146.888C378.223 147.152 378.823 147.272 379.447 147.272H380.167C381.031 148.928 382.375 149.744 384.199 149.744C385.807 149.744 386.623 149.336 386.623 148.568ZM383.623 142.16C383.623 142.952 382.903 143.816 381.463 144.752V144.32C381.463 143.672 381.559 143.048 381.799 142.448C382.039 141.728 382.375 141.368 382.807 141.368C382.999 141.368 383.191 141.464 383.383 141.608C383.527 141.8 383.623 141.968 383.623 142.16ZM397.392 142.112C397.392 141.752 397.224 141.464 396.936 141.224C396.648 141.008 396.336 140.888 396 140.864C394.056 141.944 392.232 143.528 390.528 145.592C390.528 144.392 390.648 143.168 390.888 141.896C391.008 141.32 391.128 140.792 391.248 140.312C391.248 139.928 391.128 139.592 390.888 139.28C390.648 139.016 390.336 138.872 389.976 138.872C389.688 138.872 389.52 139.064 389.424 139.4C388.896 141.344 388.632 143.24 388.632 145.112C388.632 147.968 389.112 149.384 390.12 149.384C390.36 149.384 390.6 149.168 390.84 148.784C390.984 148.496 391.128 148.184 391.296 147.896C392.112 146.552 393.504 145.136 395.496 143.624L395.136 146.696C395.04 147.584 394.992 148.04 394.992 148.064C394.992 148.448 395.112 148.784 395.352 149.096C395.592 149.384 395.88 149.528 396.24 149.528C396.576 149.528 396.768 149.288 396.816 148.856C397.2 145.472 397.392 143.216 397.392 142.112ZM408.061 140.576C408.061 139.808 407.365 139.4 405.973 139.328C404.965 139.304 404.365 139.28 404.197 139.28C404.533 137.696 404.845 136.424 405.133 135.44C405.349 134.768 405.541 134.192 405.685 133.688C405.613 132.968 405.277 132.608 404.653 132.608C404.221 132.608 403.933 132.872 403.789 133.376C403.357 134.816 402.829 136.784 402.205 139.328C401.629 139.328 401.269 139.4 401.077 139.496C400.789 139.64 400.645 139.928 400.645 140.36C400.645 141.056 401.005 141.392 401.749 141.392L401.029 144.848C400.717 146.408 400.573 147.56 400.573 148.28C400.573 149.576 400.957 150.248 401.749 150.248C401.989 150.248 402.205 150.152 402.445 149.96C402.661 149.744 402.781 149.528 402.781 149.288C402.781 148.904 402.661 148.64 402.421 148.448C402.469 147.392 402.613 146.168 402.901 144.824C402.997 144.368 403.261 143.216 403.693 141.344C403.933 141.344 404.365 141.368 405.037 141.368C405.709 141.392 406.117 141.392 406.285 141.392C406.525 141.632 406.837 141.728 407.173 141.728C407.389 141.728 407.605 141.608 407.797 141.368C407.965 141.128 408.061 140.864 408.061 140.576ZM412.875 148.448C412.875 147.44 412.467 146.912 411.675 146.912C411.243 146.912 410.883 147.128 410.547 147.56C410.187 147.992 410.019 148.424 410.019 148.808C410.019 149.072 410.163 149.432 410.475 149.864C410.787 150.296 411.123 150.536 411.483 150.536C412.011 150.536 412.371 150.224 412.563 149.648C412.755 148.976 412.875 148.568 412.875 148.448ZM422.935 140.288C422.935 140.12 422.887 139.928 422.791 139.736C422.695 139.016 422.095 138.656 420.991 138.656C420.271 138.656 419.815 138.872 419.575 139.256C418.447 139.664 417.895 140.432 417.895 141.536C417.895 142.208 418.183 143.288 418.759 144.728C419.335 146.168 419.647 147.08 419.647 147.416C419.647 147.992 419.239 148.256 418.447 148.256C418.159 148.256 417.751 148.232 417.271 148.16C416.791 148.112 416.527 148.064 416.479 148.064C416.263 148.064 416.071 148.208 415.927 148.448C415.735 148.688 415.663 148.952 415.663 149.216C415.663 149.888 416.503 150.248 418.231 150.248C419.287 150.248 420.127 150.008 420.751 149.552C421.303 149.096 421.591 148.544 421.591 147.848C421.591 147.128 421.279 146 420.703 144.488C420.103 143 419.815 142.112 419.815 141.824C419.815 141.368 420.127 141.128 420.751 141.128C420.895 141.128 421.111 141.152 421.399 141.152C421.687 141.2 421.903 141.2 422.023 141.2C422.263 141.2 422.479 141.128 422.671 140.936C422.839 140.792 422.935 140.576 422.935 140.288ZM433.093 140.576C433.093 139.808 432.397 139.4 431.005 139.328C429.997 139.304 429.397 139.28 429.229 139.28C429.565 137.696 429.877 136.424 430.165 135.44C430.381 134.768 430.573 134.192 430.717 133.688C430.645 132.968 430.309 132.608 429.685 132.608C429.253 132.608 428.965 132.872 428.821 133.376C428.389 134.816 427.861 136.784 427.237 139.328C426.661 139.328 426.301 139.4 426.109 139.496C425.821 139.64 425.677 139.928 425.677 140.36C425.677 141.056 426.037 141.392 426.781 141.392L426.061 144.848C425.749 146.408 425.605 147.56 425.605 148.28C425.605 149.576 425.989 150.248 426.781 150.248C427.021 150.248 427.237 150.152 427.477 149.96C427.693 149.744 427.813 149.528 427.813 149.288C427.813 148.904 427.693 148.64 427.453 148.448C427.501 147.392 427.645 146.168 427.933 144.824C428.029 144.368 428.293 143.216 428.725 141.344C428.965 141.344 429.397 141.368 430.069 141.368C430.741 141.392 431.149 141.392 431.317 141.392C431.557 141.632 431.869 141.728 432.205 141.728C432.421 141.728 432.637 141.608 432.829 141.368C432.997 141.128 433.093 140.864 433.093 140.576ZM441.914 143.72C441.914 142.784 441.65 141.92 441.122 141.152C440.57 140.408 439.874 139.88 439.034 139.592C438.698 139.496 438.506 139.448 438.458 139.448C438.266 139.448 438.05 139.568 437.762 139.76C437.426 139.952 437.162 140.096 436.97 140.168C436.154 140.576 435.482 141.296 435.002 142.304C434.522 143.216 434.306 144.2 434.306 145.232C434.306 146.456 434.618 147.464 435.29 148.256C435.962 149.024 436.802 149.432 437.81 149.432C438.962 149.432 439.946 148.904 440.738 147.8C441.506 146.696 441.914 145.352 441.914 143.72ZM440.018 144.08C440.018 144.896 439.778 145.64 439.346 146.336C438.866 147.056 438.362 147.416 437.786 147.416C437.306 147.416 436.922 147.2 436.634 146.744C436.322 146.312 436.178 145.808 436.178 145.232C436.178 144.464 436.346 143.744 436.73 143.072C437.162 142.304 437.714 141.896 438.386 141.896C438.626 142.04 438.938 142.112 439.322 142.112C439.778 142.4 440.018 143.072 440.018 144.08ZM453.288 140.768C453.288 140.432 453.144 140.12 452.88 139.832C452.592 139.544 452.304 139.4 451.992 139.4C450.12 139.4 448.44 140.504 446.976 142.712C446.832 141.704 446.664 140.984 446.472 140.552C446.208 140.072 445.848 139.808 445.392 139.808C445.2 139.808 445.032 139.928 444.912 140.12C444.768 140.36 444.696 140.6 444.696 140.84C444.696 141.896 444.912 142.736 445.344 143.336C445.44 144.272 445.512 145.04 445.512 145.616C445.512 146.264 445.44 146.84 445.32 147.368C445.176 147.944 445.128 148.256 445.128 148.328C445.128 148.736 445.224 149.072 445.464 149.384C445.704 149.672 445.992 149.84 446.28 149.84C446.568 149.84 446.808 149.624 446.952 149.192C447.024 148.952 447.12 148.448 447.24 147.68C447.672 144.752 448.872 142.808 450.816 141.848C451.104 141.944 451.248 141.992 451.272 141.992C451.656 141.992 452.088 141.872 452.568 141.584C453.048 141.344 453.288 141.056 453.288 140.768ZM458.86 132.056C458.86 131.048 458.452 130.52 457.636 130.424C456.964 130.664 456.628 131.024 456.628 131.528C456.628 132.536 456.964 133.16 457.66 133.4C457.852 133.472 457.996 133.496 458.068 133.496C458.596 133.496 458.86 133.016 458.86 132.056ZM457.756 141.344C457.756 140.336 457.228 139.832 456.172 139.832C455.788 140.024 455.62 140.288 455.62 140.6C455.62 140.696 455.644 140.888 455.692 141.176C455.044 143.888 454.732 145.712 454.732 146.648C454.732 148.616 455.26 149.6 456.364 149.6C456.508 149.6 456.652 149.528 456.796 149.384C456.94 149.24 457.036 149.12 457.036 148.976C457.036 148.544 456.868 148.184 456.556 147.896C456.604 146.456 456.868 144.824 457.348 142.952L457.756 141.344ZM470.365 148.568C470.365 148.328 470.269 148.088 470.077 147.848C469.885 147.656 469.645 147.536 469.405 147.536C469.213 147.536 468.901 147.584 468.493 147.632C468.085 147.68 467.773 147.704 467.581 147.704C466.861 147.704 466.237 147.368 465.661 146.672C468.061 145.376 469.261 143.84 469.261 142.064C469.261 141.392 468.973 140.744 468.397 140.168C467.821 139.592 467.245 139.304 466.645 139.304C465.613 139.304 464.773 139.904 464.101 141.08C463.525 142.088 463.237 143.168 463.237 144.32C463.237 144.56 463.261 144.896 463.333 145.304H462.781C462.445 145.304 462.133 145.184 461.797 144.944C461.461 144.704 461.221 144.584 461.077 144.584C460.453 144.584 460.141 144.92 460.141 145.592C460.141 146.12 460.525 146.552 461.341 146.888C461.965 147.152 462.565 147.272 463.189 147.272H463.909C464.773 148.928 466.117 149.744 467.941 149.744C469.549 149.744 470.365 149.336 470.365 148.568ZM467.365 142.16C467.365 142.952 466.645 143.816 465.205 144.752V144.32C465.205 143.672 465.301 143.048 465.541 142.448C465.781 141.728 466.117 141.368 466.549 141.368C466.741 141.368 466.933 141.464 467.125 141.608C467.269 141.8 467.365 141.968 467.365 142.16ZM478.974 140.288C478.974 140.12 478.926 139.928 478.83 139.736C478.734 139.016 478.134 138.656 477.03 138.656C476.31 138.656 475.854 138.872 475.614 139.256C474.486 139.664 473.934 140.432 473.934 141.536C473.934 142.208 474.222 143.288 474.798 144.728C475.374 146.168 475.686 147.08 475.686 147.416C475.686 147.992 475.278 148.256 474.486 148.256C474.198 148.256 473.79 148.232 473.31 148.16C472.83 148.112 472.566 148.064 472.518 148.064C472.302 148.064 472.11 148.208 471.966 148.448C471.774 148.688 471.702 148.952 471.702 149.216C471.702 149.888 472.542 150.248 474.27 150.248C475.326 150.248 476.166 150.008 476.79 149.552C477.342 149.096 477.63 148.544 477.63 147.848C477.63 147.128 477.318 146 476.742 144.488C476.142 143 475.854 142.112 475.854 141.824C475.854 141.368 476.166 141.128 476.79 141.128C476.934 141.128 477.15 141.152 477.438 141.152C477.726 141.2 477.942 141.2 478.062 141.2C478.302 141.2 478.518 141.128 478.71 140.936C478.878 140.792 478.974 140.576 478.974 140.288ZM484.5 148.448C484.5 147.44 484.092 146.912 483.3 146.912C482.868 146.912 482.508 147.128 482.172 147.56C481.812 147.992 481.644 148.424 481.644 148.808C481.644 149.072 481.788 149.432 482.1 149.864C482.412 150.296 482.748 150.536 483.108 150.536C483.636 150.536 483.996 150.224 484.188 149.648C484.38 148.976 484.5 148.568 484.5 148.448ZM495.952 140.576C495.952 139.808 495.256 139.4 493.864 139.328C492.856 139.304 492.256 139.28 492.088 139.28C492.424 137.696 492.736 136.424 493.024 135.44C493.24 134.768 493.432 134.192 493.576 133.688C493.504 132.968 493.168 132.608 492.544 132.608C492.112 132.608 491.824 132.872 491.68 133.376C491.248 134.816 490.72 136.784 490.096 139.328C489.52 139.328 489.16 139.4 488.968 139.496C488.68 139.64 488.536 139.928 488.536 140.36C488.536 141.056 488.896 141.392 489.64 141.392L488.92 144.848C488.608 146.408 488.464 147.56 488.464 148.28C488.464 149.576 488.848 150.248 489.64 150.248C489.88 150.248 490.096 150.152 490.336 149.96C490.552 149.744 490.672 149.528 490.672 149.288C490.672 148.904 490.552 148.64 490.312 148.448C490.36 147.392 490.504 146.168 490.792 144.824C490.888 144.368 491.152 143.216 491.584 141.344C491.824 141.344 492.256 141.368 492.928 141.368C493.6 141.392 494.008 141.392 494.176 141.392C494.416 141.632 494.728 141.728 495.064 141.728C495.28 141.728 495.496 141.608 495.688 141.368C495.856 141.128 495.952 140.864 495.952 140.576ZM504.773 143.72C504.773 142.784 504.509 141.92 503.981 141.152C503.429 140.408 502.733 139.88 501.893 139.592C501.557 139.496 501.365 139.448 501.317 139.448C501.125 139.448 500.909 139.568 500.621 139.76C500.285 139.952 500.021 140.096 499.829 140.168C499.013 140.576 498.341 141.296 497.861 142.304C497.381 143.216 497.165 144.2 497.165 145.232C497.165 146.456 497.477 147.464 498.149 148.256C498.821 149.024 499.661 149.432 500.669 149.432C501.821 149.432 502.805 148.904 503.597 147.8C504.365 146.696 504.773 145.352 504.773 143.72ZM502.877 144.08C502.877 144.896 502.637 145.64 502.205 146.336C501.725 147.056 501.221 147.416 500.645 147.416C500.165 147.416 499.781 147.2 499.493 146.744C499.181 146.312 499.037 145.808 499.037 145.232C499.037 144.464 499.205 143.744 499.589 143.072C500.021 142.304 500.573 141.896 501.245 141.896C501.485 142.04 501.797 142.112 502.181 142.112C502.637 142.4 502.877 143.072 502.877 144.08ZM523.756 147.992C523.756 147.92 523.636 147.68 523.396 147.296C522.82 146.432 522.484 144.752 522.388 142.304C522.364 141.728 522.1 141.44 521.572 141.44C520.348 141.44 518.62 142.976 516.364 146C516.1 145.28 515.98 143.984 515.98 142.16C515.98 141.536 515.932 141.104 515.86 140.912C515.74 140.624 515.476 140.456 515.092 140.456C514.468 140.456 512.764 141.8 509.932 144.464C510.388 142.4 510.628 141.08 510.628 140.456C510.628 138.968 510.268 138.2 509.572 138.2C509.26 138.2 508.972 138.32 508.708 138.56C508.42 138.8 508.252 139.112 508.228 139.496C508.468 139.976 508.588 140.456 508.588 140.912C508.588 141.44 508.396 142.52 508.036 144.2C507.652 145.928 507.484 147.128 507.484 147.848C507.484 149.192 507.844 149.864 508.588 149.864C509.092 149.864 509.452 149.528 509.644 148.856C510.268 146.696 511.684 144.872 513.868 143.384C514.012 145.376 514.348 146.912 514.924 147.968C515.212 148.544 515.596 148.832 516.028 148.832C516.46 148.832 516.916 148.472 517.396 147.728C518.404 146.24 519.388 145.04 520.372 144.152C520.756 147.464 521.452 149.12 522.46 149.12C523.324 149.12 523.756 148.76 523.756 147.992ZM530.416 132.776C530.416 132.488 530.2 132.152 529.816 131.72C529.432 131.336 529.096 131.12 528.808 131.12C528.496 131.12 528.208 131.576 527.944 132.44C527.008 135.416 526.552 138.488 526.552 141.656C526.552 142.472 526.6 143.6 526.696 145.04C526.528 145.328 526.456 145.856 526.456 146.6C526.456 147.416 526.624 148.16 526.984 148.856C527.32 149.552 527.728 149.912 528.208 149.912C528.328 149.912 528.472 149.84 528.64 149.696C528.784 149.576 528.88 149.456 528.88 149.336C528.88 149.264 528.856 149.12 528.832 148.928C528.784 148.712 528.784 148.568 528.784 148.472C528.544 145.544 528.424 143.48 528.424 142.328C528.424 139.568 528.784 136.808 529.504 134.048L529.672 133.808C530.152 133.568 530.416 133.232 530.416 132.776Z" fill="#FE7F2D"/>
</g>
<defs>
<clipPath id="clip0">
<rect width="875" height="281" fill="white"/>
</clipPath>
</defs>
</svg>
