<svg width="875" height="281" viewBox="0 0 875 281" fill="none" xmlns="http://www.w3.org/2000/svg">
<g clip-path="url(#clip0)">
<rect width="875" height="281" fill="white"/>
<rect x="249.5" y="83.5" width="279" height="78" stroke="black" stroke-width="5"/>
<rect x="2.5" y="200.5" width="216" height="78" stroke="black" stroke-width="5"/>
<rect x="637.5" y="9.50002" width="235" height="78" stroke="black" stroke-width="5"/>
<path d="M310.806 118.984C310.077 112.938 305.501 109.46 299.441 109.46C292.525 109.46 287.245 114.344 287.245 122.909C287.245 131.449 292.435 136.358 299.441 136.358C306.153 136.358 310.205 131.896 310.806 127.077L305.207 127.051C304.683 129.851 302.484 131.462 299.531 131.462C295.555 131.462 292.857 128.509 292.857 122.909C292.857 117.463 295.516 114.357 299.569 114.357C302.599 114.357 304.785 116.108 305.207 118.984H310.806ZM323.545 136.384C329.503 136.384 333.21 132.305 333.21 126.259C333.21 120.173 329.503 116.108 323.545 116.108C317.588 116.108 313.881 120.173 313.881 126.259C313.881 132.305 317.588 136.384 323.545 136.384ZM323.571 132.165C320.822 132.165 319.416 129.646 319.416 126.22C319.416 122.794 320.822 120.263 323.571 120.263C326.268 120.263 327.675 122.794 327.675 126.22C327.675 129.646 326.268 132.165 323.571 132.165ZM336.751 136H342.197V124.213C342.197 122.04 343.578 120.595 345.393 120.595C347.183 120.595 348.385 121.822 348.385 123.753V136H353.665V124.009C353.665 121.976 354.828 120.595 356.81 120.595C358.548 120.595 359.852 121.682 359.852 123.868V136H365.286V122.794C365.286 118.537 362.754 116.108 359.098 116.108C356.222 116.108 353.984 117.578 353.179 119.828H352.974C352.348 117.553 350.341 116.108 347.643 116.108C344.997 116.108 342.99 117.514 342.172 119.828H341.942V116.364H336.751V136ZM369.587 143.364H375.033V132.855H375.2C375.954 134.491 377.603 136.32 380.773 136.32C385.248 136.32 388.738 132.778 388.738 126.207C388.738 119.457 385.094 116.108 380.786 116.108C377.501 116.108 375.928 118.064 375.2 119.662H374.957V116.364H369.587V143.364ZM374.918 126.182C374.918 122.679 376.401 120.442 379.048 120.442C381.745 120.442 383.177 122.781 383.177 126.182C383.177 129.608 381.719 131.986 379.048 131.986C376.427 131.986 374.918 129.685 374.918 126.182ZM401.241 136.384C407.198 136.384 410.906 132.305 410.906 126.259C410.906 120.173 407.198 116.108 401.241 116.108C395.283 116.108 391.576 120.173 391.576 126.259C391.576 132.305 395.283 136.384 401.241 136.384ZM401.266 132.165C398.518 132.165 397.112 129.646 397.112 126.22C397.112 122.794 398.518 120.263 401.266 120.263C403.964 120.263 405.37 122.794 405.37 126.22C405.37 129.646 403.964 132.165 401.266 132.165ZM419.893 124.648C419.906 122.116 421.414 120.634 423.613 120.634C425.799 120.634 427.116 122.065 427.103 124.469V136H432.549V123.497C432.549 118.92 429.864 116.108 425.773 116.108C422.859 116.108 420.749 117.54 419.867 119.828H419.637V116.364H414.447V136H419.893V124.648ZM445.79 136.384C450.648 136.384 453.921 134.018 454.688 130.375L449.651 130.043C449.101 131.538 447.695 132.318 445.88 132.318C443.157 132.318 441.431 130.516 441.431 127.588V127.575H454.803V126.08C454.803 119.406 450.763 116.108 445.573 116.108C439.794 116.108 436.049 120.212 436.049 126.271C436.049 132.497 439.743 136.384 445.79 136.384ZM441.431 124.2C441.546 121.963 443.246 120.173 445.662 120.173C448.027 120.173 449.664 121.861 449.676 124.2H441.431ZM463.803 124.648C463.816 122.116 465.324 120.634 467.523 120.634C469.709 120.634 471.026 122.065 471.013 124.469V136H476.459V123.497C476.459 118.92 473.775 116.108 469.684 116.108C466.769 116.108 464.659 117.54 463.777 119.828H463.547V116.364H458.357V136H463.803V124.648ZM491.196 116.364H487.501V111.659H482.055V116.364H479.371V120.455H482.055V130.682C482.03 134.53 484.651 136.435 488.601 136.268C490.007 136.217 491.004 135.936 491.554 135.757L490.697 131.705C490.429 131.756 489.854 131.884 489.342 131.884C488.256 131.884 487.501 131.474 487.501 129.966V120.455H491.196V116.364Z" fill="black"/>
<path d="M44.212 253H49.6069L54.5799 235.882H54.7844L59.7702 253H65.1651L72.6566 226.818H66.6097L62.2759 245.048H62.0458L57.2773 226.818H52.0998L47.3185 245.01H47.1012L42.7674 226.818H36.7205L44.212 253ZM82.3565 253.384C87.2145 253.384 90.4872 251.018 91.2543 247.375L86.2173 247.043C85.6676 248.538 84.2614 249.318 82.446 249.318C79.723 249.318 77.9972 247.516 77.9972 244.588V244.575H91.3693V243.08C91.3693 236.406 87.3295 233.108 82.1392 233.108C76.3608 233.108 72.6151 237.212 72.6151 243.271C72.6151 249.497 76.3097 253.384 82.3565 253.384ZM77.9972 241.2C78.1122 238.963 79.8125 237.173 82.2287 237.173C84.5938 237.173 86.2301 238.861 86.2429 241.2H77.9972ZM95.0256 253H100.395V249.855H100.638C101.392 251.491 103.041 253.32 106.212 253.32C110.686 253.32 114.176 249.778 114.176 243.207C114.176 236.457 110.533 233.108 106.224 233.108C102.939 233.108 101.366 235.064 100.638 236.662H100.472V226.818H95.0256V253ZM100.357 243.182C100.357 239.679 101.839 237.442 104.486 237.442C107.183 237.442 108.615 239.781 108.615 243.182C108.615 246.608 107.158 248.986 104.486 248.986C101.865 248.986 100.357 246.685 100.357 243.182ZM134.148 238.963C133.662 235.345 130.748 233.108 125.787 233.108C120.763 233.108 117.452 235.435 117.465 239.219C117.452 242.159 119.306 244.064 123.141 244.831L126.542 245.509C128.255 245.854 129.034 246.48 129.06 247.465C129.034 248.628 127.769 249.459 125.864 249.459C123.921 249.459 122.63 248.628 122.297 247.03L116.941 247.311C117.452 251.07 120.648 253.384 125.851 253.384C130.939 253.384 134.583 250.788 134.596 246.915C134.583 244.077 132.729 242.376 128.919 241.597L125.365 240.881C123.537 240.484 122.86 239.858 122.873 238.912C122.86 237.736 124.189 236.969 125.877 236.969C127.769 236.969 128.894 238.004 129.162 239.27L134.148 238.963ZM138.025 253H143.471V233.364H138.025V253ZM140.761 230.832C142.384 230.832 143.714 229.592 143.714 228.071C143.714 226.563 142.384 225.322 140.761 225.322C139.15 225.322 137.82 226.563 137.82 228.071C137.82 229.592 139.15 230.832 140.761 230.832ZM158.278 233.364H154.583V228.659H149.137V233.364H146.453V237.455H149.137V247.682C149.112 251.53 151.733 253.435 155.683 253.268C157.089 253.217 158.086 252.936 158.636 252.757L157.779 248.705C157.511 248.756 156.936 248.884 156.424 248.884C155.338 248.884 154.583 248.474 154.583 246.966V237.455H158.278V233.364ZM170.564 253.384C175.422 253.384 178.694 251.018 179.461 247.375L174.424 247.043C173.875 248.538 172.468 249.318 170.653 249.318C167.93 249.318 166.204 247.516 166.204 244.588V244.575H179.576V243.08C179.576 236.406 175.537 233.108 170.346 233.108C164.568 233.108 160.822 237.212 160.822 243.271C160.822 249.497 164.517 253.384 170.564 253.384ZM166.204 241.2C166.319 238.963 168.02 237.173 170.436 237.173C172.801 237.173 174.437 238.861 174.45 241.2H166.204Z" fill="black"/>
<path d="M680.545 43.348H685.85C685.774 38.6818 681.939 35.4602 676.109 35.4602C670.369 35.4602 666.163 38.6307 666.189 43.3864C666.176 47.2472 668.899 49.4588 673.322 50.5199L676.173 51.2358C679.024 51.9262 680.609 52.7443 680.622 54.5085C680.609 56.4262 678.794 57.7301 675.981 57.7301C673.105 57.7301 671.034 56.4006 670.855 53.7798H665.498C665.639 59.4432 669.691 62.3708 676.045 62.3708C682.437 62.3708 686.196 59.3154 686.208 54.5213C686.196 50.1619 682.91 47.848 678.359 46.8253L676.007 46.2628C673.731 45.7387 671.826 44.8949 671.865 43.0156C671.865 41.3281 673.36 40.0881 676.071 40.0881C678.717 40.0881 680.341 41.2898 680.545 43.348ZM700.274 42.3637H696.58V37.6591H691.134V42.3637H688.449V46.4546H691.134V56.6818C691.108 60.5298 693.729 62.4347 697.679 62.2685C699.085 62.2173 700.082 61.9361 700.632 61.7571L699.776 57.7046C699.507 57.7557 698.932 57.8835 698.42 57.8835C697.334 57.8835 696.58 57.4744 696.58 55.9659V46.4546H700.274V42.3637ZM712.483 62.3835C718.44 62.3835 722.148 58.3054 722.148 52.2585C722.148 46.1733 718.44 42.108 712.483 42.108C706.526 42.108 702.818 46.1733 702.818 52.2585C702.818 58.3054 706.526 62.3835 712.483 62.3835ZM712.509 58.1648C709.76 58.1648 708.354 55.6463 708.354 52.2202C708.354 48.794 709.76 46.2628 712.509 46.2628C715.206 46.2628 716.612 48.794 716.612 52.2202C716.612 55.6463 715.206 58.1648 712.509 58.1648ZM725.689 62H731.135V50.8906C731.135 48.4744 732.899 46.8125 735.303 46.8125C736.057 46.8125 737.092 46.9404 737.604 47.1065V42.2742C737.118 42.1591 736.44 42.0824 735.891 42.0824C733.692 42.0824 731.889 43.3608 731.173 45.7898H730.969V42.3637H725.689V62ZM744.379 69.3637C748.432 69.3637 750.58 67.2926 751.692 64.1222L759.324 42.3892L753.558 42.3637L749.455 56.7841H749.25L745.185 42.3637H739.457L746.501 62.5625L746.182 63.3935C745.466 65.2344 744.098 65.3239 742.18 64.7358L740.953 68.8012C741.733 69.1335 742.999 69.3637 744.379 69.3637ZM762.213 62H767.582V58.8551H767.825C768.58 60.4915 770.229 62.3196 773.399 62.3196C777.874 62.3196 781.364 58.7784 781.364 52.2074C781.364 45.4574 777.72 42.108 773.412 42.108C770.126 42.108 768.554 44.0639 767.825 45.6619H767.659V35.8182H762.213V62ZM767.544 52.1818C767.544 48.679 769.027 46.4418 771.673 46.4418C774.371 46.4418 775.803 48.7813 775.803 52.1818C775.803 55.608 774.345 57.9858 771.673 57.9858C769.053 57.9858 767.544 55.6847 767.544 52.1818ZM793.87 62.3835C799.827 62.3835 803.534 58.3054 803.534 52.2585C803.534 46.1733 799.827 42.108 793.87 42.108C787.912 42.108 784.205 46.1733 784.205 52.2585C784.205 58.3054 787.912 62.3835 793.87 62.3835ZM793.895 58.1648C791.147 58.1648 789.74 55.6463 789.74 52.2202C789.74 48.794 791.147 46.2628 793.895 46.2628C796.593 46.2628 797.999 48.794 797.999 52.2202C797.999 55.6463 796.593 58.1648 793.895 58.1648ZM815.948 62.3835C821.905 62.3835 825.613 58.3054 825.613 52.2585C825.613 46.1733 821.905 42.108 815.948 42.108C809.99 42.108 806.283 46.1733 806.283 52.2585C806.283 58.3054 809.99 62.3835 815.948 62.3835ZM815.973 58.1648C813.225 58.1648 811.819 55.6463 811.819 52.2202C811.819 48.794 813.225 46.2628 815.973 46.2628C818.671 46.2628 820.077 48.794 820.077 52.2202C820.077 55.6463 818.671 58.1648 815.973 58.1648ZM829.154 62H834.6V55.7614L836.07 54.0867L841.426 62H847.806L840.148 50.8651L847.435 42.3637H841.184L834.894 49.8168H834.6V35.8182H829.154V62Z" fill="black"/>
<path d="M552.972 166.556C615.867 173.086 677.399 186.046 739.416 197.145C743.705 170.283 747.919 143.92 754.842 117.561" stroke="#FE7F2D" stroke-width="5" stroke-miterlimit="10" stroke-linecap="round" stroke-linejoin="round"/>
<path d="M736.248 130.986C746.534 125.476 749.603 114.088 758.378 106.956C760.005 115.312 764.04 132.058 770.177 138.095" stroke="#FE7F2D" stroke-width="5" stroke-miterlimit="10" stroke-linecap="round" stroke-linejoin="round"/>
<path d="M251.346 73.6248C249.745 51.4843 227.824 30.9351 207.563 28.541C151.937 21.9647 144.37 123.987 137.149 163.105" stroke="#FE7F2D" stroke-width="5" stroke-miterlimit="10" stroke-linecap="round" stroke-linejoin="round"/>
<path d="M150.747 157.254C140.109 161.764 137.32 173.597 128.341 180.064C126.294 170.85 121.371 152.269 114.656 144.926" stroke="#FE7F2D" stroke-width="5" stroke-miterlimit="10" stroke-linecap="round" stroke-linejoin="round"/>
<path d="M555.322 192.429C555.359 192.192 555.301 191.94 555.148 191.673C554.987 191.454 554.792 191.302 554.555 191.266C554.365 191.236 554.055 191.358 553.675 191.615C553.354 191.808 553.033 192.001 552.759 192.202C552.308 192.448 551.788 192.513 551.195 192.421C550.246 192.274 549.884 191.635 550.067 190.449C550.181 189.714 550.508 189.012 551.045 188.367C551.582 187.721 552.196 187.209 552.902 186.881C553.161 187.091 553.577 187.229 554.17 187.32C554.478 187.368 554.805 187.297 555.158 187.06C555.462 186.816 555.645 186.577 555.689 186.293C555.748 185.913 555.65 185.606 555.402 185.325C555.127 185.064 554.813 184.894 554.457 184.839C552.963 184.608 551.514 185.185 550.136 186.55C549.021 187.64 548.361 188.922 548.133 190.393C547.971 191.437 548.175 192.318 548.736 193.085C549.301 193.828 550.08 194.289 551.076 194.443C551.977 194.582 552.957 194.37 553.969 193.798C554.792 193.342 555.249 192.903 555.322 192.429ZM565.501 190.896C565.645 189.971 565.516 189.077 565.111 188.237C564.68 187.417 564.073 186.789 563.287 186.376C562.969 186.23 562.787 186.153 562.74 186.145C562.55 186.116 562.318 186.202 562.004 186.347C561.643 186.486 561.36 186.588 561.159 186.629C560.29 186.908 559.516 187.516 558.887 188.439C558.273 189.267 557.909 190.206 557.752 191.226C557.564 192.436 557.718 193.48 558.261 194.365C558.808 195.227 559.576 195.759 560.572 195.913C561.71 196.089 562.763 195.718 563.715 194.748C564.643 193.774 565.252 192.509 565.501 190.896ZM563.573 190.962C563.448 191.768 563.097 192.466 562.563 193.088C561.979 193.726 561.426 194.005 560.857 193.917C560.382 193.843 560.036 193.571 559.821 193.076C559.579 192.602 559.513 192.082 559.602 191.513C559.719 190.754 559.995 190.068 560.477 189.462C561.022 188.77 561.63 188.451 562.294 188.554C562.509 188.733 562.806 188.851 563.186 188.91C563.592 189.265 563.727 189.965 563.573 190.962ZM583.607 198.021C583.618 197.95 583.536 197.695 583.357 197.278C582.92 196.337 582.845 194.625 583.125 192.191C583.189 191.618 582.972 191.293 582.451 191.212C581.241 191.025 579.298 192.279 576.606 194.922C576.455 194.17 576.535 192.871 576.814 191.068C576.91 190.452 576.928 190.018 576.887 189.817C576.812 189.514 576.577 189.307 576.197 189.249C575.581 189.153 573.691 190.221 570.485 192.42C571.251 190.45 571.69 189.182 571.786 188.566C572.013 187.095 571.775 186.281 571.087 186.175C570.779 186.127 570.476 186.202 570.178 186.398C569.857 186.591 569.643 186.874 569.561 187.25C569.725 187.761 569.77 188.254 569.7 188.704C569.619 189.226 569.264 190.264 568.652 191.869C568.008 193.518 567.658 194.678 567.548 195.39C567.342 196.718 567.595 197.437 568.331 197.551C568.829 197.628 569.236 197.351 569.528 196.716C570.476 194.677 572.154 193.091 574.54 191.955C574.377 193.946 574.474 195.515 574.882 196.647C575.079 197.26 575.414 197.603 575.841 197.669C576.268 197.735 576.774 197.449 577.362 196.788C578.586 195.471 579.742 194.436 580.85 193.709C580.723 197.041 581.157 198.784 582.153 198.938C583.007 199.07 583.489 198.78 583.607 198.021ZM595.242 192.44C595.418 191.301 595.304 190.312 594.9 189.472C594.459 188.554 593.695 187.999 592.652 187.837C591.157 187.606 589.834 188.47 588.681 190.428C587.887 191.787 587.346 193.403 587.059 195.253C587.023 195.49 586.993 195.68 586.999 195.802C586.298 195.937 585.934 196.245 585.857 196.743C585.762 197.359 586.019 197.739 586.676 197.889C586.664 198.276 586.6 198.849 586.482 199.608C586.247 201.126 585.987 202.178 585.742 202.821C585.477 203.435 585.351 203.78 585.34 203.851C585.299 204.112 585.358 204.364 585.514 204.607C585.675 204.826 585.893 204.981 586.154 205.021C586.652 205.099 587.085 204.656 587.449 203.716C587.855 202.662 588.147 201.566 588.315 200.475C588.47 199.478 588.573 198.499 588.648 197.539C592.632 196.747 594.838 195.049 595.242 192.44ZM593.407 191.743C593.106 193.688 591.629 194.916 588.999 195.432C589.197 194.151 589.613 192.88 590.261 191.669C590.976 190.346 591.679 189.727 592.343 189.829C592.746 189.892 593.049 190.133 593.259 190.505C593.421 190.871 593.477 191.292 593.407 191.743ZM604.644 196.955C604.788 196.03 604.659 195.136 604.255 194.296C603.823 193.476 603.216 192.848 602.43 192.435C602.113 192.289 601.93 192.212 601.883 192.205C601.693 192.175 601.461 192.261 601.147 192.407C600.786 192.545 600.503 192.647 600.302 192.689C599.433 192.967 598.659 193.576 598.03 194.498C597.417 195.326 597.053 196.266 596.895 197.285C596.707 198.495 596.862 199.539 597.405 200.424C597.951 201.286 598.719 201.818 599.715 201.972C600.853 202.148 601.907 201.777 602.858 200.807C603.786 199.834 604.395 198.568 604.644 196.955ZM602.716 197.021C602.591 197.827 602.24 198.526 601.707 199.147C601.122 199.786 600.569 200.064 600 199.976C599.525 199.903 599.179 199.63 598.964 199.136C598.722 198.661 598.657 198.141 598.745 197.572C598.862 196.813 599.138 196.127 599.621 195.522C600.165 194.829 600.773 194.51 601.437 194.613C601.652 194.792 601.949 194.911 602.329 194.97C602.736 195.324 602.87 196.025 602.716 197.021ZM616.226 197.121C616.281 196.765 616.159 196.455 615.911 196.173C615.659 195.916 615.369 195.75 615.041 195.674C612.955 196.444 610.91 197.731 608.91 199.51C609.094 198.324 609.399 197.133 609.831 195.912C610.038 195.361 610.237 194.858 610.429 194.402C610.488 194.023 610.421 193.672 610.231 193.327C610.035 193.029 609.748 192.839 609.393 192.784C609.108 192.74 608.913 192.904 608.766 193.222C607.947 195.062 607.396 196.895 607.11 198.745C606.673 201.568 606.931 203.04 607.927 203.195C608.164 203.231 608.434 203.055 608.73 202.712C608.916 202.449 609.106 202.163 609.317 201.904C610.329 200.701 611.921 199.514 614.121 198.325L613.295 201.306C613.064 202.168 612.947 202.612 612.943 202.635C612.885 203.015 612.952 203.365 613.141 203.71C613.334 204.032 613.597 204.218 613.953 204.273C614.285 204.325 614.511 204.117 614.625 203.697C615.522 200.412 616.057 198.212 616.226 197.121ZM627.063 205.331C627.099 205.094 627.041 204.842 626.888 204.576C626.728 204.356 626.509 204.201 626.272 204.164C626.082 204.135 625.766 204.135 625.356 204.12C624.945 204.105 624.633 204.081 624.444 204.051C623.732 203.941 623.167 203.514 622.704 202.738C625.274 201.824 626.695 200.49 626.967 198.735C627.069 198.071 626.884 197.386 626.403 196.729C625.922 196.072 625.397 195.699 624.804 195.607C623.784 195.449 622.862 195.914 622.018 196.973C621.294 197.881 620.845 198.904 620.668 200.043C620.632 200.28 620.604 200.616 620.613 201.03L620.067 200.945C619.735 200.894 619.445 200.728 619.15 200.439C618.855 200.151 618.636 199.995 618.493 199.973C617.877 199.878 617.517 200.162 617.414 200.826C617.333 201.348 617.647 201.834 618.402 202.29C618.978 202.647 619.553 202.857 620.169 202.953L620.881 203.063C621.481 204.831 622.685 205.843 624.487 206.122C626.076 206.368 626.945 206.09 627.063 205.331ZM625.078 198.54C624.957 199.322 624.113 200.066 622.547 200.771L622.613 200.344C622.712 199.703 622.903 199.101 623.232 198.545C623.579 197.87 623.966 197.566 624.393 197.632C624.583 197.662 624.758 197.786 624.925 197.957C625.038 198.169 625.108 198.35 625.078 198.54ZM638.692 200.599C638.747 200.243 638.625 199.932 638.378 199.651C638.126 199.394 637.836 199.227 637.508 199.152C635.421 199.922 633.376 201.209 631.377 202.988C631.56 201.802 631.866 200.61 632.298 199.39C632.505 198.839 632.704 198.336 632.896 197.88C632.955 197.5 632.888 197.15 632.698 196.805C632.501 196.507 632.215 196.317 631.859 196.262C631.575 196.218 631.379 196.382 631.233 196.7C630.414 198.54 629.863 200.373 629.577 202.223C629.14 205.046 629.397 206.518 630.394 206.672C630.631 206.709 630.901 206.532 631.197 206.19C631.383 205.927 631.573 205.641 631.783 205.382C632.795 204.179 634.388 202.992 636.587 201.803L635.762 204.783C635.531 205.646 635.414 206.09 635.41 206.113C635.351 206.493 635.419 206.843 635.608 207.188C635.801 207.51 636.064 207.696 636.419 207.751C636.752 207.802 636.978 207.595 637.091 207.175C637.989 203.89 638.523 201.69 638.692 200.599ZM649.471 200.713C649.589 199.954 648.963 199.444 647.599 199.16C646.606 198.982 646.017 198.867 645.851 198.841C646.425 197.327 646.928 196.118 647.363 195.189C647.68 194.558 647.958 194.018 648.177 193.542C648.216 192.82 647.939 192.413 647.322 192.317C646.895 192.251 646.57 192.468 646.351 192.944C645.704 194.301 644.881 196.165 643.875 198.584C643.306 198.496 642.939 198.512 642.735 198.577C642.428 198.675 642.242 198.938 642.176 199.365C642.069 200.053 642.373 200.44 643.109 200.554L641.869 203.859C641.322 205.353 641.003 206.469 640.893 207.181C640.695 208.461 640.971 209.184 641.754 209.305C641.991 209.342 642.219 209.28 642.486 209.127C642.732 208.947 642.884 208.752 642.921 208.515C642.979 208.135 642.901 207.856 642.693 207.629C642.902 206.593 643.232 205.406 643.722 204.121C643.887 203.685 644.324 202.587 645.037 200.804C645.274 200.84 645.698 200.93 646.362 201.033C647.022 201.159 647.425 201.222 647.591 201.247C647.792 201.521 648.085 201.664 648.417 201.715C648.631 201.748 648.863 201.663 649.089 201.455C649.292 201.244 649.427 200.997 649.471 200.713ZM653.024 209.228C653.178 208.232 652.855 207.648 652.073 207.527C651.646 207.461 651.257 207.619 650.859 207.995C650.437 208.367 650.205 208.768 650.146 209.147C650.106 209.408 650.193 209.786 650.435 210.261C650.678 210.735 650.973 211.024 651.329 211.079C651.85 211.16 652.254 210.906 652.532 210.367C652.824 209.732 653.005 209.347 653.024 209.228ZM664.214 202.703C664.24 202.537 664.222 202.34 664.156 202.136C664.171 201.41 663.633 200.962 662.542 200.793C661.831 200.683 661.347 200.827 661.051 201.17C659.874 201.4 659.211 202.075 659.042 203.166C658.939 203.83 659.059 204.941 659.408 206.452C659.757 207.964 659.926 208.913 659.874 209.245C659.786 209.814 659.342 210.012 658.56 209.891C658.275 209.847 657.876 209.761 657.412 209.616C656.945 209.496 656.692 209.408 656.644 209.4C656.431 209.367 656.219 209.48 656.04 209.695C655.814 209.903 655.702 210.153 655.662 210.414C655.559 211.078 656.334 211.562 658.042 211.827C659.085 211.988 659.952 211.88 660.638 211.524C661.254 211.158 661.623 210.657 661.729 209.969C661.839 209.257 661.704 208.095 661.366 206.513C661 204.95 660.852 204.029 660.896 203.744C660.965 203.293 661.31 203.104 661.927 203.2C662.069 203.222 662.279 203.278 662.564 203.322C662.841 203.414 663.055 203.447 663.173 203.465C663.41 203.502 663.635 203.464 663.854 203.303C664.042 203.187 664.17 202.988 664.214 202.703ZM674.208 204.542C674.325 203.783 673.7 203.273 672.335 202.989C671.343 202.811 670.754 202.696 670.588 202.67C671.162 201.156 671.665 199.947 672.1 199.019C672.416 198.387 672.694 197.848 672.914 197.372C672.953 196.649 672.676 196.242 672.059 196.146C671.632 196.08 671.307 196.297 671.088 196.773C670.44 198.13 669.618 199.994 668.612 202.413C668.043 202.325 667.676 202.341 667.471 202.406C667.165 202.505 666.978 202.767 666.912 203.194C666.806 203.882 667.11 204.269 667.845 204.383L666.605 207.688C666.058 209.182 665.74 210.298 665.629 211.01C665.431 212.291 665.708 213.013 666.491 213.135C666.728 213.171 666.956 213.109 667.222 212.956C667.469 212.776 667.621 212.581 667.657 212.344C667.716 211.964 667.638 211.685 667.43 211.459C667.639 210.422 667.969 209.235 668.459 207.951C668.623 207.515 669.061 206.417 669.774 204.633C670.011 204.669 670.434 204.759 671.098 204.862C671.759 204.989 672.162 205.051 672.328 205.077C672.528 205.351 672.822 205.493 673.154 205.545C673.368 205.578 673.599 205.492 673.826 205.284C674.029 205.073 674.164 204.827 674.208 204.542ZM682.444 208.998C682.588 208.073 682.459 207.179 682.055 206.34C681.623 205.52 681.016 204.892 680.23 204.478C679.912 204.332 679.73 204.255 679.683 204.248C679.493 204.219 679.261 204.304 678.947 204.45C678.586 204.588 678.303 204.69 678.102 204.732C677.233 205.01 676.459 205.619 675.83 206.542C675.217 207.37 674.853 208.309 674.695 209.329C674.507 210.538 674.662 211.582 675.204 212.468C675.751 213.329 676.519 213.861 677.515 214.015C678.653 214.192 679.707 213.82 680.658 212.851C681.586 211.877 682.195 210.611 682.444 208.998ZM680.516 209.064C680.391 209.871 680.04 210.569 679.506 211.191C678.922 211.829 678.369 212.108 677.8 212.019C677.325 211.946 676.979 211.674 676.764 211.179C676.522 210.704 676.457 210.184 676.545 209.615C676.662 208.856 676.938 208.17 677.421 207.565C677.965 206.872 678.573 206.553 679.237 206.656C679.452 206.835 679.749 206.954 680.129 207.013C680.535 207.367 680.67 208.068 680.516 209.064ZM694.136 207.821C694.188 207.489 694.093 207.159 693.876 206.834C693.636 206.505 693.373 206.319 693.065 206.271C691.215 205.985 689.386 206.819 687.601 208.777C687.613 207.759 687.557 207.021 687.434 206.565C687.246 206.05 686.931 205.734 686.48 205.665C686.29 205.635 686.106 205.728 685.958 205.899C685.779 206.115 685.671 206.341 685.634 206.578C685.473 207.622 685.558 208.485 685.893 209.144C685.845 210.083 685.798 210.853 685.71 211.423C685.611 212.063 685.452 212.621 685.252 213.125C685.022 213.672 684.927 213.973 684.916 214.044C684.853 214.447 684.897 214.794 685.086 215.139C685.279 215.46 685.538 215.67 685.823 215.714C686.108 215.758 686.378 215.582 686.586 215.177C686.694 214.951 686.866 214.467 687.102 213.727C687.977 210.899 689.46 209.162 691.528 208.51C691.798 208.649 691.933 208.719 691.957 208.722C692.336 208.781 692.781 208.729 693.3 208.517C693.811 208.354 694.092 208.106 694.136 207.821ZM700.975 200.064C701.129 199.068 700.807 198.484 700.015 198.264C699.314 198.398 698.927 198.703 698.85 199.201C698.696 200.197 698.933 200.865 699.584 201.209C699.762 201.309 699.901 201.355 699.972 201.366C700.494 201.447 700.828 201.013 700.975 200.064ZM698.463 209.074C698.618 208.078 698.173 207.499 697.129 207.337C696.72 207.468 696.514 207.704 696.466 208.012C696.452 208.107 696.446 208.3 696.449 208.592C695.394 211.173 694.807 212.928 694.664 213.853C694.362 215.798 694.734 216.851 695.825 217.02C695.967 217.042 696.12 216.993 696.285 216.872C696.449 216.752 696.562 216.648 696.584 216.506C696.65 216.079 696.539 215.697 696.275 215.365C696.543 213.949 697.053 212.377 697.814 210.6L698.463 209.074ZM709.819 218.142C709.856 217.905 709.798 217.653 709.645 217.386C709.484 217.167 709.266 217.012 709.028 216.975C708.839 216.946 708.523 216.945 708.112 216.93C707.702 216.915 707.39 216.891 707.2 216.862C706.489 216.752 705.923 216.324 705.461 215.548C708.031 214.635 709.451 213.301 709.723 211.545C709.826 210.881 709.64 210.197 709.159 209.54C708.678 208.882 708.153 208.51 707.56 208.418C706.54 208.26 705.618 208.724 704.774 209.784C704.051 210.692 703.601 211.715 703.425 212.853C703.388 213.091 703.361 213.426 703.369 213.84L702.824 213.756C702.492 213.705 702.202 213.538 701.906 213.25C701.611 212.961 701.392 212.806 701.25 212.784C700.633 212.688 700.274 212.973 700.171 213.637C700.09 214.159 700.403 214.644 701.158 215.101C701.735 215.457 702.309 215.668 702.926 215.763L703.637 215.873C704.238 217.642 705.441 218.654 707.244 218.933C708.833 219.179 709.702 218.901 709.819 218.142ZM707.835 211.35C707.714 212.133 706.87 212.877 705.304 213.581L705.37 213.154C705.469 212.514 705.659 211.912 705.988 211.356C706.335 210.681 706.723 210.377 707.15 210.443C707.339 210.472 707.514 210.596 707.682 210.768C707.795 210.98 707.864 211.161 707.835 211.35ZM719.593 211.276C719.619 211.11 719.601 210.913 719.535 210.709C719.551 209.982 719.013 209.535 717.922 209.366C717.21 209.256 716.727 209.4 716.431 209.742C715.254 209.973 714.591 210.647 714.422 211.738C714.319 212.403 714.438 213.514 714.787 215.025C715.136 216.536 715.305 217.485 715.254 217.817C715.166 218.387 714.722 218.585 713.939 218.464C713.655 218.42 713.255 218.334 712.792 218.189C712.325 218.068 712.071 217.98 712.024 217.973C711.81 217.94 711.599 218.053 711.42 218.268C711.193 218.476 711.082 218.726 711.041 218.987C710.938 219.651 711.713 220.135 713.421 220.399C714.465 220.561 715.331 220.452 716.018 220.097C716.633 219.731 717.002 219.229 717.109 218.542C717.219 217.83 717.083 216.668 716.745 215.085C716.38 213.523 716.231 212.601 716.275 212.317C716.345 211.866 716.69 211.677 717.307 211.772C717.449 211.794 717.659 211.851 717.943 211.895C718.221 211.987 718.434 212.02 718.553 212.038C718.79 212.075 719.014 212.037 719.233 211.876C719.421 211.76 719.549 211.561 719.593 211.276ZM723.806 220.185C723.96 219.189 723.637 218.605 722.855 218.484C722.428 218.418 722.039 218.576 721.641 218.952C721.219 219.324 720.987 219.725 720.928 220.104C720.888 220.365 720.975 220.743 721.217 221.218C721.46 221.692 721.755 221.981 722.111 222.036C722.632 222.117 723.036 221.863 723.314 221.324C723.606 220.689 723.787 220.304 723.806 220.185ZM737.271 206.023C737.308 205.785 737.169 205.424 736.9 204.969C736.606 204.511 736.355 204.254 736.141 204.221C735.43 204.11 735.043 204.415 734.94 205.079C734.911 205.269 734.945 205.517 735.071 205.803C735.008 206.522 735.265 206.902 735.858 206.994C736.19 207.045 736.513 206.998 736.787 206.798C737.053 206.645 737.216 206.378 737.271 206.023ZM734.261 213.547C734.374 212.811 734.101 212.381 733.484 212.285C732.82 212.182 732.43 212.51 732.292 213.242C731.801 215.789 731.495 217.296 731.37 217.786C730.707 220.185 729.779 222.106 728.576 223.595C727.891 224.412 727.252 224.775 726.66 224.683C726.138 224.602 725.97 224.115 726.11 223.214C726.22 222.502 726.52 221.82 727.03 221.194C727.243 220.912 727.386 220.618 727.43 220.334C727.474 220.049 727.396 219.77 727.235 219.551C727.051 219.328 726.829 219.196 726.544 219.152C726.188 219.097 725.801 219.401 725.359 220.062C724.816 220.9 724.456 221.816 724.291 222.883C723.938 225.16 724.565 226.447 726.154 226.693C727.269 226.866 728.38 226.431 729.462 225.408C730.804 224.11 731.937 222.124 732.861 219.45C733.448 217.695 733.923 215.729 734.261 213.547ZM744.515 215.134C744.541 214.968 744.523 214.771 744.457 214.567C744.473 213.84 743.935 213.393 742.844 213.224C742.132 213.114 741.649 213.257 741.353 213.6C740.176 213.831 739.513 214.505 739.344 215.596C739.241 216.26 739.36 217.372 739.709 218.883C740.058 220.394 740.227 221.343 740.176 221.675C740.087 222.244 739.644 222.443 738.861 222.322C738.577 222.278 738.177 222.192 737.714 222.047C737.247 221.926 736.993 221.838 736.946 221.831C736.732 221.798 736.52 221.911 736.341 222.126C736.115 222.334 736.003 222.584 735.963 222.845C735.86 223.509 736.635 223.993 738.343 224.257C739.387 224.419 740.253 224.31 740.94 223.955C741.555 223.589 741.924 223.087 742.031 222.399C742.141 221.688 742.005 220.525 741.667 218.943C741.302 217.381 741.153 216.459 741.197 216.175C741.267 215.724 741.612 215.535 742.228 215.63C742.371 215.652 742.581 215.709 742.865 215.753C743.142 215.844 743.356 215.877 743.474 215.896C743.712 215.933 743.936 215.894 744.155 215.734C744.343 215.617 744.471 215.419 744.515 215.134Z" fill="#FE7F2D"/>
<path d="M129.91 16.792C129.91 16.552 129.814 16.312 129.622 16.072C129.43 15.88 129.214 15.76 128.974 15.76C128.782 15.76 128.494 15.928 128.158 16.24C127.87 16.48 127.582 16.72 127.342 16.96C126.934 17.272 126.43 17.416 125.83 17.416C124.87 17.416 124.414 16.84 124.414 15.64C124.414 14.896 124.63 14.152 125.062 13.432C125.494 12.712 126.022 12.112 126.67 11.68C126.958 11.848 127.39 11.92 127.99 11.92C128.302 11.92 128.614 11.8 128.926 11.512C129.19 11.224 129.334 10.96 129.334 10.672C129.334 10.288 129.19 10 128.902 9.76C128.59 9.544 128.254 9.424 127.894 9.424C126.382 9.424 125.038 10.216 123.886 11.776C122.95 13.024 122.494 14.392 122.494 15.88C122.494 16.936 122.83 17.776 123.502 18.448C124.174 19.096 125.014 19.432 126.022 19.432C126.934 19.432 127.87 19.072 128.782 18.352C129.526 17.776 129.91 17.272 129.91 16.792ZM139.734 13.72C139.734 12.784 139.47 11.92 138.942 11.152C138.39 10.408 137.694 9.88 136.854 9.592C136.518 9.496 136.326 9.448 136.278 9.448C136.086 9.448 135.87 9.568 135.582 9.76C135.246 9.952 134.982 10.096 134.79 10.168C133.974 10.576 133.302 11.296 132.822 12.304C132.342 13.216 132.126 14.2 132.126 15.232C132.126 16.456 132.438 17.464 133.11 18.256C133.782 19.024 134.622 19.432 135.63 19.432C136.782 19.432 137.766 18.904 138.558 17.8C139.326 16.696 139.734 15.352 139.734 13.72ZM137.838 14.08C137.838 14.896 137.598 15.64 137.166 16.336C136.686 17.056 136.182 17.416 135.606 17.416C135.126 17.416 134.742 17.2 134.454 16.744C134.142 16.312 133.998 15.808 133.998 15.232C133.998 14.464 134.166 13.744 134.55 13.072C134.982 12.304 135.534 11.896 136.206 11.896C136.446 12.04 136.758 12.112 137.142 12.112C137.598 12.4 137.838 13.072 137.838 14.08ZM158.716 17.992C158.716 17.92 158.596 17.68 158.356 17.296C157.78 16.432 157.444 14.752 157.348 12.304C157.324 11.728 157.06 11.44 156.532 11.44C155.308 11.44 153.58 12.976 151.324 16C151.06 15.28 150.94 13.984 150.94 12.16C150.94 11.536 150.892 11.104 150.82 10.912C150.7 10.624 150.436 10.456 150.052 10.456C149.428 10.456 147.724 11.8 144.892 14.464C145.348 12.4 145.588 11.08 145.588 10.456C145.588 8.968 145.228 8.2 144.532 8.2C144.22 8.2 143.932 8.32 143.668 8.56C143.38 8.8 143.212 9.112 143.188 9.496C143.428 9.976 143.548 10.456 143.548 10.912C143.548 11.44 143.356 12.52 142.996 14.2C142.612 15.928 142.444 17.128 142.444 17.848C142.444 19.192 142.804 19.864 143.548 19.864C144.052 19.864 144.412 19.528 144.604 18.856C145.228 16.696 146.644 14.872 148.828 13.384C148.972 15.376 149.308 16.912 149.884 17.968C150.172 18.544 150.556 18.832 150.988 18.832C151.42 18.832 151.876 18.472 152.356 17.728C153.364 16.24 154.348 15.04 155.332 14.152C155.716 17.464 156.412 19.12 157.42 19.12C158.284 19.12 158.716 18.76 158.716 17.992ZM169.361 10.696C169.361 9.544 169.097 8.584 168.569 7.816C167.993 6.976 167.153 6.544 166.097 6.544C164.585 6.544 163.409 7.6 162.569 9.712C161.993 11.176 161.705 12.856 161.705 14.728C161.705 14.968 161.705 15.16 161.729 15.28C161.057 15.52 160.745 15.88 160.745 16.384C160.745 17.008 161.057 17.344 161.729 17.392C161.777 17.776 161.801 18.352 161.801 19.12C161.801 20.656 161.705 21.736 161.561 22.408C161.393 23.056 161.321 23.416 161.321 23.488C161.321 23.752 161.417 23.992 161.609 24.208C161.801 24.4 162.041 24.52 162.305 24.52C162.809 24.52 163.169 24.016 163.385 23.032C163.625 21.928 163.745 20.8 163.745 19.696C163.745 18.688 163.697 17.704 163.625 16.744C167.441 15.352 169.361 13.336 169.361 10.696ZM167.441 10.288C167.441 12.256 166.169 13.696 163.649 14.608C163.649 13.312 163.865 11.992 164.321 10.696C164.825 9.28 165.425 8.56 166.097 8.56C166.505 8.56 166.841 8.752 167.105 9.088C167.321 9.424 167.441 9.832 167.441 10.288ZM179.344 13.72C179.344 12.784 179.08 11.92 178.552 11.152C178 10.408 177.304 9.88 176.464 9.592C176.128 9.496 175.936 9.448 175.888 9.448C175.696 9.448 175.48 9.568 175.192 9.76C174.856 9.952 174.592 10.096 174.4 10.168C173.584 10.576 172.912 11.296 172.432 12.304C171.952 13.216 171.736 14.2 171.736 15.232C171.736 16.456 172.048 17.464 172.72 18.256C173.392 19.024 174.232 19.432 175.24 19.432C176.392 19.432 177.376 18.904 178.168 17.8C178.936 16.696 179.344 15.352 179.344 13.72ZM177.448 14.08C177.448 14.896 177.208 15.64 176.776 16.336C176.296 17.056 175.792 17.416 175.216 17.416C174.736 17.416 174.352 17.2 174.064 16.744C173.752 16.312 173.608 15.808 173.608 15.232C173.608 14.464 173.776 13.744 174.16 13.072C174.592 12.304 175.144 11.896 175.816 11.896C176.056 12.04 176.368 12.112 176.752 12.112C177.208 12.4 177.448 13.072 177.448 14.08ZM190.814 12.112C190.814 11.752 190.646 11.464 190.358 11.224C190.07 11.008 189.758 10.888 189.422 10.864C187.478 11.944 185.654 13.528 183.95 15.592C183.95 14.392 184.07 13.168 184.31 11.896C184.43 11.32 184.55 10.792 184.67 10.312C184.67 9.928 184.55 9.592 184.31 9.28C184.07 9.016 183.758 8.872 183.398 8.872C183.11 8.872 182.942 9.064 182.846 9.4C182.318 11.344 182.054 13.24 182.054 15.112C182.054 17.968 182.534 19.384 183.542 19.384C183.782 19.384 184.022 19.168 184.262 18.784C184.406 18.496 184.55 18.184 184.718 17.896C185.534 16.552 186.926 15.136 188.918 13.624L188.558 16.696C188.462 17.584 188.414 18.04 188.414 18.064C188.414 18.448 188.534 18.784 188.774 19.096C189.014 19.384 189.302 19.528 189.662 19.528C189.998 19.528 190.19 19.288 190.238 18.856C190.622 15.472 190.814 13.216 190.814 12.112ZM202.779 18.568C202.779 18.328 202.683 18.088 202.491 17.848C202.299 17.656 202.059 17.536 201.819 17.536C201.627 17.536 201.315 17.584 200.907 17.632C200.499 17.68 200.187 17.704 199.995 17.704C199.275 17.704 198.651 17.368 198.075 16.672C200.475 15.376 201.675 13.84 201.675 12.064C201.675 11.392 201.387 10.744 200.811 10.168C200.235 9.592 199.659 9.304 199.059 9.304C198.027 9.304 197.187 9.904 196.515 11.08C195.939 12.088 195.651 13.168 195.651 14.32C195.651 14.56 195.675 14.896 195.747 15.304H195.195C194.859 15.304 194.547 15.184 194.211 14.944C193.875 14.704 193.635 14.584 193.491 14.584C192.867 14.584 192.555 14.92 192.555 15.592C192.555 16.12 192.939 16.552 193.755 16.888C194.379 17.152 194.979 17.272 195.603 17.272H196.323C197.187 18.928 198.531 19.744 200.355 19.744C201.963 19.744 202.779 19.336 202.779 18.568ZM199.779 12.16C199.779 12.952 199.059 13.816 197.619 14.752V14.32C197.619 13.672 197.715 13.048 197.955 12.448C198.195 11.728 198.531 11.368 198.963 11.368C199.155 11.368 199.347 11.464 199.539 11.608C199.683 11.8 199.779 11.968 199.779 12.16ZM213.548 12.112C213.548 11.752 213.38 11.464 213.092 11.224C212.804 11.008 212.492 10.888 212.156 10.864C210.212 11.944 208.388 13.528 206.684 15.592C206.684 14.392 206.804 13.168 207.044 11.896C207.164 11.32 207.284 10.792 207.404 10.312C207.404 9.928 207.284 9.592 207.044 9.28C206.804 9.016 206.492 8.872 206.132 8.872C205.844 8.872 205.676 9.064 205.58 9.4C205.052 11.344 204.788 13.24 204.788 15.112C204.788 17.968 205.268 19.384 206.276 19.384C206.516 19.384 206.756 19.168 206.996 18.784C207.14 18.496 207.284 18.184 207.452 17.896C208.268 16.552 209.66 15.136 211.652 13.624L211.292 16.696C211.196 17.584 211.148 18.04 211.148 18.064C211.148 18.448 211.268 18.784 211.508 19.096C211.748 19.384 212.036 19.528 212.396 19.528C212.732 19.528 212.924 19.288 212.972 18.856C213.356 15.472 213.548 13.216 213.548 12.112ZM224.218 10.576C224.218 9.808 223.522 9.4 222.13 9.328C221.122 9.304 220.522 9.28 220.354 9.28C220.69 7.696 221.002 6.424 221.29 5.44C221.506 4.768 221.698 4.192 221.842 3.688C221.77 2.968 221.434 2.608 220.81 2.608C220.378 2.608 220.09 2.872 219.946 3.376C219.514 4.816 218.986 6.784 218.362 9.328C217.786 9.328 217.426 9.4 217.234 9.496C216.946 9.64 216.802 9.928 216.802 10.36C216.802 11.056 217.162 11.392 217.906 11.392L217.186 14.848C216.874 16.408 216.73 17.56 216.73 18.28C216.73 19.576 217.114 20.248 217.906 20.248C218.146 20.248 218.362 20.152 218.602 19.96C218.818 19.744 218.938 19.528 218.938 19.288C218.938 18.904 218.818 18.64 218.578 18.448C218.626 17.392 218.77 16.168 219.058 14.824C219.154 14.368 219.418 13.216 219.85 11.344C220.09 11.344 220.522 11.368 221.194 11.368C221.866 11.392 222.274 11.392 222.442 11.392C222.682 11.632 222.994 11.728 223.33 11.728C223.546 11.728 223.762 11.608 223.954 11.368C224.122 11.128 224.218 10.864 224.218 10.576ZM229.031 18.448C229.031 17.44 228.623 16.912 227.831 16.912C227.399 16.912 227.039 17.128 226.703 17.56C226.343 17.992 226.175 18.424 226.175 18.808C226.175 19.072 226.319 19.432 226.631 19.864C226.943 20.296 227.279 20.536 227.639 20.536C228.167 20.536 228.527 20.224 228.719 19.648C228.911 18.976 229.031 18.568 229.031 18.448ZM241.203 19.192C241.131 18.568 241.059 18.064 241.011 17.632C240.867 16.504 240.795 15.448 240.795 14.44C240.795 14.296 240.795 13.912 240.843 13.312C240.891 12.712 240.939 12.376 240.939 12.304C240.939 11.92 240.795 11.56 240.555 11.224C240.315 10.936 240.027 10.768 239.667 10.768C239.235 10.768 238.299 11.32 236.907 12.424C235.563 13.456 234.651 14.296 234.123 14.944C234.387 12.736 234.579 11.32 234.699 10.696L235.419 6.928C235.659 5.536 235.875 4.504 236.019 3.808C236.139 3.136 236.211 2.752 236.211 2.632C236.211 2.296 236.091 1.96 235.851 1.624C235.635 1.288 235.371 1.12 235.059 1.12C234.675 1.12 234.411 1.528 234.267 2.32L232.875 9.976C232.443 12.184 232.251 14.44 232.251 16.744C232.251 16.888 232.251 17.152 232.275 17.512C232.275 17.896 232.275 18.112 232.275 18.16C232.275 18.496 232.395 18.832 232.635 19.144C232.899 19.432 233.211 19.576 233.571 19.576C233.763 19.576 233.979 19.312 234.267 18.784C234.459 18.424 234.627 18.04 234.795 17.656C235.419 16.528 236.811 15.16 238.971 13.552L239.091 16.456C239.187 18.76 239.715 19.888 240.723 19.888C241.011 19.888 241.155 19.648 241.203 19.192ZM251.874 10.576C251.874 9.808 251.178 9.4 249.786 9.328C248.778 9.304 248.178 9.28 248.01 9.28C248.346 7.696 248.658 6.424 248.946 5.44C249.162 4.768 249.354 4.192 249.498 3.688C249.426 2.968 249.09 2.608 248.466 2.608C248.034 2.608 247.746 2.872 247.602 3.376C247.17 4.816 246.642 6.784 246.018 9.328C245.442 9.328 245.082 9.4 244.89 9.496C244.602 9.64 244.458 9.928 244.458 10.36C244.458 11.056 244.818 11.392 245.562 11.392L244.842 14.848C244.53 16.408 244.386 17.56 244.386 18.28C244.386 19.576 244.77 20.248 245.562 20.248C245.802 20.248 246.018 20.152 246.258 19.96C246.474 19.744 246.594 19.528 246.594 19.288C246.594 18.904 246.474 18.64 246.234 18.448C246.282 17.392 246.426 16.168 246.714 14.824C246.81 14.368 247.074 13.216 247.506 11.344C247.746 11.344 248.178 11.368 248.85 11.368C249.522 11.392 249.93 11.392 250.098 11.392C250.338 11.632 250.65 11.728 250.986 11.728C251.202 11.728 251.418 11.608 251.61 11.368C251.778 11.128 251.874 10.864 251.874 10.576ZM269.599 17.992C269.599 17.92 269.479 17.68 269.239 17.296C268.663 16.432 268.327 14.752 268.231 12.304C268.207 11.728 267.943 11.44 267.415 11.44C266.191 11.44 264.463 12.976 262.207 16C261.943 15.28 261.823 13.984 261.823 12.16C261.823 11.536 261.775 11.104 261.703 10.912C261.583 10.624 261.319 10.456 260.935 10.456C260.311 10.456 258.607 11.8 255.775 14.464C256.231 12.4 256.471 11.08 256.471 10.456C256.471 8.968 256.111 8.2 255.415 8.2C255.103 8.2 254.815 8.32 254.551 8.56C254.263 8.8 254.095 9.112 254.071 9.496C254.311 9.976 254.431 10.456 254.431 10.912C254.431 11.44 254.239 12.52 253.879 14.2C253.495 15.928 253.327 17.128 253.327 17.848C253.327 19.192 253.687 19.864 254.431 19.864C254.935 19.864 255.295 19.528 255.487 18.856C256.111 16.696 257.527 14.872 259.711 13.384C259.855 15.376 260.191 16.912 260.767 17.968C261.055 18.544 261.439 18.832 261.871 18.832C262.303 18.832 262.759 18.472 263.239 17.728C264.247 16.24 265.231 15.04 266.215 14.152C266.599 17.464 267.295 19.12 268.303 19.12C269.167 19.12 269.599 18.76 269.599 17.992ZM276.26 2.776C276.26 2.488 276.044 2.152 275.66 1.72C275.276 1.336 274.94 1.12 274.652 1.12C274.34 1.12 274.052 1.576 273.788 2.44C272.852 5.416 272.396 8.488 272.396 11.656C272.396 12.472 272.444 13.6 272.54 15.04C272.372 15.328 272.3 15.856 272.3 16.6C272.3 17.416 272.468 18.16 272.828 18.856C273.164 19.552 273.572 19.912 274.052 19.912C274.172 19.912 274.316 19.84 274.484 19.696C274.628 19.576 274.724 19.456 274.724 19.336C274.724 19.264 274.7 19.12 274.676 18.928C274.628 18.712 274.628 18.568 274.628 18.472C274.388 15.544 274.268 13.48 274.268 12.328C274.268 9.568 274.628 6.808 275.348 4.048L275.516 3.808C275.996 3.568 276.26 3.232 276.26 2.776Z" fill="#FE7F2D"/>
</g>
<defs>
<clipPath id="clip0">
<rect width="875" height="281" fill="white"/>
</clipPath>
</defs>
</svg>
