<svg width="1369" height="164" viewBox="0 0 1369 164" fill="none" xmlns="http://www.w3.org/2000/svg">
<rect width="1369" height="164" fill="white"/>
<rect x="2.5" y="2.5" width="398" height="159" stroke="#1A090D" stroke-width="5"/>
<rect x="441.5" y="2.5" width="398" height="159" stroke="#1A090D" stroke-width="5"/>
<rect x="880.5" y="2.5" width="486" height="159" stroke="#1A090D" stroke-width="5"/>
<rect x="16.5" y="18.5" width="176" height="56" stroke="#FE7F2D" stroke-width="5"/>
<rect x="455.5" y="18.5" width="176" height="56" stroke="#FE7F2D" stroke-width="5"/>
<rect x="896.5" y="18.5" width="218" height="56" stroke="#FE7F2D" stroke-width="5"/>
<rect x="209.5" y="18.5" width="176" height="56" stroke="#D6CE93" stroke-width="5"/>
<rect x="648.5" y="18.5" width="176" height="56" stroke="#D6CE93" stroke-width="5"/>
<rect x="1134.5" y="18.5" width="218" height="56" stroke="#D6CE93" stroke-width="5"/>
<rect x="107.5" y="90.5" width="176" height="57" stroke="#8D3B72" stroke-width="5"/>
<rect x="546.5" y="90.5" width="176" height="57" stroke="#8D3B72" stroke-width="5"/>
<rect x="1008.5" y="90.5" width="218" height="57" stroke="#8D3B72" stroke-width="5"/>
<path d="M35.8999 56H39.4794V53.9034H39.6413C40.1442 54.9943 41.2436 56.2131 43.3572 56.2131C46.3402 56.2131 48.6669 53.8523 48.6669 49.4716C48.6669 44.9716 46.2379 42.7386 43.3658 42.7386C41.1754 42.7386 40.1271 44.0426 39.6413 45.108H39.5305V38.5455H35.8999V56ZM39.4538 49.4545C39.4538 47.1193 40.4425 45.6278 42.2067 45.6278C44.005 45.6278 44.9595 47.1875 44.9595 49.4545C44.9595 51.7386 43.9879 53.3239 42.2067 53.3239C40.4595 53.3239 39.4538 51.7898 39.4538 49.4545ZM59.4844 50.4261C59.4929 52.1818 58.2912 53.1023 56.9872 53.1023C55.6151 53.1023 54.7287 52.1392 54.7202 50.5966V42.9091H51.0895V51.2443C51.098 54.304 52.8878 56.1705 55.5213 56.1705C57.4901 56.1705 58.9048 55.1562 59.4929 53.6222H59.6293V56H63.1151V42.9091H59.4844V50.4261ZM72.9822 42.9091H70.5192V39.7727H66.8885V42.9091H65.0987V45.6364H66.8885V52.4545C66.8714 55.0199 68.6186 56.2898 71.2521 56.179C72.1896 56.1449 72.8544 55.9574 73.2209 55.8381L72.6499 53.1364C72.4709 53.1705 72.0874 53.2557 71.7464 53.2557C71.022 53.2557 70.5192 52.983 70.5192 51.9773V45.6364H72.9822V42.9091ZM82.3104 42.9091H79.8473V39.7727H76.2166V42.9091H74.4268V45.6364H76.2166V52.4545C76.1996 55.0199 77.9467 56.2898 80.5803 56.179C81.5178 56.1449 82.1825 55.9574 82.549 55.8381L81.978 53.1364C81.799 53.1705 81.4155 53.2557 81.0746 53.2557C80.3501 53.2557 79.8473 52.983 79.8473 51.9773V45.6364H82.3104V42.9091ZM90.4496 56.2557C94.4212 56.2557 96.8928 53.5369 96.8928 49.5057C96.8928 45.4489 94.4212 42.7386 90.4496 42.7386C86.478 42.7386 84.0064 45.4489 84.0064 49.5057C84.0064 53.5369 86.478 56.2557 90.4496 56.2557ZM90.4666 53.4432C88.6342 53.4432 87.6967 51.7642 87.6967 49.4801C87.6967 47.196 88.6342 45.5085 90.4666 45.5085C92.2649 45.5085 93.2024 47.196 93.2024 49.4801C93.2024 51.7642 92.2649 53.4432 90.4666 53.4432ZM102.884 48.4318C102.893 46.7443 103.898 45.7557 105.364 45.7557C106.822 45.7557 107.7 46.7102 107.691 48.3125V56H111.322V47.6648C111.322 44.6136 109.532 42.7386 106.805 42.7386C104.862 42.7386 103.455 43.6932 102.867 45.2188H102.714V42.9091H99.2536V56H102.884V48.4318ZM116.305 56.2216C117.396 56.2216 118.342 55.3097 118.351 54.1761C118.342 53.0597 117.396 52.1477 116.305 52.1477C115.18 52.1477 114.251 53.0597 114.26 54.1761C114.251 55.3097 115.18 56.2216 116.305 56.2216ZM124.962 48.4318C124.971 46.7443 126.002 45.7557 127.485 45.7557C128.96 45.7557 129.829 46.7017 129.82 48.3125V56H133.451V47.6648C133.46 44.5966 131.653 42.7386 128.925 42.7386C126.94 42.7386 125.61 43.6761 125.013 45.2188H124.86V38.5455H121.332V56H124.962V48.4318ZM143.271 42.9091H140.808V39.7727H137.178V42.9091H135.388V45.6364H137.178V52.4545C137.161 55.0199 138.908 56.2898 141.541 56.179C142.479 56.1449 143.143 55.9574 143.51 55.8381L142.939 53.1364C142.76 53.1705 142.376 53.2557 142.036 53.2557C141.311 53.2557 140.808 52.983 140.808 51.9773V45.6364H143.271V42.9091ZM145.636 56H149.267V48.142C149.267 46.6932 150.188 45.7301 151.398 45.7301C152.591 45.7301 153.392 46.5483 153.392 47.8352V56H156.912V48.0057C156.912 46.6506 157.688 45.7301 159.009 45.7301C160.168 45.7301 161.037 46.4545 161.037 47.9119V56H164.659V47.196C164.659 44.358 162.972 42.7386 160.534 42.7386C158.616 42.7386 157.125 43.7188 156.588 45.2188H156.452C156.034 43.7017 154.696 42.7386 152.898 42.7386C151.134 42.7386 149.795 43.6761 149.25 45.2188H149.097V42.9091H145.636V56ZM171.158 38.5455H167.527V56H171.158V38.5455Z" fill="#FE7F2D"/>
<path d="M474.009 56H477.589V53.9034H477.751C478.254 54.9943 479.353 56.2131 481.467 56.2131C484.45 56.2131 486.776 53.8523 486.776 49.4716C486.776 44.9716 484.347 42.7386 481.475 42.7386C479.285 42.7386 478.237 44.0426 477.751 45.108H477.64V38.5455H474.009V56ZM477.563 49.4545C477.563 47.1193 478.552 45.6278 480.316 45.6278C482.114 45.6278 483.069 47.1875 483.069 49.4545C483.069 51.7386 482.097 53.3239 480.316 53.3239C478.569 53.3239 477.563 51.7898 477.563 49.4545ZM497.594 50.4261C497.602 52.1818 496.401 53.1023 495.097 53.1023C493.724 53.1023 492.838 52.1392 492.83 50.5966V42.9091H489.199V51.2443C489.207 54.304 490.997 56.1705 493.631 56.1705C495.599 56.1705 497.014 55.1562 497.602 53.6222H497.739V56H501.224V42.9091H497.594V50.4261ZM511.092 42.9091H508.629V39.7727H504.998V42.9091H503.208V45.6364H504.998V52.4545C504.981 55.0199 506.728 56.2898 509.362 56.179C510.299 56.1449 510.964 55.9574 511.33 55.8381L510.759 53.1364C510.58 53.1705 510.197 53.2557 509.856 53.2557C509.131 53.2557 508.629 52.983 508.629 51.9773V45.6364H511.092V42.9091ZM520.42 42.9091H517.957V39.7727H514.326V42.9091H512.536V45.6364H514.326V52.4545C514.309 55.0199 516.056 56.2898 518.69 56.179C519.627 56.1449 520.292 55.9574 520.658 55.8381L520.087 53.1364C519.908 53.1705 519.525 53.2557 519.184 53.2557C518.46 53.2557 517.957 52.983 517.957 51.9773V45.6364H520.42V42.9091ZM528.559 56.2557C532.531 56.2557 535.002 53.5369 535.002 49.5057C535.002 45.4489 532.531 42.7386 528.559 42.7386C524.587 42.7386 522.116 45.4489 522.116 49.5057C522.116 53.5369 524.587 56.2557 528.559 56.2557ZM528.576 53.4432C526.744 53.4432 525.806 51.7642 525.806 49.4801C525.806 47.196 526.744 45.5085 528.576 45.5085C530.374 45.5085 531.312 47.196 531.312 49.4801C531.312 51.7642 530.374 53.4432 528.576 53.4432ZM540.994 48.4318C541.002 46.7443 542.008 45.7557 543.474 45.7557C544.931 45.7557 545.809 46.7102 545.8 48.3125V56H549.431V47.6648C549.431 44.6136 547.641 42.7386 544.914 42.7386C542.971 42.7386 541.565 43.6932 540.977 45.2188H540.823V42.9091H537.363V56H540.994V48.4318ZM554.415 56.2216C555.506 56.2216 556.452 55.3097 556.46 54.1761C556.452 53.0597 555.506 52.1477 554.415 52.1477C553.29 52.1477 552.361 53.0597 552.369 54.1761C552.361 55.3097 553.29 56.2216 554.415 56.2216ZM570.333 46.642C570.009 44.2301 568.066 42.7386 564.759 42.7386C561.41 42.7386 559.202 44.2898 559.211 46.8125C559.202 48.7727 560.438 50.0426 562.995 50.554L565.262 51.0057C566.404 51.2358 566.924 51.6534 566.941 52.3097C566.924 53.0852 566.08 53.6392 564.81 53.6392C563.515 53.6392 562.654 53.0852 562.433 52.0199L558.862 52.2074C559.202 54.7131 561.333 56.2557 564.802 56.2557C568.194 56.2557 570.623 54.5256 570.631 51.9432C570.623 50.0511 569.387 48.9176 566.847 48.3977L564.478 47.9205C563.259 47.6562 562.808 47.2386 562.816 46.608C562.808 45.8239 563.694 45.3125 564.819 45.3125C566.08 45.3125 566.83 46.0028 567.009 46.8466L570.333 46.642ZM578.832 56.2557C582.318 56.2557 584.509 54.2102 584.679 51.2017H581.253C581.04 52.5994 580.119 53.3835 578.875 53.3835C577.179 53.3835 576.08 51.9602 576.08 49.4545C576.08 46.983 577.188 45.5682 578.875 45.5682C580.205 45.5682 581.057 46.446 581.253 47.75H584.679C584.526 44.7244 582.233 42.7386 578.815 42.7386C574.844 42.7386 572.389 45.4915 572.389 49.5057C572.389 53.4858 574.801 56.2557 578.832 56.2557ZM597.896 46.642C597.572 44.2301 595.629 42.7386 592.322 42.7386C588.972 42.7386 586.765 44.2898 586.773 46.8125C586.765 48.7727 588.001 50.0426 590.558 50.554L592.825 51.0057C593.967 51.2358 594.487 51.6534 594.504 52.3097C594.487 53.0852 593.643 53.6392 592.373 53.6392C591.077 53.6392 590.217 53.0852 589.995 52.0199L586.424 52.2074C586.765 54.7131 588.896 56.2557 592.364 56.2557C595.756 56.2557 598.185 54.5256 598.194 51.9432C598.185 50.0511 596.95 48.9176 594.41 48.3977L592.04 47.9205C590.822 47.6562 590.37 47.2386 590.379 46.608C590.37 45.8239 591.256 45.3125 592.381 45.3125C593.643 45.3125 594.393 46.0028 594.572 46.8466L597.896 46.642ZM611.372 46.642C611.048 44.2301 609.105 42.7386 605.798 42.7386C602.449 42.7386 600.241 44.2898 600.25 46.8125C600.241 48.7727 601.477 50.0426 604.034 50.554L606.301 51.0057C607.443 51.2358 607.963 51.6534 607.98 52.3097C607.963 53.0852 607.119 53.6392 605.849 53.6392C604.554 53.6392 603.693 53.0852 603.472 52.0199L599.901 52.2074C600.241 54.7131 602.372 56.2557 605.841 56.2557C609.233 56.2557 611.662 54.5256 611.67 51.9432C611.662 50.0511 610.426 48.9176 607.886 48.3977L605.517 47.9205C604.298 47.6562 603.847 47.2386 603.855 46.608C603.847 45.8239 604.733 45.3125 605.858 45.3125C607.119 45.3125 607.869 46.0028 608.048 46.8466L611.372 46.642Z" fill="#FE7F2D"/>
<path d="M908.404 56H911.983V53.9034H912.145C912.648 54.9943 913.748 56.2131 915.861 56.2131C918.844 56.2131 921.171 53.8523 921.171 49.4716C921.171 44.9716 918.742 42.7386 915.87 42.7386C913.679 42.7386 912.631 44.0426 912.145 45.108H912.034V38.5455H908.404V56ZM911.958 49.4545C911.958 47.1193 912.946 45.6278 914.711 45.6278C916.509 45.6278 917.463 47.1875 917.463 49.4545C917.463 51.7386 916.492 53.3239 914.711 53.3239C912.963 53.3239 911.958 51.7898 911.958 49.4545ZM931.988 50.4261C931.997 52.1818 930.795 53.1023 929.491 53.1023C928.119 53.1023 927.233 52.1392 927.224 50.5966V42.9091H923.593V51.2443C923.602 54.304 925.392 56.1705 928.025 56.1705C929.994 56.1705 931.409 55.1562 931.997 53.6222H932.133V56H935.619V42.9091H931.988V50.4261ZM945.486 42.9091H943.023V39.7727H939.392V42.9091H937.603V45.6364H939.392V52.4545C939.375 55.0199 941.123 56.2898 943.756 56.179C944.694 56.1449 945.358 55.9574 945.725 55.8381L945.154 53.1364C944.975 53.1705 944.591 53.2557 944.25 53.2557C943.526 53.2557 943.023 52.983 943.023 51.9773V45.6364H945.486V42.9091ZM954.814 42.9091H952.351V39.7727H948.721V42.9091H946.931V45.6364H948.721V52.4545C948.703 55.0199 950.451 56.2898 953.084 56.179C954.022 56.1449 954.686 55.9574 955.053 55.8381L954.482 53.1364C954.303 53.1705 953.919 53.2557 953.578 53.2557C952.854 53.2557 952.351 52.983 952.351 51.9773V45.6364H954.814V42.9091ZM962.953 56.2557C966.925 56.2557 969.397 53.5369 969.397 49.5057C969.397 45.4489 966.925 42.7386 962.953 42.7386C958.982 42.7386 956.51 45.4489 956.51 49.5057C956.51 53.5369 958.982 56.2557 962.953 56.2557ZM962.971 53.4432C961.138 53.4432 960.201 51.7642 960.201 49.4801C960.201 47.196 961.138 45.5085 962.971 45.5085C964.769 45.5085 965.706 47.196 965.706 49.4801C965.706 51.7642 964.769 53.4432 962.971 53.4432ZM975.388 48.4318C975.397 46.7443 976.402 45.7557 977.868 45.7557C979.326 45.7557 980.203 46.7102 980.195 48.3125V56H983.826V47.6648C983.826 44.6136 982.036 42.7386 979.309 42.7386C977.365 42.7386 975.959 43.6932 975.371 45.2188H975.218V42.9091H971.757V56H975.388V48.4318ZM988.809 56.2216C989.9 56.2216 990.846 55.3097 990.855 54.1761C990.846 53.0597 989.9 52.1477 988.809 52.1477C987.684 52.1477 986.755 53.0597 986.764 54.1761C986.755 55.3097 987.684 56.2216 988.809 56.2216ZM1004.73 46.642C1004.4 44.2301 1002.46 42.7386 999.154 42.7386C995.804 42.7386 993.597 44.2898 993.605 46.8125C993.597 48.7727 994.833 50.0426 997.39 50.554L999.657 51.0057C1000.8 51.2358 1001.32 51.6534 1001.34 52.3097C1001.32 53.0852 1000.47 53.6392 999.205 53.6392C997.909 53.6392 997.049 53.0852 996.827 52.0199L993.256 52.2074C993.597 54.7131 995.728 56.2557 999.196 56.2557C1002.59 56.2557 1005.02 54.5256 1005.03 51.9432C1005.02 50.0511 1003.78 48.9176 1001.24 48.3977L998.873 47.9205C997.654 47.6562 997.202 47.2386 997.211 46.608C997.202 45.8239 998.088 45.3125 999.213 45.3125C1000.47 45.3125 1001.22 46.0028 1001.4 46.8466L1004.73 46.642ZM1014.28 42.9091H1011.81V39.7727H1008.18V42.9091H1006.39V45.6364H1008.18V52.4545C1008.16 55.0199 1009.91 56.2898 1012.55 56.179C1013.48 56.1449 1014.15 55.9574 1014.51 55.8381L1013.94 53.1364C1013.76 53.1705 1013.38 53.2557 1013.04 53.2557C1012.31 53.2557 1011.81 52.983 1011.81 51.9773V45.6364H1014.28V42.9091ZM1022.41 56.2557C1026.39 56.2557 1028.86 53.5369 1028.86 49.5057C1028.86 45.4489 1026.39 42.7386 1022.41 42.7386C1018.44 42.7386 1015.97 45.4489 1015.97 49.5057C1015.97 53.5369 1018.44 56.2557 1022.41 56.2557ZM1022.43 53.4432C1020.6 53.4432 1019.66 51.7642 1019.66 49.4801C1019.66 47.196 1020.6 45.5085 1022.43 45.5085C1024.23 45.5085 1025.17 47.196 1025.17 49.4801C1025.17 51.7642 1024.23 53.4432 1022.43 53.4432ZM1031.22 56H1034.85V48.5938C1034.85 46.983 1036.03 45.875 1037.63 45.875C1038.13 45.875 1038.82 45.9602 1039.16 46.071V42.8494C1038.84 42.7727 1038.39 42.7216 1038.02 42.7216C1036.55 42.7216 1035.35 43.5739 1034.87 45.1932H1034.74V42.9091H1031.22V56ZM1041.04 56H1044.67V42.9091H1041.04V56ZM1042.86 41.2216C1043.94 41.2216 1044.83 40.3949 1044.83 39.3807C1044.83 38.375 1043.94 37.5483 1042.86 37.5483C1041.79 37.5483 1040.9 38.375 1040.9 39.3807C1040.9 40.3949 1041.79 41.2216 1042.86 41.2216ZM1053.54 56.2557C1056.78 56.2557 1058.96 54.679 1059.48 52.25L1056.12 52.0284C1055.75 53.0256 1054.81 53.5455 1053.6 53.5455C1051.79 53.5455 1050.64 52.3438 1050.64 50.392V50.3835H1059.55V49.3864C1059.55 44.9375 1056.86 42.7386 1053.4 42.7386C1049.55 42.7386 1047.05 45.4744 1047.05 49.5142C1047.05 53.6648 1049.51 56.2557 1053.54 56.2557ZM1050.64 48.1335C1050.71 46.642 1051.85 45.4489 1053.46 45.4489C1055.04 45.4489 1056.13 46.5739 1056.13 48.1335H1050.64ZM1072.81 46.642C1072.49 44.2301 1070.55 42.7386 1067.24 42.7386C1063.89 42.7386 1061.68 44.2898 1061.69 46.8125C1061.68 48.7727 1062.92 50.0426 1065.48 50.554L1067.74 51.0057C1068.88 51.2358 1069.4 51.6534 1069.42 52.3097C1069.4 53.0852 1068.56 53.6392 1067.29 53.6392C1066 53.6392 1065.13 53.0852 1064.91 52.0199L1061.34 52.2074C1061.68 54.7131 1063.81 56.2557 1067.28 56.2557C1070.67 56.2557 1073.1 54.5256 1073.11 51.9432C1073.1 50.0511 1071.87 48.9176 1069.33 48.3977L1066.96 47.9205C1065.74 47.6562 1065.29 47.2386 1065.3 46.608C1065.29 45.8239 1066.17 45.3125 1067.3 45.3125C1068.56 45.3125 1069.31 46.0028 1069.49 46.8466L1072.81 46.642ZM1077.52 56.2216C1078.61 56.2216 1079.56 55.3097 1079.57 54.1761C1079.56 53.0597 1078.61 52.1477 1077.52 52.1477C1076.4 52.1477 1075.47 53.0597 1075.47 54.1761C1075.47 55.3097 1076.4 56.2216 1077.52 56.2216ZM1082.55 42.9091V56.5881C1082.55 57.5767 1082.13 58.071 1080.96 58.071C1080.81 58.071 1080.67 58.071 1080.48 58.054V60.892C1080.75 60.9006 1080.96 60.9091 1081.22 60.9091C1084.3 60.9091 1086.18 59.6818 1086.18 56.6477V42.9091H1082.55ZM1084.35 41.2216C1085.44 41.2216 1086.32 40.3949 1086.32 39.3807C1086.32 38.375 1085.44 37.5483 1084.35 37.5483C1083.28 37.5483 1082.39 38.375 1082.39 39.3807C1082.39 40.3949 1083.28 41.2216 1084.35 41.2216ZM1099.98 46.642C1099.65 44.2301 1097.71 42.7386 1094.4 42.7386C1091.05 42.7386 1088.85 44.2898 1088.86 46.8125C1088.85 48.7727 1090.08 50.0426 1092.64 50.554L1094.91 51.0057C1096.05 51.2358 1096.57 51.6534 1096.59 52.3097C1096.57 53.0852 1095.72 53.6392 1094.45 53.6392C1093.16 53.6392 1092.3 53.0852 1092.08 52.0199L1088.51 52.2074C1088.85 54.7131 1090.98 56.2557 1094.45 56.2557C1097.84 56.2557 1100.27 54.5256 1100.28 51.9432C1100.27 50.0511 1099.03 48.9176 1096.49 48.3977L1094.12 47.9205C1092.9 47.6562 1092.45 47.2386 1092.46 46.608C1092.45 45.8239 1093.34 45.3125 1094.46 45.3125C1095.72 45.3125 1096.47 46.0028 1096.65 46.8466L1099.98 46.642Z" fill="#FE7F2D"/>
<path d="M229.556 48.4318C229.565 46.7443 230.596 45.7557 232.079 45.7557C233.553 45.7557 234.423 46.7017 234.414 48.3125V56H238.045V47.6648C238.053 44.5966 236.246 42.7386 233.519 42.7386C231.533 42.7386 230.204 43.6761 229.607 45.2188H229.454V38.5455H225.925V56H229.556V48.4318ZM246.868 56.2557C250.107 56.2557 252.288 54.679 252.8 52.25L249.442 52.0284C249.075 53.0256 248.138 53.5455 246.928 53.5455C245.112 53.5455 243.962 52.3438 243.962 50.392V50.3835H252.876V49.3864C252.876 44.9375 250.183 42.7386 246.723 42.7386C242.871 42.7386 240.374 45.4744 240.374 49.5142C240.374 53.6648 242.837 56.2557 246.868 56.2557ZM243.962 48.1335C244.038 46.642 245.172 45.4489 246.783 45.4489C248.359 45.4489 249.45 46.5739 249.459 48.1335H243.962ZM258.979 56.2472C260.913 56.2472 262.166 55.4034 262.805 54.1847H262.908V56H266.351V47.1705C266.351 44.0511 263.709 42.7386 260.794 42.7386C257.658 42.7386 255.595 44.2386 255.092 46.625L258.45 46.8977C258.697 46.0284 259.473 45.3892 260.777 45.3892C262.013 45.3892 262.72 46.0114 262.72 47.0852V47.1364C262.72 47.9801 261.825 48.0909 259.55 48.3125C256.959 48.5511 254.632 49.4205 254.632 52.3438C254.632 54.9347 256.482 56.2472 258.979 56.2472ZM260.018 53.7415C258.902 53.7415 258.101 53.2216 258.101 52.2244C258.101 51.2017 258.945 50.6989 260.223 50.5199C261.016 50.4091 262.311 50.2216 262.746 49.9318V51.321C262.746 52.6932 261.612 53.7415 260.018 53.7415ZM273.991 56.2131C276.105 56.2131 277.205 54.9943 277.707 53.9034H277.861V56H281.44V38.5455H277.818V45.108H277.707C277.222 44.0426 276.173 42.7386 273.983 42.7386C271.111 42.7386 268.682 44.9716 268.682 49.4716C268.682 53.8523 271.009 56.2131 273.991 56.2131ZM275.142 53.3239C273.361 53.3239 272.389 51.7386 272.389 49.4545C272.389 47.1875 273.344 45.6278 275.142 45.6278C276.906 45.6278 277.895 47.1193 277.895 49.4545C277.895 51.7898 276.889 53.3239 275.142 53.3239ZM290.391 56.2557C293.63 56.2557 295.812 54.679 296.323 52.25L292.965 52.0284C292.599 53.0256 291.661 53.5455 290.451 53.5455C288.636 53.5455 287.485 52.3438 287.485 50.392V50.3835H296.4V49.3864C296.4 44.9375 293.707 42.7386 290.246 42.7386C286.394 42.7386 283.897 45.4744 283.897 49.5142C283.897 53.6648 286.36 56.2557 290.391 56.2557ZM287.485 48.1335C287.562 46.642 288.695 45.4489 290.306 45.4489C291.883 45.4489 292.974 46.5739 292.982 48.1335H287.485ZM298.769 56H302.4V48.5938C302.4 46.983 303.576 45.875 305.178 45.875C305.681 45.875 306.371 45.9602 306.712 46.071V42.8494C306.388 42.7727 305.937 42.7216 305.57 42.7216C304.104 42.7216 302.903 43.5739 302.425 45.1932H302.289V42.9091H298.769V56ZM309.212 56.2216C310.303 56.2216 311.249 55.3097 311.257 54.1761C311.249 53.0597 310.303 52.1477 309.212 52.1477C308.087 52.1477 307.158 53.0597 307.166 54.1761C307.158 55.3097 308.087 56.2216 309.212 56.2216ZM317.869 48.4318C317.877 46.7443 318.908 45.7557 320.391 45.7557C321.866 45.7557 322.735 46.7017 322.727 48.3125V56H326.357V47.6648C326.366 44.5966 324.559 42.7386 321.832 42.7386C319.846 42.7386 318.516 43.6761 317.92 45.2188H317.766V38.5455H314.238V56H317.869V48.4318ZM336.178 42.9091H333.714V39.7727H330.084V42.9091H328.294V45.6364H330.084V52.4545C330.067 55.0199 331.814 56.2898 334.447 56.179C335.385 56.1449 336.05 55.9574 336.416 55.8381L335.845 53.1364C335.666 53.1705 335.283 53.2557 334.942 53.2557C334.217 53.2557 333.714 52.983 333.714 51.9773V45.6364H336.178V42.9091ZM338.543 56H342.173V48.142C342.173 46.6932 343.094 45.7301 344.304 45.7301C345.497 45.7301 346.298 46.5483 346.298 47.8352V56H349.818V48.0057C349.818 46.6506 350.594 45.7301 351.915 45.7301C353.074 45.7301 353.943 46.4545 353.943 47.9119V56H357.565V47.196C357.565 44.358 355.878 42.7386 353.44 42.7386C351.523 42.7386 350.031 43.7188 349.494 45.2188H349.358C348.94 43.7017 347.602 42.7386 345.804 42.7386C344.04 42.7386 342.702 43.6761 342.156 45.2188H342.003V42.9091H338.543V56ZM364.064 38.5455H360.433V56H364.064V38.5455Z" fill="#8E8647"/>
<path d="M668.165 48.4318C668.174 46.7443 669.205 45.7557 670.688 45.7557C672.163 45.7557 673.032 46.7017 673.023 48.3125V56H676.654V47.6648C676.663 44.5966 674.856 42.7386 672.129 42.7386C670.143 42.7386 668.813 43.6761 668.217 45.2188H668.063V38.5455H664.535V56H668.165V48.4318ZM685.477 56.2557C688.716 56.2557 690.898 54.679 691.409 52.25L688.051 52.0284C687.685 53.0256 686.747 53.5455 685.537 53.5455C683.722 53.5455 682.571 52.3438 682.571 50.392V50.3835H691.486V49.3864C691.486 44.9375 688.793 42.7386 685.332 42.7386C681.48 42.7386 678.983 45.4744 678.983 49.5142C678.983 53.6648 681.446 56.2557 685.477 56.2557ZM682.571 48.1335C682.648 46.642 683.781 45.4489 685.392 45.4489C686.969 45.4489 688.06 46.5739 688.068 48.1335H682.571ZM697.588 56.2472C699.523 56.2472 700.776 55.4034 701.415 54.1847H701.517V56H704.96V47.1705C704.96 44.0511 702.318 42.7386 699.403 42.7386C696.267 42.7386 694.205 44.2386 693.702 46.625L697.06 46.8977C697.307 46.0284 698.082 45.3892 699.386 45.3892C700.622 45.3892 701.33 46.0114 701.33 47.0852V47.1364C701.33 47.9801 700.435 48.0909 698.159 48.3125C695.568 48.5511 693.241 49.4205 693.241 52.3438C693.241 54.9347 695.091 56.2472 697.588 56.2472ZM698.628 53.7415C697.511 53.7415 696.71 53.2216 696.71 52.2244C696.71 51.2017 697.554 50.6989 698.832 50.5199C699.625 50.4091 700.92 50.2216 701.355 49.9318V51.321C701.355 52.6932 700.222 53.7415 698.628 53.7415ZM712.601 56.2131C714.714 56.2131 715.814 54.9943 716.317 53.9034H716.47V56H720.05V38.5455H716.428V45.108H716.317C715.831 44.0426 714.783 42.7386 712.592 42.7386C709.72 42.7386 707.291 44.9716 707.291 49.4716C707.291 53.8523 709.618 56.2131 712.601 56.2131ZM713.751 53.3239C711.97 53.3239 710.999 51.7386 710.999 49.4545C710.999 47.1875 711.953 45.6278 713.751 45.6278C715.516 45.6278 716.504 47.1193 716.504 49.4545C716.504 51.7898 715.499 53.3239 713.751 53.3239ZM729.001 56.2557C732.239 56.2557 734.421 54.679 734.933 52.25L731.575 52.0284C731.208 53.0256 730.271 53.5455 729.06 53.5455C727.245 53.5455 726.094 52.3438 726.094 50.392V50.3835H735.009V49.3864C735.009 44.9375 732.316 42.7386 728.856 42.7386C725.004 42.7386 722.506 45.4744 722.506 49.5142C722.506 53.6648 724.969 56.2557 729.001 56.2557ZM726.094 48.1335C726.171 46.642 727.305 45.4489 728.915 45.4489C730.492 45.4489 731.583 46.5739 731.592 48.1335H726.094ZM737.379 56H741.009V48.5938C741.009 46.983 742.185 45.875 743.788 45.875C744.29 45.875 744.981 45.9602 745.322 46.071V42.8494C744.998 42.7727 744.546 42.7216 744.18 42.7216C742.714 42.7216 741.512 43.5739 741.035 45.1932H740.898V42.9091H737.379V56ZM747.821 56.2216C748.912 56.2216 749.858 55.3097 749.866 54.1761C749.858 53.0597 748.912 52.1477 747.821 52.1477C746.696 52.1477 745.767 53.0597 745.776 54.1761C745.767 55.3097 746.696 56.2216 747.821 56.2216ZM763.739 46.642C763.415 44.2301 761.472 42.7386 758.165 42.7386C754.816 42.7386 752.609 44.2898 752.617 46.8125C752.609 48.7727 753.844 50.0426 756.401 50.554L758.668 51.0057C759.81 51.2358 760.33 51.6534 760.347 52.3097C760.33 53.0852 759.487 53.6392 758.217 53.6392C756.921 53.6392 756.06 53.0852 755.839 52.0199L752.268 52.2074C752.609 54.7131 754.739 56.2557 758.208 56.2557C761.6 56.2557 764.029 54.5256 764.038 51.9432C764.029 50.0511 762.793 48.9176 760.254 48.3977L757.884 47.9205C756.665 47.6562 756.214 47.2386 756.222 46.608C756.214 45.8239 757.1 45.3125 758.225 45.3125C759.487 45.3125 760.237 46.0028 760.415 46.8466L763.739 46.642ZM772.239 56.2557C775.724 56.2557 777.915 54.2102 778.085 51.2017H774.659C774.446 52.5994 773.526 53.3835 772.281 53.3835C770.585 53.3835 769.486 51.9602 769.486 49.4545C769.486 46.983 770.594 45.5682 772.281 45.5682C773.611 45.5682 774.463 46.446 774.659 47.75H778.085C777.932 44.7244 775.639 42.7386 772.222 42.7386C768.25 42.7386 765.795 45.4915 765.795 49.5057C765.795 53.4858 768.207 56.2557 772.239 56.2557ZM791.302 46.642C790.978 44.2301 789.035 42.7386 785.728 42.7386C782.379 42.7386 780.171 44.2898 780.18 46.8125C780.171 48.7727 781.407 50.0426 783.964 50.554L786.231 51.0057C787.373 51.2358 787.893 51.6534 787.91 52.3097C787.893 53.0852 787.049 53.6392 785.779 53.6392C784.484 53.6392 783.623 53.0852 783.401 52.0199L779.83 52.2074C780.171 54.7131 782.302 56.2557 785.771 56.2557C789.163 56.2557 791.592 54.5256 791.6 51.9432C791.592 50.0511 790.356 48.9176 787.816 48.3977L785.447 47.9205C784.228 47.6562 783.776 47.2386 783.785 46.608C783.776 45.8239 784.663 45.3125 785.788 45.3125C787.049 45.3125 787.799 46.0028 787.978 46.8466L791.302 46.642ZM804.778 46.642C804.455 44.2301 802.511 42.7386 799.205 42.7386C795.855 42.7386 793.648 44.2898 793.656 46.8125C793.648 48.7727 794.884 50.0426 797.44 50.554L799.707 51.0057C800.849 51.2358 801.369 51.6534 801.386 52.3097C801.369 53.0852 800.526 53.6392 799.256 53.6392C797.96 53.6392 797.099 53.0852 796.878 52.0199L793.307 52.2074C793.648 54.7131 795.778 56.2557 799.247 56.2557C802.639 56.2557 805.068 54.5256 805.077 51.9432C805.068 50.0511 803.832 48.9176 801.293 48.3977L798.923 47.9205C797.705 47.6562 797.253 47.2386 797.261 46.608C797.253 45.8239 798.139 45.3125 799.264 45.3125C800.526 45.3125 801.276 46.0028 801.455 46.8466L804.778 46.642Z" fill="#8E8647"/>
<path d="M1146.56 48.4318C1146.57 46.7443 1147.6 45.7557 1149.08 45.7557C1150.56 45.7557 1151.43 46.7017 1151.42 48.3125V56H1155.05V47.6648C1155.06 44.5966 1153.25 42.7386 1150.52 42.7386C1148.54 42.7386 1147.21 43.6761 1146.61 45.2188H1146.46V38.5455H1142.93V56H1146.56V48.4318ZM1163.87 56.2557C1167.11 56.2557 1169.29 54.679 1169.8 52.25L1166.45 52.0284C1166.08 53.0256 1165.14 53.5455 1163.93 53.5455C1162.12 53.5455 1160.97 52.3438 1160.97 50.392V50.3835H1169.88V49.3864C1169.88 44.9375 1167.19 42.7386 1163.73 42.7386C1159.87 42.7386 1157.38 45.4744 1157.38 49.5142C1157.38 53.6648 1159.84 56.2557 1163.87 56.2557ZM1160.97 48.1335C1161.04 46.642 1162.18 45.4489 1163.79 45.4489C1165.36 45.4489 1166.45 46.5739 1166.46 48.1335H1160.97ZM1175.98 56.2472C1177.92 56.2472 1179.17 55.4034 1179.81 54.1847H1179.91V56H1183.35V47.1705C1183.35 44.0511 1180.71 42.7386 1177.8 42.7386C1174.66 42.7386 1172.6 44.2386 1172.1 46.625L1175.45 46.8977C1175.7 46.0284 1176.48 45.3892 1177.78 45.3892C1179.02 45.3892 1179.72 46.0114 1179.72 47.0852V47.1364C1179.72 47.9801 1178.83 48.0909 1176.55 48.3125C1173.96 48.5511 1171.64 49.4205 1171.64 52.3438C1171.64 54.9347 1173.49 56.2472 1175.98 56.2472ZM1177.02 53.7415C1175.91 53.7415 1175.1 53.2216 1175.1 52.2244C1175.1 51.2017 1175.95 50.6989 1177.23 50.5199C1178.02 50.4091 1179.31 50.2216 1179.75 49.9318V51.321C1179.75 52.6932 1178.62 53.7415 1177.02 53.7415ZM1191 56.2131C1193.11 56.2131 1194.21 54.9943 1194.71 53.9034H1194.86V56H1198.44V38.5455H1194.82V45.108H1194.71C1194.23 44.0426 1193.18 42.7386 1190.99 42.7386C1188.11 42.7386 1185.69 44.9716 1185.69 49.4716C1185.69 53.8523 1188.01 56.2131 1191 56.2131ZM1192.15 53.3239C1190.36 53.3239 1189.39 51.7386 1189.39 49.4545C1189.39 47.1875 1190.35 45.6278 1192.15 45.6278C1193.91 45.6278 1194.9 47.1193 1194.9 49.4545C1194.9 51.7898 1193.89 53.3239 1192.15 53.3239ZM1207.4 56.2557C1210.63 56.2557 1212.82 54.679 1213.33 52.25L1209.97 52.0284C1209.6 53.0256 1208.67 53.5455 1207.45 53.5455C1205.64 53.5455 1204.49 52.3438 1204.49 50.392V50.3835H1213.4V49.3864C1213.4 44.9375 1210.71 42.7386 1207.25 42.7386C1203.4 42.7386 1200.9 45.4744 1200.9 49.5142C1200.9 53.6648 1203.36 56.2557 1207.4 56.2557ZM1204.49 48.1335C1204.57 46.642 1205.7 45.4489 1207.31 45.4489C1208.89 45.4489 1209.98 46.5739 1209.99 48.1335H1204.49ZM1215.77 56H1219.4V48.5938C1219.4 46.983 1220.58 45.875 1222.18 45.875C1222.69 45.875 1223.38 45.9602 1223.72 46.071V42.8494C1223.39 42.7727 1222.94 42.7216 1222.57 42.7216C1221.11 42.7216 1219.91 43.5739 1219.43 45.1932H1219.29V42.9091H1215.77V56ZM1226.22 56.2216C1227.31 56.2216 1228.25 55.3097 1228.26 54.1761C1228.25 53.0597 1227.31 52.1477 1226.22 52.1477C1225.09 52.1477 1224.16 53.0597 1224.17 54.1761C1224.16 55.3097 1225.09 56.2216 1226.22 56.2216ZM1242.13 46.642C1241.81 44.2301 1239.87 42.7386 1236.56 42.7386C1233.21 42.7386 1231 44.2898 1231.01 46.8125C1231 48.7727 1232.24 50.0426 1234.8 50.554L1237.06 51.0057C1238.2 51.2358 1238.72 51.6534 1238.74 52.3097C1238.72 53.0852 1237.88 53.6392 1236.61 53.6392C1235.32 53.6392 1234.45 53.0852 1234.23 52.0199L1230.66 52.2074C1231 54.7131 1233.13 56.2557 1236.6 56.2557C1239.99 56.2557 1242.42 54.5256 1242.43 51.9432C1242.42 50.0511 1241.19 48.9176 1238.65 48.3977L1236.28 47.9205C1235.06 47.6562 1234.61 47.2386 1234.62 46.608C1234.61 45.8239 1235.49 45.3125 1236.62 45.3125C1237.88 45.3125 1238.63 46.0028 1238.81 46.8466L1242.13 46.642ZM1251.68 42.9091H1249.22V39.7727H1245.59V42.9091H1243.8V45.6364H1245.59V52.4545C1245.57 55.0199 1247.32 56.2898 1249.95 56.179C1250.89 56.1449 1251.55 55.9574 1251.92 55.8381L1251.35 53.1364C1251.17 53.1705 1250.79 53.2557 1250.45 53.2557C1249.72 53.2557 1249.22 52.983 1249.22 51.9773V45.6364H1251.68V42.9091ZM1259.82 56.2557C1263.79 56.2557 1266.26 53.5369 1266.26 49.5057C1266.26 45.4489 1263.79 42.7386 1259.82 42.7386C1255.85 42.7386 1253.38 45.4489 1253.38 49.5057C1253.38 53.5369 1255.85 56.2557 1259.82 56.2557ZM1259.84 53.4432C1258.01 53.4432 1257.07 51.7642 1257.07 49.4801C1257.07 47.196 1258.01 45.5085 1259.84 45.5085C1261.64 45.5085 1262.57 47.196 1262.57 49.4801C1262.57 51.7642 1261.64 53.4432 1259.84 53.4432ZM1268.62 56H1272.26V48.5938C1272.26 46.983 1273.43 45.875 1275.03 45.875C1275.54 45.875 1276.23 45.9602 1276.57 46.071V42.8494C1276.24 42.7727 1275.79 42.7216 1275.43 42.7216C1273.96 42.7216 1272.76 43.5739 1272.28 45.1932H1272.14V42.9091H1268.62V56ZM1278.44 56H1282.08V42.9091H1278.44V56ZM1280.27 41.2216C1281.35 41.2216 1282.24 40.3949 1282.24 39.3807C1282.24 38.375 1281.35 37.5483 1280.27 37.5483C1279.19 37.5483 1278.31 38.375 1278.31 39.3807C1278.31 40.3949 1279.19 41.2216 1280.27 41.2216ZM1290.95 56.2557C1294.19 56.2557 1296.37 54.679 1296.88 52.25L1293.52 52.0284C1293.16 53.0256 1292.22 53.5455 1291.01 53.5455C1289.19 53.5455 1288.04 52.3438 1288.04 50.392V50.3835H1296.96V49.3864C1296.96 44.9375 1294.27 42.7386 1290.81 42.7386C1286.95 42.7386 1284.46 45.4744 1284.46 49.5142C1284.46 53.6648 1286.92 56.2557 1290.95 56.2557ZM1288.04 48.1335C1288.12 46.642 1289.25 45.4489 1290.86 45.4489C1292.44 45.4489 1293.53 46.5739 1293.54 48.1335H1288.04ZM1310.22 46.642C1309.9 44.2301 1307.95 42.7386 1304.65 42.7386C1301.3 42.7386 1299.09 44.2898 1299.1 46.8125C1299.09 48.7727 1300.32 50.0426 1302.88 50.554L1305.15 51.0057C1306.29 51.2358 1306.81 51.6534 1306.83 52.3097C1306.81 53.0852 1305.97 53.6392 1304.7 53.6392C1303.4 53.6392 1302.54 53.0852 1302.32 52.0199L1298.75 52.2074C1299.09 54.7131 1301.22 56.2557 1304.69 56.2557C1308.08 56.2557 1310.51 54.5256 1310.52 51.9432C1310.51 50.0511 1309.27 48.9176 1306.73 48.3977L1304.36 47.9205C1303.15 47.6562 1302.69 47.2386 1302.7 46.608C1302.69 45.8239 1303.58 45.3125 1304.71 45.3125C1305.97 45.3125 1306.72 46.0028 1306.9 46.8466L1310.22 46.642ZM1314.93 56.2216C1316.02 56.2216 1316.96 55.3097 1316.97 54.1761C1316.96 53.0597 1316.02 52.1477 1314.93 52.1477C1313.8 52.1477 1312.87 53.0597 1312.88 54.1761C1312.87 55.3097 1313.8 56.2216 1314.93 56.2216ZM1319.95 42.9091V56.5881C1319.95 57.5767 1319.54 58.071 1318.37 58.071C1318.21 58.071 1318.08 58.071 1317.89 58.054V60.892C1318.15 60.9006 1318.37 60.9091 1318.62 60.9091C1321.71 60.9091 1323.58 59.6818 1323.58 56.6477V42.9091H1319.95ZM1321.76 41.2216C1322.84 41.2216 1323.73 40.3949 1323.73 39.3807C1323.73 38.375 1322.84 37.5483 1321.76 37.5483C1320.69 37.5483 1319.8 38.375 1319.8 39.3807C1319.8 40.3949 1320.69 41.2216 1321.76 41.2216ZM1337.38 46.642C1337.06 44.2301 1335.12 42.7386 1331.81 42.7386C1328.46 42.7386 1326.25 44.2898 1326.26 46.8125C1326.25 48.7727 1327.49 50.0426 1330.05 50.554L1332.31 51.0057C1333.45 51.2358 1333.97 51.6534 1333.99 52.3097C1333.97 53.0852 1333.13 53.6392 1331.86 53.6392C1330.57 53.6392 1329.7 53.0852 1329.48 52.0199L1325.91 52.2074C1326.25 54.7131 1328.38 56.2557 1331.85 56.2557C1335.24 56.2557 1337.67 54.5256 1337.68 51.9432C1337.67 50.0511 1336.44 48.9176 1333.9 48.3977L1331.53 47.9205C1330.31 47.6562 1329.86 47.2386 1329.87 46.608C1329.86 45.8239 1330.74 45.3125 1331.87 45.3125C1333.13 45.3125 1333.88 46.0028 1334.06 46.8466L1337.38 46.642Z" fill="#8E8647"/>
<path d="M127.734 133.909H131.365V126.903H131.475C131.978 127.994 133.078 129.213 135.191 129.213C138.174 129.213 140.501 126.852 140.501 122.472C140.501 117.972 138.072 115.739 135.2 115.739C133.01 115.739 131.961 117.043 131.475 118.108H131.314V115.909H127.734V133.909ZM131.288 122.455C131.288 120.119 132.277 118.628 134.041 118.628C135.839 118.628 136.794 120.188 136.794 122.455C136.794 124.739 135.822 126.324 134.041 126.324C132.294 126.324 131.288 124.79 131.288 122.455ZM142.922 129H146.552V115.909H142.922V129ZM144.745 114.222C145.828 114.222 146.714 113.395 146.714 112.381C146.714 111.375 145.828 110.548 144.745 110.548C143.672 110.548 142.785 111.375 142.785 112.381C142.785 113.395 143.672 114.222 144.745 114.222ZM149.392 129H160.395V126.102H154.157V126.009L160.174 118.27V115.909H149.614V118.807H155.801V118.901L149.392 126.835V129ZM163.103 129H174.106V126.102H167.868V126.009L173.885 118.27V115.909H163.325V118.807H169.512V118.901L163.103 126.835V129ZM180.615 129.247C182.55 129.247 183.803 128.403 184.442 127.185H184.544V129H187.988V120.17C187.988 117.051 185.346 115.739 182.431 115.739C179.294 115.739 177.232 117.239 176.729 119.625L180.087 119.898C180.334 119.028 181.11 118.389 182.414 118.389C183.65 118.389 184.357 119.011 184.357 120.085V120.136C184.357 120.98 183.462 121.091 181.186 121.312C178.596 121.551 176.269 122.42 176.269 125.344C176.269 127.935 178.118 129.247 180.615 129.247ZM181.655 126.741C180.539 126.741 179.738 126.222 179.738 125.224C179.738 124.202 180.581 123.699 181.86 123.52C182.652 123.409 183.948 123.222 184.382 122.932V124.321C184.382 125.693 183.249 126.741 181.655 126.741ZM201.696 119.642C201.373 117.23 199.429 115.739 196.123 115.739C192.773 115.739 190.566 117.29 190.574 119.812C190.566 121.773 191.801 123.043 194.358 123.554L196.625 124.006C197.767 124.236 198.287 124.653 198.304 125.31C198.287 126.085 197.444 126.639 196.174 126.639C194.878 126.639 194.017 126.085 193.796 125.02L190.225 125.207C190.566 127.713 192.696 129.256 196.165 129.256C199.557 129.256 201.986 127.526 201.995 124.943C201.986 123.051 200.75 121.918 198.211 121.398L195.841 120.92C194.623 120.656 194.171 120.239 194.179 119.608C194.171 118.824 195.057 118.312 196.182 118.312C197.444 118.312 198.194 119.003 198.373 119.847L201.696 119.642ZM206.403 129.222C207.494 129.222 208.44 128.31 208.449 127.176C208.44 126.06 207.494 125.148 206.403 125.148C205.278 125.148 204.349 126.06 204.358 127.176C204.349 128.31 205.278 129.222 206.403 129.222ZM215.06 121.432C215.069 119.744 216.1 118.756 217.583 118.756C219.057 118.756 219.926 119.702 219.918 121.312V129H223.549V120.665C223.557 117.597 221.75 115.739 219.023 115.739C217.037 115.739 215.708 116.676 215.111 118.219H214.958V111.545H211.429V129H215.06V121.432ZM233.369 115.909H230.906V112.773H227.275V115.909H225.485V118.636H227.275V125.455C227.258 128.02 229.005 129.29 231.639 129.179C232.576 129.145 233.241 128.957 233.608 128.838L233.037 126.136C232.858 126.17 232.474 126.256 232.133 126.256C231.409 126.256 230.906 125.983 230.906 124.977V118.636H233.369V115.909ZM235.734 129H239.365V121.142C239.365 119.693 240.285 118.73 241.495 118.73C242.689 118.73 243.49 119.548 243.49 120.835V129H247.01V121.006C247.01 119.651 247.785 118.73 249.106 118.73C250.265 118.73 251.135 119.455 251.135 120.912V129H254.757V120.196C254.757 117.358 253.069 115.739 250.632 115.739C248.714 115.739 247.223 116.719 246.686 118.219H246.549C246.132 116.702 244.794 115.739 242.995 115.739C241.231 115.739 239.893 116.676 239.348 118.219H239.194V115.909H235.734V129ZM261.255 111.545H257.625V129H261.255V111.545Z" fill="#8D3B72"/>
<path d="M565.843 133.909H569.474V126.903H569.585C570.088 127.994 571.187 129.213 573.301 129.213C576.284 129.213 578.61 126.852 578.61 122.472C578.61 117.972 576.181 115.739 573.309 115.739C571.119 115.739 570.071 117.043 569.585 118.108H569.423V115.909H565.843V133.909ZM569.397 122.455C569.397 120.119 570.386 118.628 572.15 118.628C573.949 118.628 574.903 120.188 574.903 122.455C574.903 124.739 573.931 126.324 572.15 126.324C570.403 126.324 569.397 124.79 569.397 122.455ZM581.031 129H584.662V115.909H581.031V129ZM582.855 114.222C583.937 114.222 584.824 113.395 584.824 112.381C584.824 111.375 583.937 110.548 582.855 110.548C581.781 110.548 580.895 111.375 580.895 112.381C580.895 113.395 581.781 114.222 582.855 114.222ZM587.502 129H598.505V126.102H592.266V126.009L598.283 118.27V115.909H587.723V118.807H593.911V118.901L587.502 126.835V129ZM601.213 129H612.216V126.102H605.977V126.009L611.994 118.27V115.909H601.434V118.807H607.622V118.901L601.213 126.835V129ZM618.725 129.247C620.659 129.247 621.912 128.403 622.551 127.185H622.654V129H626.097V120.17C626.097 117.051 623.455 115.739 620.54 115.739C617.404 115.739 615.341 117.239 614.838 119.625L618.196 119.898C618.444 119.028 619.219 118.389 620.523 118.389C621.759 118.389 622.466 119.011 622.466 120.085V120.136C622.466 120.98 621.571 121.091 619.296 121.312C616.705 121.551 614.378 122.42 614.378 125.344C614.378 127.935 616.228 129.247 618.725 129.247ZM619.765 126.741C618.648 126.741 617.847 126.222 617.847 125.224C617.847 124.202 618.691 123.699 619.969 123.52C620.762 123.409 622.057 123.222 622.492 122.932V124.321C622.492 125.693 621.358 126.741 619.765 126.741ZM639.806 119.642C639.482 117.23 637.539 115.739 634.232 115.739C630.882 115.739 628.675 117.29 628.684 119.812C628.675 121.773 629.911 123.043 632.468 123.554L634.735 124.006C635.877 124.236 636.397 124.653 636.414 125.31C636.397 126.085 635.553 126.639 634.283 126.639C632.988 126.639 632.127 126.085 631.905 125.02L628.334 125.207C628.675 127.713 630.806 129.256 634.275 129.256C637.667 129.256 640.096 127.526 640.104 124.943C640.096 123.051 638.86 121.918 636.32 121.398L633.951 120.92C632.732 120.656 632.28 120.239 632.289 119.608C632.28 118.824 633.167 118.312 634.292 118.312C635.553 118.312 636.303 119.003 636.482 119.847L639.806 119.642ZM644.512 129.222C645.603 129.222 646.549 128.31 646.558 127.176C646.549 126.06 645.603 125.148 644.512 125.148C643.387 125.148 642.458 126.06 642.467 127.176C642.458 128.31 643.387 129.222 644.512 129.222ZM660.431 119.642C660.107 117.23 658.164 115.739 654.857 115.739C651.507 115.739 649.3 117.29 649.309 119.812C649.3 121.773 650.536 123.043 653.093 123.554L655.36 124.006C656.502 124.236 657.022 124.653 657.039 125.31C657.022 126.085 656.178 126.639 654.908 126.639C653.613 126.639 652.752 126.085 652.53 125.02L648.959 125.207C649.3 127.713 651.431 129.256 654.9 129.256C658.292 129.256 660.721 127.526 660.729 124.943C660.721 123.051 659.485 121.918 656.945 121.398L654.576 120.92C653.357 120.656 652.905 120.239 652.914 119.608C652.905 118.824 653.792 118.312 654.917 118.312C656.178 118.312 656.928 119.003 657.107 119.847L660.431 119.642ZM668.93 129.256C672.416 129.256 674.606 127.21 674.777 124.202H671.35C671.137 125.599 670.217 126.384 668.973 126.384C667.277 126.384 666.177 124.96 666.177 122.455C666.177 119.983 667.285 118.568 668.973 118.568C670.302 118.568 671.154 119.446 671.35 120.75H674.777C674.623 117.724 672.331 115.739 668.913 115.739C664.941 115.739 662.487 118.491 662.487 122.506C662.487 126.486 664.899 129.256 668.93 129.256ZM687.993 119.642C687.669 117.23 685.726 115.739 682.419 115.739C679.07 115.739 676.863 117.29 676.871 119.812C676.863 121.773 678.098 123.043 680.655 123.554L682.922 124.006C684.064 124.236 684.584 124.653 684.601 125.31C684.584 126.085 683.74 126.639 682.471 126.639C681.175 126.639 680.314 126.085 680.093 125.02L676.522 125.207C676.863 127.713 678.993 129.256 682.462 129.256C685.854 129.256 688.283 127.526 688.292 124.943C688.283 123.051 687.047 121.918 684.507 121.398L682.138 120.92C680.919 120.656 680.468 120.239 680.476 119.608C680.468 118.824 681.354 118.312 682.479 118.312C683.74 118.312 684.49 119.003 684.669 119.847L687.993 119.642ZM701.47 119.642C701.146 117.23 699.203 115.739 695.896 115.739C692.547 115.739 690.339 117.29 690.348 119.812C690.339 121.773 691.575 123.043 694.132 123.554L696.399 124.006C697.541 124.236 698.061 124.653 698.078 125.31C698.061 126.085 697.217 126.639 695.947 126.639C694.652 126.639 693.791 126.085 693.569 125.02L689.998 125.207C690.339 127.713 692.47 129.256 695.939 129.256C699.331 129.256 701.76 127.526 701.768 124.943C701.76 123.051 700.524 121.918 697.984 121.398L695.615 120.92C694.396 120.656 693.944 120.239 693.953 119.608C693.944 118.824 694.831 118.312 695.956 118.312C697.217 118.312 697.967 119.003 698.146 119.847L701.47 119.642Z" fill="#8D3B72"/>
<path d="M1021.24 133.909H1024.87V126.903H1024.98C1025.48 127.994 1026.58 129.213 1028.7 129.213C1031.68 129.213 1034 126.852 1034 122.472C1034 117.972 1031.58 115.739 1028.7 115.739C1026.51 115.739 1025.47 117.043 1024.98 118.108H1024.82V115.909H1021.24V133.909ZM1024.79 122.455C1024.79 120.119 1025.78 118.628 1027.54 118.628C1029.34 118.628 1030.3 120.188 1030.3 122.455C1030.3 124.739 1029.33 126.324 1027.54 126.324C1025.8 126.324 1024.79 124.79 1024.79 122.455ZM1036.43 129H1040.06V115.909H1036.43V129ZM1038.25 114.222C1039.33 114.222 1040.22 113.395 1040.22 112.381C1040.22 111.375 1039.33 110.548 1038.25 110.548C1037.18 110.548 1036.29 111.375 1036.29 112.381C1036.29 113.395 1037.18 114.222 1038.25 114.222ZM1042.9 129H1053.9V126.102H1047.66V126.009L1053.68 118.27V115.909H1043.12V118.807H1049.31V118.901L1042.9 126.835V129ZM1056.61 129H1067.61V126.102H1061.37V126.009L1067.39 118.27V115.909H1056.83V118.807H1063.02V118.901L1056.61 126.835V129ZM1074.12 129.247C1076.05 129.247 1077.31 128.403 1077.95 127.185H1078.05V129H1081.49V120.17C1081.49 117.051 1078.85 115.739 1075.93 115.739C1072.8 115.739 1070.74 117.239 1070.23 119.625L1073.59 119.898C1073.84 119.028 1074.61 118.389 1075.92 118.389C1077.15 118.389 1077.86 119.011 1077.86 120.085V120.136C1077.86 120.98 1076.97 121.091 1074.69 121.312C1072.1 121.551 1069.77 122.42 1069.77 125.344C1069.77 127.935 1071.62 129.247 1074.12 129.247ZM1075.16 126.741C1074.04 126.741 1073.24 126.222 1073.24 125.224C1073.24 124.202 1074.09 123.699 1075.36 123.52C1076.16 123.409 1077.45 123.222 1077.89 122.932V124.321C1077.89 125.693 1076.75 126.741 1075.16 126.741ZM1095.2 119.642C1094.88 117.23 1092.93 115.739 1089.63 115.739C1086.28 115.739 1084.07 117.29 1084.08 119.812C1084.07 121.773 1085.31 123.043 1087.86 123.554L1090.13 124.006C1091.27 124.236 1091.79 124.653 1091.81 125.31C1091.79 126.085 1090.95 126.639 1089.68 126.639C1088.38 126.639 1087.52 126.085 1087.3 125.02L1083.73 125.207C1084.07 127.713 1086.2 129.256 1089.67 129.256C1093.06 129.256 1095.49 127.526 1095.5 124.943C1095.49 123.051 1094.25 121.918 1091.71 121.398L1089.35 120.92C1088.13 120.656 1087.67 120.239 1087.68 119.608C1087.67 118.824 1088.56 118.312 1089.69 118.312C1090.95 118.312 1091.7 119.003 1091.88 119.847L1095.2 119.642ZM1099.91 129.222C1101 129.222 1101.94 128.31 1101.95 127.176C1101.94 126.06 1101 125.148 1099.91 125.148C1098.78 125.148 1097.85 126.06 1097.86 127.176C1097.85 128.31 1098.78 129.222 1099.91 129.222ZM1115.83 119.642C1115.5 117.23 1113.56 115.739 1110.25 115.739C1106.9 115.739 1104.69 117.29 1104.7 119.812C1104.69 121.773 1105.93 123.043 1108.49 123.554L1110.75 124.006C1111.9 124.236 1112.42 124.653 1112.43 125.31C1112.42 126.085 1111.57 126.639 1110.3 126.639C1109.01 126.639 1108.15 126.085 1107.92 125.02L1104.35 125.207C1104.69 127.713 1106.83 129.256 1110.29 129.256C1113.69 129.256 1116.12 127.526 1116.12 124.943C1116.12 123.051 1114.88 121.918 1112.34 121.398L1109.97 120.92C1108.75 120.656 1108.3 120.239 1108.31 119.608C1108.3 118.824 1109.19 118.312 1110.31 118.312C1111.57 118.312 1112.32 119.003 1112.5 119.847L1115.83 119.642ZM1125.37 115.909H1122.91V112.773H1119.28V115.909H1117.49V118.636H1119.28V125.455C1119.26 128.02 1121.01 129.29 1123.64 129.179C1124.58 129.145 1125.25 128.957 1125.61 128.838L1125.04 126.136C1124.86 126.17 1124.48 126.256 1124.14 126.256C1123.41 126.256 1122.91 125.983 1122.91 124.977V118.636H1125.37V115.909ZM1133.51 129.256C1137.48 129.256 1139.96 126.537 1139.96 122.506C1139.96 118.449 1137.48 115.739 1133.51 115.739C1129.54 115.739 1127.07 118.449 1127.07 122.506C1127.07 126.537 1129.54 129.256 1133.51 129.256ZM1133.53 126.443C1131.7 126.443 1130.76 124.764 1130.76 122.48C1130.76 120.196 1131.7 118.509 1133.53 118.509C1135.33 118.509 1136.26 120.196 1136.26 122.48C1136.26 124.764 1135.33 126.443 1133.53 126.443ZM1142.32 129H1145.95V121.594C1145.95 119.983 1147.12 118.875 1148.73 118.875C1149.23 118.875 1149.92 118.96 1150.26 119.071V115.849C1149.94 115.773 1149.48 115.722 1149.12 115.722C1147.65 115.722 1146.45 116.574 1145.97 118.193H1145.84V115.909H1142.32V129ZM1152.14 129H1155.77V115.909H1152.14V129ZM1153.96 114.222C1155.04 114.222 1155.93 113.395 1155.93 112.381C1155.93 111.375 1155.04 110.548 1153.96 110.548C1152.89 110.548 1152 111.375 1152 112.381C1152 113.395 1152.89 114.222 1153.96 114.222ZM1164.64 129.256C1167.88 129.256 1170.06 127.679 1170.57 125.25L1167.22 125.028C1166.85 126.026 1165.91 126.545 1164.7 126.545C1162.89 126.545 1161.74 125.344 1161.74 123.392V123.384H1170.65V122.386C1170.65 117.938 1167.96 115.739 1164.5 115.739C1160.64 115.739 1158.15 118.474 1158.15 122.514C1158.15 126.665 1160.61 129.256 1164.64 129.256ZM1161.74 121.134C1161.81 119.642 1162.95 118.449 1164.56 118.449C1166.13 118.449 1167.22 119.574 1167.23 121.134H1161.74ZM1183.91 119.642C1183.59 117.23 1181.64 115.739 1178.34 115.739C1174.99 115.739 1172.78 117.29 1172.79 119.812C1172.78 121.773 1174.02 123.043 1176.57 123.554L1178.84 124.006C1179.98 124.236 1180.5 124.653 1180.52 125.31C1180.5 126.085 1179.66 126.639 1178.39 126.639C1177.09 126.639 1176.23 126.085 1176.01 125.02L1172.44 125.207C1172.78 127.713 1174.91 129.256 1178.38 129.256C1181.77 129.256 1184.2 127.526 1184.21 124.943C1184.2 123.051 1182.97 121.918 1180.43 121.398L1178.06 120.92C1176.84 120.656 1176.39 120.239 1176.39 119.608C1176.39 118.824 1177.27 118.312 1178.4 118.312C1179.66 118.312 1180.41 119.003 1180.59 119.847L1183.91 119.642ZM1188.62 129.222C1189.71 129.222 1190.65 128.31 1190.66 127.176C1190.65 126.06 1189.71 125.148 1188.62 125.148C1187.49 125.148 1186.56 126.06 1186.57 127.176C1186.56 128.31 1187.49 129.222 1188.62 129.222ZM1193.64 115.909V129.588C1193.64 130.577 1193.23 131.071 1192.06 131.071C1191.91 131.071 1191.77 131.071 1191.58 131.054V133.892C1191.85 133.901 1192.06 133.909 1192.31 133.909C1195.4 133.909 1197.27 132.682 1197.27 129.648V115.909H1193.64ZM1195.45 114.222C1196.53 114.222 1197.42 113.395 1197.42 112.381C1197.42 111.375 1196.53 110.548 1195.45 110.548C1194.38 110.548 1193.49 111.375 1193.49 112.381C1193.49 113.395 1194.38 114.222 1195.45 114.222ZM1211.08 119.642C1210.75 117.23 1208.81 115.739 1205.5 115.739C1202.15 115.739 1199.94 117.29 1199.95 119.812C1199.94 121.773 1201.18 123.043 1203.74 123.554L1206 124.006C1207.15 124.236 1207.67 124.653 1207.68 125.31C1207.67 126.085 1206.82 126.639 1205.55 126.639C1204.26 126.639 1203.4 126.085 1203.17 125.02L1199.6 125.207C1199.94 127.713 1202.08 129.256 1205.54 129.256C1208.94 129.256 1211.37 127.526 1211.37 124.943C1211.37 123.051 1210.13 121.918 1207.59 121.398L1205.22 120.92C1204 120.656 1203.55 120.239 1203.56 119.608C1203.55 118.824 1204.44 118.312 1205.56 118.312C1206.82 118.312 1207.57 119.003 1207.75 119.847L1211.08 119.642Z" fill="#8D3B72"/>
</svg>
