<svg width="1308" height="768" viewBox="0 0 1308 768" fill="none" xmlns="http://www.w3.org/2000/svg">
<rect width="1308" height="768" fill="white"/>
<path d="M98.7727 154.114H116.705V146.864H108.136V103.818H116.705V96.5909H98.7727V154.114ZM122.051 144H131.733V123.045C131.733 119.182 134.188 116.614 137.415 116.614C140.597 116.614 142.733 118.795 142.733 122.227V144H152.119V122.682C152.119 119.068 154.188 116.614 157.71 116.614C160.801 116.614 163.119 118.545 163.119 122.432V144H172.778V120.523C172.778 112.955 168.278 108.636 161.778 108.636C156.665 108.636 152.688 111.25 151.256 115.25H150.892C149.778 111.205 146.21 108.636 141.415 108.636C136.71 108.636 133.142 111.136 131.688 115.25H131.278V109.091H122.051V144ZM196.335 144.682C204.972 144.682 210.79 140.477 212.153 134L203.199 133.409C202.222 136.068 199.722 137.455 196.494 137.455C191.653 137.455 188.585 134.25 188.585 129.045V129.023H212.358V126.364C212.358 114.5 205.176 108.636 195.949 108.636C185.676 108.636 179.017 115.932 179.017 126.705C179.017 137.773 185.585 144.682 196.335 144.682ZM188.585 123.023C188.79 119.045 191.812 115.864 196.108 115.864C200.312 115.864 203.222 118.864 203.244 123.023H188.585ZM237.244 109.091H230.676V100.727H220.994V109.091H216.222V116.364H220.994V134.545C220.949 141.386 225.608 144.773 232.631 144.477C235.131 144.386 236.903 143.886 237.881 143.568L236.358 136.364C235.881 136.455 234.858 136.682 233.949 136.682C232.017 136.682 230.676 135.955 230.676 133.273V116.364H237.244V109.091ZM253.506 144.659C258.665 144.659 262.006 142.409 263.71 139.159H263.983V144H273.165V120.455C273.165 112.136 266.119 108.636 258.347 108.636C249.983 108.636 244.483 112.636 243.142 119L252.097 119.727C252.756 117.409 254.824 115.705 258.301 115.705C261.597 115.705 263.483 117.364 263.483 120.227V120.364C263.483 122.614 261.097 122.909 255.028 123.5C248.119 124.136 241.915 126.455 241.915 134.25C241.915 141.159 246.847 144.659 253.506 144.659ZM256.278 137.977C253.301 137.977 251.165 136.591 251.165 133.932C251.165 131.205 253.415 129.864 256.824 129.386C258.938 129.091 262.392 128.591 263.551 127.818V131.523C263.551 135.182 260.528 137.977 256.278 137.977ZM296.222 96.5682H278.29V103.818H286.858V146.864H278.29V154.091H296.222V96.5682Z" fill="#FE7F2D"/>
<path d="M545.835 115.312C544.864 107.25 538.761 102.614 530.682 102.614C521.46 102.614 514.42 109.125 514.42 120.545C514.42 131.932 521.341 138.477 530.682 138.477C539.631 138.477 545.034 132.528 545.835 126.102L538.369 126.068C537.67 129.801 534.739 131.949 530.801 131.949C525.5 131.949 521.903 128.011 521.903 120.545C521.903 113.284 525.449 109.142 530.852 109.142C534.892 109.142 537.807 111.477 538.369 115.312H545.835ZM558.253 103.091H550.991V138H558.253V103.091ZM575.899 138.511C583.842 138.511 588.786 133.074 588.786 125.011C588.786 116.898 583.842 111.477 575.899 111.477C567.956 111.477 563.013 116.898 563.013 125.011C563.013 133.074 567.956 138.511 575.899 138.511ZM575.933 132.886C572.268 132.886 570.393 129.528 570.393 124.96C570.393 120.392 572.268 117.017 575.933 117.017C579.53 117.017 581.405 120.392 581.405 124.96C581.405 129.528 579.53 132.886 575.933 132.886ZM610.297 126.852C610.314 130.364 607.911 132.205 605.303 132.205C602.558 132.205 600.786 130.278 600.768 127.193V111.818H593.507V128.489C593.524 134.608 597.104 138.341 602.371 138.341C606.308 138.341 609.138 136.312 610.314 133.244H610.587V138H617.558V111.818H610.297V126.852ZM633.014 138.426C637.241 138.426 639.44 135.989 640.446 133.807H640.753V138H647.912V103.091H640.668V116.216H640.446C639.474 114.085 637.378 111.477 632.997 111.477C627.253 111.477 622.395 115.943 622.395 124.943C622.395 133.705 627.048 138.426 633.014 138.426ZM635.315 132.648C631.753 132.648 629.81 129.477 629.81 124.909C629.81 120.375 631.719 117.256 635.315 117.256C638.844 117.256 640.821 120.239 640.821 124.909C640.821 129.58 638.81 132.648 635.315 132.648ZM684.82 115.312C683.848 107.25 677.746 102.614 669.666 102.614C660.445 102.614 653.405 109.125 653.405 120.545C653.405 131.932 660.325 138.477 669.666 138.477C678.615 138.477 684.018 132.528 684.82 126.102L677.354 126.068C676.655 129.801 673.723 131.949 669.786 131.949C664.484 131.949 660.888 128.011 660.888 120.545C660.888 113.284 664.433 109.142 669.837 109.142C673.876 109.142 676.791 111.477 677.354 115.312H684.82ZM697.442 138.494C701.311 138.494 703.817 136.807 705.095 134.369H705.3V138H712.186V120.341C712.186 114.102 706.902 111.477 701.072 111.477C694.8 111.477 690.675 114.477 689.669 119.25L696.385 119.795C696.879 118.057 698.43 116.778 701.038 116.778C703.51 116.778 704.925 118.023 704.925 120.17V120.273C704.925 121.96 703.135 122.182 698.584 122.625C693.402 123.102 688.749 124.841 688.749 130.688C688.749 135.869 692.447 138.494 697.442 138.494ZM699.521 133.483C697.288 133.483 695.686 132.443 695.686 130.449C695.686 128.403 697.374 127.398 699.93 127.04C701.516 126.818 704.107 126.443 704.976 125.864V128.642C704.976 131.386 702.709 133.483 699.521 133.483ZM725.081 122.864C725.098 119.489 727.109 117.511 730.041 117.511C732.956 117.511 734.712 119.42 734.695 122.625V138H741.956V121.33C741.956 115.227 738.376 111.477 732.922 111.477C729.036 111.477 726.223 113.386 725.047 116.438H724.74V111.818H717.82V138H725.081V122.864ZM754.94 122.864C754.957 119.489 756.969 117.511 759.901 117.511C762.815 117.511 764.571 119.42 764.554 122.625V138H771.815V121.33C771.815 115.227 768.236 111.477 762.781 111.477C758.895 111.477 756.082 113.386 754.906 116.438H754.599V111.818H747.679V138H754.94V122.864ZM789.368 138.511C797.311 138.511 802.254 133.074 802.254 125.011C802.254 116.898 797.311 111.477 789.368 111.477C781.425 111.477 776.482 116.898 776.482 125.011C776.482 133.074 781.425 138.511 789.368 138.511ZM789.402 132.886C785.737 132.886 783.862 129.528 783.862 124.96C783.862 120.392 785.737 117.017 789.402 117.017C792.999 117.017 794.874 120.392 794.874 124.96C794.874 129.528 792.999 132.886 789.402 132.886ZM814.237 122.864C814.254 119.489 816.266 117.511 819.197 117.511C822.112 117.511 823.868 119.42 823.851 122.625V138H831.112V121.33C831.112 115.227 827.533 111.477 822.078 111.477C818.192 111.477 815.379 113.386 814.203 116.438H813.896V111.818H806.976V138H814.237V122.864ZM869.729 119.284C869.081 114.46 865.195 111.477 858.581 111.477C851.882 111.477 847.467 114.58 847.484 119.625C847.467 123.545 849.939 126.085 855.053 127.108L859.587 128.011C861.871 128.472 862.911 129.307 862.945 130.619C862.911 132.17 861.223 133.278 858.683 133.278C856.092 133.278 854.371 132.17 853.928 130.04L846.786 130.415C847.467 135.426 851.729 138.511 858.666 138.511C865.45 138.511 870.308 135.051 870.325 129.886C870.308 126.102 867.837 123.835 862.757 122.795L858.018 121.841C855.581 121.312 854.678 120.477 854.695 119.216C854.678 117.648 856.45 116.625 858.7 116.625C861.223 116.625 862.723 118.006 863.081 119.693L869.729 119.284ZM874.898 147.818H882.159V133.807H882.381C883.386 135.989 885.585 138.426 889.812 138.426C895.778 138.426 900.432 133.705 900.432 124.943C900.432 115.943 895.574 111.477 889.83 111.477C885.449 111.477 883.352 114.085 882.381 116.216H882.057V111.818H874.898V147.818ZM882.006 124.909C882.006 120.239 883.983 117.256 887.511 117.256C891.108 117.256 893.017 120.375 893.017 124.909C893.017 129.477 891.074 132.648 887.511 132.648C884.017 132.648 882.006 129.58 882.006 124.909ZM917.205 138.511C923.682 138.511 928.045 135.358 929.068 130.5L922.352 130.057C921.619 132.051 919.744 133.091 917.324 133.091C913.693 133.091 911.392 130.688 911.392 126.784V126.767H929.222V124.773C929.222 115.875 923.835 111.477 916.915 111.477C909.21 111.477 904.216 116.949 904.216 125.028C904.216 133.33 909.142 138.511 917.205 138.511ZM911.392 122.267C911.545 119.284 913.812 116.898 917.034 116.898C920.188 116.898 922.369 119.148 922.386 122.267H911.392ZM945.79 138.511C952.761 138.511 957.142 134.42 957.483 128.403H950.631C950.205 131.199 948.364 132.767 945.875 132.767C942.483 132.767 940.284 129.92 940.284 124.909C940.284 119.966 942.5 117.136 945.875 117.136C948.534 117.136 950.239 118.892 950.631 121.5H957.483C957.176 115.449 952.591 111.477 945.756 111.477C937.812 111.477 932.903 116.983 932.903 125.011C932.903 132.972 937.727 138.511 945.79 138.511ZM962.132 138H969.393V111.818H962.132V138ZM965.78 108.443C967.945 108.443 969.717 106.79 969.717 104.761C969.717 102.75 967.945 101.097 965.78 101.097C963.632 101.097 961.859 102.75 961.859 104.761C961.859 106.79 963.632 108.443 965.78 108.443ZM989.29 111.818H984.091V110.062C984.091 108.29 984.807 107.25 986.938 107.25C987.807 107.25 988.693 107.438 989.273 107.625L990.551 102.17C989.648 101.898 987.653 101.455 985.42 101.455C980.494 101.455 976.83 104.233 976.83 109.926V111.818H973.131V117.273H976.83V138H984.091V117.273H989.29V111.818ZM993.726 138H1000.99V111.818H993.726V138ZM997.374 108.443C999.538 108.443 1001.31 106.79 1001.31 104.761C1001.31 102.75 999.538 101.097 997.374 101.097C995.226 101.097 993.453 102.75 993.453 104.761C993.453 106.79 995.226 108.443 997.374 108.443ZM1018.63 138.511C1025.61 138.511 1029.99 134.42 1030.33 128.403H1023.47C1023.05 131.199 1021.21 132.767 1018.72 132.767C1015.33 132.767 1013.13 129.92 1013.13 124.909C1013.13 119.966 1015.34 117.136 1018.72 117.136C1021.38 117.136 1023.08 118.892 1023.47 121.5H1030.33C1030.02 115.449 1025.43 111.477 1018.6 111.477C1010.66 111.477 1005.75 116.983 1005.75 125.011C1005.75 132.972 1010.57 138.511 1018.63 138.511ZM1057.91 138.511C1064.89 138.511 1069.27 134.42 1069.61 128.403H1062.76C1062.33 131.199 1060.49 132.767 1058 132.767C1054.61 132.767 1052.41 129.92 1052.41 124.909C1052.41 119.966 1054.62 117.136 1058 117.136C1060.66 117.136 1062.36 118.892 1062.76 121.5H1069.61C1069.3 115.449 1064.72 111.477 1057.88 111.477C1049.94 111.477 1045.03 116.983 1045.03 125.011C1045.03 132.972 1049.85 138.511 1057.91 138.511ZM1086.09 138.511C1094.03 138.511 1098.97 133.074 1098.97 125.011C1098.97 116.898 1094.03 111.477 1086.09 111.477C1078.14 111.477 1073.2 116.898 1073.2 125.011C1073.2 133.074 1078.14 138.511 1086.09 138.511ZM1086.12 132.886C1082.46 132.886 1080.58 129.528 1080.58 124.96C1080.58 120.392 1082.46 117.017 1086.12 117.017C1089.72 117.017 1091.59 120.392 1091.59 124.96C1091.59 129.528 1089.72 132.886 1086.12 132.886ZM1110.96 122.864C1110.97 119.489 1112.98 117.511 1115.92 117.511C1118.83 117.511 1120.59 119.42 1120.57 122.625V138H1127.83V121.33C1127.83 115.227 1124.25 111.477 1118.8 111.477C1114.91 111.477 1112.1 113.386 1110.92 116.438H1110.62V111.818H1103.69V138H1110.96V122.864ZM1147.63 111.818H1142.43V110.062C1142.43 108.29 1143.15 107.25 1145.28 107.25C1146.15 107.25 1147.04 107.438 1147.62 107.625L1148.89 102.17C1147.99 101.898 1146 101.455 1143.76 101.455C1138.84 101.455 1135.17 104.233 1135.17 109.926V111.818H1131.47V117.273H1135.17V138H1142.43V117.273H1147.63V111.818ZM1152.07 138H1159.33V111.818H1152.07V138ZM1155.72 108.443C1157.88 108.443 1159.65 106.79 1159.65 104.761C1159.65 102.75 1157.88 101.097 1155.72 101.097C1153.57 101.097 1151.8 102.75 1151.8 104.761C1151.8 106.79 1153.57 108.443 1155.72 108.443ZM1176.94 148.364C1184.43 148.364 1189.74 144.955 1189.74 138.256V111.818H1182.53V116.216H1182.26C1181.29 114.085 1179.16 111.477 1174.78 111.477C1169.03 111.477 1164.18 115.943 1164.18 124.858C1164.18 133.568 1168.9 137.625 1174.8 137.625C1178.97 137.625 1181.31 135.528 1182.26 133.364H1182.57V138.153C1182.57 141.75 1180.27 143.148 1177.11 143.148C1173.91 143.148 1172.29 141.75 1171.69 140.165L1164.98 141.068C1165.85 145.193 1169.89 148.364 1176.94 148.364ZM1177.1 132.17C1173.53 132.17 1171.59 129.341 1171.59 124.824C1171.59 120.375 1173.5 117.256 1177.1 117.256C1180.62 117.256 1182.6 120.239 1182.6 124.824C1182.6 129.443 1180.59 132.17 1177.1 132.17Z" fill="black"/>
<path d="M98.7727 330.114H116.705V322.864H108.136V279.818H116.705V272.591H98.7727V330.114ZM134.602 320.568C140.239 320.568 143.17 317.318 144.511 314.409H144.92V320H154.466V273.455H144.807V290.955H144.511C143.216 288.114 140.42 284.636 134.58 284.636C126.92 284.636 120.443 290.591 120.443 302.591C120.443 314.273 126.648 320.568 134.602 320.568ZM137.67 312.864C132.92 312.864 130.33 308.636 130.33 302.545C130.33 296.5 132.875 292.341 137.67 292.341C142.375 292.341 145.011 296.318 145.011 302.545C145.011 308.773 142.33 312.864 137.67 312.864ZM178.335 320.682C186.972 320.682 192.79 316.477 194.153 310L185.199 309.409C184.222 312.068 181.722 313.455 178.494 313.455C173.653 313.455 170.585 310.25 170.585 305.045V305.023H194.358V302.364C194.358 290.5 187.176 284.636 177.949 284.636C167.676 284.636 161.017 291.932 161.017 302.705C161.017 313.773 167.585 320.682 178.335 320.682ZM170.585 299.023C170.79 295.045 173.812 291.864 178.108 291.864C182.312 291.864 185.222 294.864 185.244 299.023H170.585ZM219.449 285.091H212.517V282.75C212.517 280.386 213.472 279 216.312 279C217.472 279 218.653 279.25 219.426 279.5L221.131 272.227C219.926 271.864 217.267 271.273 214.29 271.273C207.722 271.273 202.835 274.977 202.835 282.568V285.091H197.903V292.364H202.835V320H212.517V292.364H219.449V285.091ZM234.068 320.659C239.227 320.659 242.568 318.409 244.273 315.159H244.545V320H253.727V296.455C253.727 288.136 246.682 284.636 238.909 284.636C230.545 284.636 225.045 288.636 223.705 295L232.659 295.727C233.318 293.409 235.386 291.705 238.864 291.705C242.159 291.705 244.045 293.364 244.045 296.227V296.364C244.045 298.614 241.659 298.909 235.591 299.5C228.682 300.136 222.477 302.455 222.477 310.25C222.477 317.159 227.409 320.659 234.068 320.659ZM236.841 313.977C233.864 313.977 231.727 312.591 231.727 309.932C231.727 307.205 233.977 305.864 237.386 305.386C239.5 305.091 242.955 304.591 244.114 303.818V307.523C244.114 311.182 241.091 313.977 236.841 313.977ZM283.625 305.136C283.648 309.818 280.443 312.273 276.966 312.273C273.307 312.273 270.943 309.705 270.92 305.591V285.091H261.239V307.318C261.261 315.477 266.034 320.455 273.057 320.455C278.307 320.455 282.08 317.75 283.648 313.659H284.011V320H293.307V285.091H283.625V305.136ZM310.733 273.455H301.051V320H310.733V273.455ZM337.057 285.091H330.489V276.727H320.807V285.091H316.034V292.364H320.807V310.545C320.761 317.386 325.42 320.773 332.443 320.477C334.943 320.386 336.716 319.886 337.693 319.568L336.17 312.364C335.693 312.455 334.67 312.682 333.761 312.682C331.83 312.682 330.489 311.955 330.489 309.273V292.364H337.057V285.091ZM371.909 295.045C371.045 288.614 365.864 284.636 357.045 284.636C348.114 284.636 342.227 288.773 342.25 295.5C342.227 300.727 345.523 304.114 352.341 305.477L358.386 306.682C361.432 307.295 362.818 308.409 362.864 310.159C362.818 312.227 360.568 313.705 357.182 313.705C353.727 313.705 351.432 312.227 350.841 309.386L341.318 309.886C342.227 316.568 347.909 320.682 357.159 320.682C366.205 320.682 372.682 316.068 372.705 309.182C372.682 304.136 369.386 301.114 362.614 299.727L356.295 298.455C353.045 297.75 351.841 296.636 351.864 294.955C351.841 292.864 354.205 291.5 357.205 291.5C360.568 291.5 362.568 293.341 363.045 295.591L371.909 295.045ZM394.347 272.568H376.415V279.818H384.983V322.864H376.415V330.091H394.347V272.568Z" fill="#FE7F2D"/>
<path d="M515.034 279.091V314H522.193V291.193H522.483L531.517 313.83H536.392L545.426 291.278H545.716V314H552.875V279.091H543.773L534.159 302.545H533.75L524.136 279.091H515.034ZM566.286 314.494C570.155 314.494 572.661 312.807 573.939 310.369H574.143V314H581.03V296.341C581.03 290.102 575.746 287.477 569.916 287.477C563.643 287.477 559.518 290.477 558.513 295.25L565.229 295.795C565.723 294.057 567.274 292.778 569.882 292.778C572.354 292.778 573.768 294.023 573.768 296.17V296.273C573.768 297.96 571.979 298.182 567.428 298.625C562.246 299.102 557.592 300.841 557.592 306.688C557.592 311.869 561.291 314.494 566.286 314.494ZM568.365 309.483C566.132 309.483 564.53 308.443 564.53 306.449C564.53 304.403 566.217 303.398 568.774 303.04C570.359 302.818 572.95 302.443 573.82 301.864V304.642C573.82 307.386 571.553 309.483 568.365 309.483ZM586.663 314H593.925V287.818H586.663V314ZM590.311 284.443C592.476 284.443 594.249 282.79 594.249 280.761C594.249 278.75 592.476 277.097 590.311 277.097C588.163 277.097 586.391 278.75 586.391 280.761C586.391 282.79 588.163 284.443 590.311 284.443ZM607.003 298.864C607.02 295.489 609.031 293.511 611.963 293.511C614.878 293.511 616.634 295.42 616.616 298.625V314H623.878V297.33C623.878 291.227 620.298 287.477 614.844 287.477C610.957 287.477 608.145 289.386 606.969 292.438H606.662V287.818H599.741V314H607.003V298.864ZM652.54 314.511C659.511 314.511 663.892 310.42 664.233 304.403H657.381C656.955 307.199 655.114 308.767 652.625 308.767C649.233 308.767 647.034 305.92 647.034 300.909C647.034 295.966 649.25 293.136 652.625 293.136C655.284 293.136 656.989 294.892 657.381 297.5H664.233C663.926 291.449 659.341 287.477 652.506 287.477C644.562 287.477 639.653 292.983 639.653 301.011C639.653 308.972 644.477 314.511 652.54 314.511ZM680.712 314.511C688.655 314.511 693.598 309.074 693.598 301.011C693.598 292.898 688.655 287.477 680.712 287.477C672.768 287.477 667.825 292.898 667.825 301.011C667.825 309.074 672.768 314.511 680.712 314.511ZM680.746 308.886C677.081 308.886 675.206 305.528 675.206 300.96C675.206 296.392 677.081 293.017 680.746 293.017C684.342 293.017 686.217 296.392 686.217 300.96C686.217 305.528 684.342 308.886 680.746 308.886ZM698.32 314H705.581V298.284C705.581 295.386 707.422 293.46 709.842 293.46C712.229 293.46 713.831 295.097 713.831 297.67V314H720.871V298.011C720.871 295.301 722.422 293.46 725.064 293.46C727.382 293.46 729.121 294.909 729.121 297.824V314H736.365V296.392C736.365 290.716 732.99 287.477 728.115 287.477C724.28 287.477 721.297 289.438 720.223 292.438H719.95C719.115 289.403 716.439 287.477 712.842 287.477C709.314 287.477 706.638 289.352 705.547 292.438H705.24V287.818H698.32V314ZM742.101 323.818H749.362V309.807H749.584C750.589 311.989 752.788 314.426 757.016 314.426C762.982 314.426 767.635 309.705 767.635 300.943C767.635 291.943 762.777 287.477 757.033 287.477C752.652 287.477 750.555 290.085 749.584 292.216H749.26V287.818H742.101V323.818ZM749.209 300.909C749.209 296.239 751.186 293.256 754.714 293.256C758.311 293.256 760.22 296.375 760.22 300.909C760.22 305.477 758.277 308.648 754.714 308.648C751.22 308.648 749.209 305.58 749.209 300.909ZM784.305 314.511C792.249 314.511 797.192 309.074 797.192 301.011C797.192 292.898 792.249 287.477 784.305 287.477C776.362 287.477 771.419 292.898 771.419 301.011C771.419 309.074 776.362 314.511 784.305 314.511ZM784.339 308.886C780.675 308.886 778.8 305.528 778.8 300.96C778.8 296.392 780.675 293.017 784.339 293.017C787.936 293.017 789.811 296.392 789.811 300.96C789.811 305.528 787.936 308.886 784.339 308.886ZM809.175 298.864C809.192 295.489 811.203 293.511 814.135 293.511C817.05 293.511 818.805 295.42 818.788 298.625V314H826.05V297.33C826.05 291.227 822.47 287.477 817.016 287.477C813.129 287.477 810.317 289.386 809.141 292.438H808.834V287.818H801.913V314H809.175V298.864ZM843.705 314.511C850.182 314.511 854.545 311.358 855.568 306.5L848.852 306.057C848.119 308.051 846.244 309.091 843.824 309.091C840.193 309.091 837.892 306.688 837.892 302.784V302.767H855.722V300.773C855.722 291.875 850.335 287.477 843.415 287.477C835.71 287.477 830.716 292.949 830.716 301.028C830.716 309.33 835.642 314.511 843.705 314.511ZM837.892 298.267C838.045 295.284 840.312 292.898 843.534 292.898C846.688 292.898 848.869 295.148 848.886 298.267H837.892ZM867.722 298.864C867.739 295.489 869.75 293.511 872.682 293.511C875.597 293.511 877.352 295.42 877.335 298.625V314H884.597V297.33C884.597 291.227 881.017 287.477 875.562 287.477C871.676 287.477 868.864 289.386 867.688 292.438H867.381V287.818H860.46V314H867.722V298.864ZM904.246 287.818H899.32V281.545H892.058V287.818H888.479V293.273H892.058V306.909C892.024 312.04 895.518 314.58 900.786 314.358C902.661 314.29 903.99 313.915 904.723 313.676L903.581 308.273C903.223 308.341 902.456 308.511 901.774 308.511C900.325 308.511 899.32 307.966 899.32 305.955V293.273H904.246V287.818ZM920.085 323.818H927.347V309.807H927.568C928.574 311.989 930.773 314.426 935 314.426C940.966 314.426 945.619 309.705 945.619 300.943C945.619 291.943 940.761 287.477 935.017 287.477C930.636 287.477 928.54 290.085 927.568 292.216H927.244V287.818H920.085V323.818ZM927.193 300.909C927.193 296.239 929.17 293.256 932.699 293.256C936.295 293.256 938.205 296.375 938.205 300.909C938.205 305.477 936.261 308.648 932.699 308.648C929.205 308.648 927.193 305.58 927.193 300.909ZM950.46 314H957.722V299.188C957.722 295.966 960.074 293.75 963.278 293.75C964.284 293.75 965.665 293.92 966.347 294.142V287.699C965.699 287.545 964.795 287.443 964.062 287.443C961.131 287.443 958.727 289.148 957.773 292.386H957.5V287.818H950.46V314ZM980.712 314.511C988.655 314.511 993.598 309.074 993.598 301.011C993.598 292.898 988.655 287.477 980.712 287.477C972.768 287.477 967.825 292.898 967.825 301.011C967.825 309.074 972.768 314.511 980.712 314.511ZM980.746 308.886C977.081 308.886 975.206 305.528 975.206 300.96C975.206 296.392 977.081 293.017 980.746 293.017C984.342 293.017 986.217 296.392 986.217 300.96C986.217 305.528 984.342 308.886 980.746 308.886ZM998.32 323.818H1005.58V309.807H1005.8C1006.81 311.989 1009.01 314.426 1013.23 314.426C1019.2 314.426 1023.85 309.705 1023.85 300.943C1023.85 291.943 1019 287.477 1013.25 287.477C1008.87 287.477 1006.77 290.085 1005.8 292.216H1005.48V287.818H998.32V323.818ZM1005.43 300.909C1005.43 296.239 1007.4 293.256 1010.93 293.256C1014.53 293.256 1016.44 296.375 1016.44 300.909C1016.44 305.477 1014.5 308.648 1010.93 308.648C1007.44 308.648 1005.43 305.58 1005.43 300.909ZM1050.48 295.284C1049.83 290.46 1045.94 287.477 1039.33 287.477C1032.63 287.477 1028.22 290.58 1028.23 295.625C1028.22 299.545 1030.69 302.085 1035.8 303.108L1040.34 304.011C1042.62 304.472 1043.66 305.307 1043.69 306.619C1043.66 308.17 1041.97 309.278 1039.43 309.278C1036.84 309.278 1035.12 308.17 1034.68 306.04L1027.54 306.415C1028.22 311.426 1032.48 314.511 1039.42 314.511C1046.2 314.511 1051.06 311.051 1051.08 305.886C1051.06 302.102 1048.59 299.835 1043.51 298.795L1038.77 297.841C1036.33 297.312 1035.43 296.477 1035.44 295.216C1035.43 293.648 1037.2 292.625 1039.45 292.625C1041.97 292.625 1043.47 294.006 1043.83 295.693L1050.48 295.284Z" fill="black"/>
<path d="M98.7727 506.114H116.705V498.864H108.136V455.818H116.705V448.591H98.7727V506.114ZM151.097 471.045C150.233 464.614 145.051 460.636 136.233 460.636C127.301 460.636 121.415 464.773 121.438 471.5C121.415 476.727 124.71 480.114 131.528 481.477L137.574 482.682C140.619 483.295 142.006 484.409 142.051 486.159C142.006 488.227 139.756 489.705 136.369 489.705C132.915 489.705 130.619 488.227 130.028 485.386L120.506 485.886C121.415 492.568 127.097 496.682 136.347 496.682C145.392 496.682 151.869 492.068 151.892 485.182C151.869 480.136 148.574 477.114 141.801 475.727L135.483 474.455C132.233 473.75 131.028 472.636 131.051 470.955C131.028 468.864 133.392 467.5 136.392 467.5C139.756 467.5 141.756 469.341 142.233 471.591L151.097 471.045ZM176.557 461.091H169.989V452.727H160.307V461.091H155.534V468.364H160.307V486.545C160.261 493.386 164.92 496.773 171.943 496.477C174.443 496.386 176.216 495.886 177.193 495.568L175.67 488.364C175.193 488.455 174.17 488.682 173.261 488.682C171.33 488.682 169.989 487.955 169.989 485.273V468.364H176.557V461.091ZM192.818 496.659C197.977 496.659 201.318 494.409 203.023 491.159H203.295V496H212.477V472.455C212.477 464.136 205.432 460.636 197.659 460.636C189.295 460.636 183.795 464.636 182.455 471L191.409 471.727C192.068 469.409 194.136 467.705 197.614 467.705C200.909 467.705 202.795 469.364 202.795 472.227V472.364C202.795 474.614 200.409 474.909 194.341 475.5C187.432 476.136 181.227 478.455 181.227 486.25C181.227 493.159 186.159 496.659 192.818 496.659ZM195.591 489.977C192.614 489.977 190.477 488.591 190.477 485.932C190.477 483.205 192.727 481.864 196.136 481.386C198.25 481.091 201.705 480.591 202.864 479.818V483.523C202.864 487.182 199.841 489.977 195.591 489.977ZM229.67 475.818C229.693 471.318 232.375 468.682 236.284 468.682C240.17 468.682 242.511 471.227 242.489 475.5V496H252.17V473.773C252.17 465.636 247.398 460.636 240.125 460.636C234.943 460.636 231.193 463.182 229.625 467.25H229.216V461.091H219.989V496H229.67V475.818ZM272.665 496.568C278.301 496.568 281.233 493.318 282.574 490.409H282.983V496H292.528V449.455H282.869V466.955H282.574C281.278 464.114 278.483 460.636 272.642 460.636C264.983 460.636 258.506 466.591 258.506 478.591C258.506 490.273 264.71 496.568 272.665 496.568ZM275.733 488.864C270.983 488.864 268.392 484.636 268.392 478.545C268.392 472.5 270.938 468.341 275.733 468.341C280.438 468.341 283.074 472.318 283.074 478.545C283.074 484.773 280.392 488.864 275.733 488.864ZM310.443 496.659C315.602 496.659 318.943 494.409 320.648 491.159H320.92V496H330.102V472.455C330.102 464.136 323.057 460.636 315.284 460.636C306.92 460.636 301.42 464.636 300.08 471L309.034 471.727C309.693 469.409 311.761 467.705 315.239 467.705C318.534 467.705 320.42 469.364 320.42 472.227V472.364C320.42 474.614 318.034 474.909 311.966 475.5C305.057 476.136 298.852 478.455 298.852 486.25C298.852 493.159 303.784 496.659 310.443 496.659ZM313.216 489.977C310.239 489.977 308.102 488.591 308.102 485.932C308.102 483.205 310.352 481.864 313.761 481.386C315.875 481.091 319.33 480.591 320.489 479.818V483.523C320.489 487.182 317.466 489.977 313.216 489.977ZM337.614 496H347.295V476.25C347.295 471.955 350.432 469 354.705 469C356.045 469 357.886 469.227 358.795 469.523V460.932C357.932 460.727 356.727 460.591 355.75 460.591C351.841 460.591 348.636 462.864 347.364 467.182H347V461.091H337.614V496ZM375.04 496.568C380.676 496.568 383.608 493.318 384.949 490.409H385.358V496H394.903V449.455H385.244V466.955H384.949C383.653 464.114 380.858 460.636 375.017 460.636C367.358 460.636 360.881 466.591 360.881 478.591C360.881 490.273 367.085 496.568 375.04 496.568ZM378.108 488.864C373.358 488.864 370.767 484.636 370.767 478.545C370.767 472.5 373.312 468.341 378.108 468.341C382.812 468.341 385.449 472.318 385.449 478.545C385.449 484.773 382.767 488.864 378.108 488.864ZM418.409 448.568H400.477V455.818H409.045V498.864H400.477V506.091H418.409V448.568Z" fill="#FE7F2D"/>
<path d="M513.705 461.176H524.392V490H531.688V461.176H542.375V455.091H513.705V461.176ZM554.222 474.864C554.239 471.489 556.301 469.511 559.267 469.511C562.216 469.511 563.955 471.403 563.938 474.625V490H571.199V473.33C571.216 467.193 567.602 463.477 562.148 463.477C558.176 463.477 555.517 465.352 554.324 468.438H554.017V455.091H546.96V490H554.222V474.864ZM588.845 490.511C595.322 490.511 599.686 487.358 600.709 482.5L593.993 482.057C593.26 484.051 591.385 485.091 588.964 485.091C585.334 485.091 583.033 482.688 583.033 478.784V478.767H600.862V476.773C600.862 467.875 595.476 463.477 588.555 463.477C580.851 463.477 575.857 468.949 575.857 477.028C575.857 485.33 580.783 490.511 588.845 490.511ZM583.033 474.267C583.186 471.284 585.453 468.898 588.675 468.898C591.828 468.898 594.01 471.148 594.027 474.267H583.033ZM630.79 463.818H625.591V462.062C625.591 460.29 626.307 459.25 628.438 459.25C629.307 459.25 630.193 459.438 630.773 459.625L632.051 454.17C631.148 453.898 629.153 453.455 626.92 453.455C621.994 453.455 618.33 456.233 618.33 461.926V463.818H614.631V469.273H618.33V490H625.591V469.273H630.79V463.818ZM635.226 490H642.487V463.818H635.226V490ZM638.874 460.443C641.038 460.443 642.811 458.79 642.811 456.761C642.811 454.75 641.038 453.097 638.874 453.097C636.726 453.097 634.953 454.75 634.953 456.761C634.953 458.79 636.726 460.443 638.874 460.443ZM648.304 490H655.565V475.188C655.565 471.966 657.918 469.75 661.122 469.75C662.128 469.75 663.509 469.92 664.19 470.142V463.699C663.543 463.545 662.639 463.443 661.906 463.443C658.974 463.443 656.571 465.148 655.616 468.386H655.344V463.818H648.304V490ZM689.729 471.284C689.081 466.46 685.195 463.477 678.581 463.477C671.882 463.477 667.467 466.58 667.484 471.625C667.467 475.545 669.939 478.085 675.053 479.108L679.587 480.011C681.871 480.472 682.911 481.307 682.945 482.619C682.911 484.17 681.223 485.278 678.683 485.278C676.092 485.278 674.371 484.17 673.928 482.04L666.786 482.415C667.467 487.426 671.729 490.511 678.666 490.511C685.45 490.511 690.308 487.051 690.325 481.886C690.308 478.102 687.837 475.835 682.757 474.795L678.018 473.841C675.581 473.312 674.678 472.477 674.695 471.216C674.678 469.648 676.45 468.625 678.7 468.625C681.223 468.625 682.723 470.006 683.081 471.693L689.729 471.284ZM708.824 463.818H703.898V457.545H696.636V463.818H693.057V469.273H696.636V482.909C696.602 488.04 700.097 490.58 705.364 490.358C707.239 490.29 708.568 489.915 709.301 489.676L708.159 484.273C707.801 484.341 707.034 484.511 706.352 484.511C704.903 484.511 703.898 483.966 703.898 481.955V469.273H708.824V463.818ZM724.408 466H729.862V462.284C729.862 459.608 730.749 457.511 732.027 455.5L728.822 453.608C726.453 455.534 724.408 459.199 724.408 462.318V466ZM733.016 466H738.47V462.284C738.47 459.608 739.357 457.511 740.635 455.5L737.43 453.608C735.061 455.534 733.016 459.199 733.016 462.318V466ZM766.697 471.284C766.05 466.46 762.163 463.477 755.55 463.477C748.851 463.477 744.436 466.58 744.453 471.625C744.436 475.545 746.908 478.085 752.021 479.108L756.555 480.011C758.839 480.472 759.879 481.307 759.913 482.619C759.879 484.17 758.192 485.278 755.652 485.278C753.061 485.278 751.339 484.17 750.896 482.04L743.754 482.415C744.436 487.426 748.697 490.511 755.635 490.511C762.419 490.511 767.277 487.051 767.294 481.886C767.277 478.102 764.805 475.835 759.726 474.795L754.987 473.841C752.55 473.312 751.646 472.477 751.663 471.216C751.646 469.648 753.419 468.625 755.669 468.625C758.192 468.625 759.692 470.006 760.05 471.693L766.697 471.284ZM785.793 463.818H780.866V457.545H773.605V463.818H770.026V469.273H773.605V482.909C773.571 488.04 777.065 490.58 782.332 490.358C784.207 490.29 785.537 489.915 786.27 489.676L785.128 484.273C784.77 484.341 784.003 484.511 783.321 484.511C781.872 484.511 780.866 483.966 780.866 481.955V469.273H785.793V463.818ZM802.071 490.511C810.014 490.511 814.957 485.074 814.957 477.011C814.957 468.898 810.014 463.477 802.071 463.477C794.128 463.477 789.185 468.898 789.185 477.011C789.185 485.074 794.128 490.511 802.071 490.511ZM802.105 484.886C798.44 484.886 796.565 481.528 796.565 476.96C796.565 472.392 798.44 469.017 802.105 469.017C805.702 469.017 807.577 472.392 807.577 476.96C807.577 481.528 805.702 484.886 802.105 484.886ZM819.679 490H826.94V475.188C826.94 471.966 829.293 469.75 832.497 469.75C833.503 469.75 834.884 469.92 835.565 470.142V463.699C834.918 463.545 834.014 463.443 833.281 463.443C830.349 463.443 827.946 465.148 826.991 468.386H826.719V463.818H819.679V490ZM844.599 499.818C850.003 499.818 852.866 497.057 854.349 492.83L864.526 463.852L856.838 463.818L851.366 483.045H851.094L845.673 463.818H838.037L847.429 490.75L847.003 491.858C846.048 494.312 844.224 494.432 841.668 493.648L840.031 499.068C841.071 499.511 842.759 499.818 844.599 499.818ZM875.827 455.091H870.372V458.807C870.372 461.688 869.349 463.784 868.207 465.591L871.412 467.483C873.815 465.472 875.827 461.892 875.827 458.773V455.091ZM884.384 455.091H878.929V458.807C878.929 461.688 877.906 463.784 876.764 465.591L879.969 467.483C882.372 465.472 884.384 461.892 884.384 458.773V455.091Z" fill="black"/>
<path d="M98.7727 682.114H116.705V674.864H108.136V631.818H116.705V624.591H98.7727V682.114ZM154.597 637.091H144.347L137.119 662.068H136.756L129.506 637.091H119.278L131.483 672H142.392L154.597 637.091ZM168.506 672.659C173.665 672.659 177.006 670.409 178.71 667.159H178.983V672H188.165V648.455C188.165 640.136 181.119 636.636 173.347 636.636C164.983 636.636 159.483 640.636 158.142 647L167.097 647.727C167.756 645.409 169.824 643.705 173.301 643.705C176.597 643.705 178.483 645.364 178.483 648.227V648.364C178.483 650.614 176.097 650.909 170.028 651.5C163.119 652.136 156.915 654.455 156.915 662.25C156.915 669.159 161.847 672.659 168.506 672.659ZM171.278 665.977C168.301 665.977 166.165 664.591 166.165 661.932C166.165 659.205 168.415 657.864 171.824 657.386C173.938 657.091 177.392 656.591 178.551 655.818V659.523C178.551 663.182 175.528 665.977 171.278 665.977ZM195.676 672H205.358V652.25C205.358 647.955 208.494 645 212.767 645C214.108 645 215.949 645.227 216.858 645.523V636.932C215.994 636.727 214.79 636.591 213.812 636.591C209.903 636.591 206.699 638.864 205.426 643.182H205.062V637.091H195.676V672ZM221.864 672H231.545V637.091H221.864V672ZM226.727 632.591C229.614 632.591 231.977 630.386 231.977 627.682C231.977 625 229.614 622.795 226.727 622.795C223.864 622.795 221.5 625 221.5 627.682C221.5 630.386 223.864 632.591 226.727 632.591ZM249.256 672.659C254.415 672.659 257.756 670.409 259.46 667.159H259.733V672H268.915V648.455C268.915 640.136 261.869 636.636 254.097 636.636C245.733 636.636 240.233 640.636 238.892 647L247.847 647.727C248.506 645.409 250.574 643.705 254.051 643.705C257.347 643.705 259.233 645.364 259.233 648.227V648.364C259.233 650.614 256.847 650.909 250.778 651.5C243.869 652.136 237.665 654.455 237.665 662.25C237.665 669.159 242.597 672.659 249.256 672.659ZM252.028 665.977C249.051 665.977 246.915 664.591 246.915 661.932C246.915 659.205 249.165 657.864 252.574 657.386C254.688 657.091 258.142 656.591 259.301 655.818V659.523C259.301 663.182 256.278 665.977 252.028 665.977ZM286.108 651.818C286.131 647.318 288.812 644.682 292.722 644.682C296.608 644.682 298.949 647.227 298.926 651.5V672H308.608V649.773C308.608 641.636 303.835 636.636 296.562 636.636C291.381 636.636 287.631 639.182 286.062 643.25H285.653V637.091H276.426V672H286.108V651.818ZM334.807 637.091H328.239V628.727H318.557V637.091H313.784V644.364H318.557V662.545C318.511 669.386 323.17 672.773 330.193 672.477C332.693 672.386 334.466 671.886 335.443 671.568L333.92 664.364C333.443 664.455 332.42 664.682 331.511 664.682C329.58 664.682 328.239 663.955 328.239 661.273V644.364H334.807V637.091ZM369.659 647.045C368.795 640.614 363.614 636.636 354.795 636.636C345.864 636.636 339.977 640.773 340 647.5C339.977 652.727 343.273 656.114 350.091 657.477L356.136 658.682C359.182 659.295 360.568 660.409 360.614 662.159C360.568 664.227 358.318 665.705 354.932 665.705C351.477 665.705 349.182 664.227 348.591 661.386L339.068 661.886C339.977 668.568 345.659 672.682 354.909 672.682C363.955 672.682 370.432 668.068 370.455 661.182C370.432 656.136 367.136 653.114 360.364 651.727L354.045 650.455C350.795 649.75 349.591 648.636 349.614 646.955C349.591 644.864 351.955 643.5 354.955 643.5C358.318 643.5 360.318 645.341 360.795 647.591L369.659 647.045ZM392.097 624.568H374.165V631.818H382.733V674.864H374.165V682.091H392.097V624.568Z" fill="#FE7F2D"/>
<path d="M521.051 666L523.642 658.04H536.239L538.83 666H546.739L534.705 631.091H525.193L513.142 666H521.051ZM525.517 652.278L529.812 639.068H530.085L534.381 652.278H525.517ZM558.065 631.091H550.804V666H558.065V631.091ZM577.808 639.818H572.882V633.545H565.621V639.818H562.041V645.273H565.621V658.909C565.587 664.04 569.081 666.58 574.348 666.358C576.223 666.29 577.553 665.915 578.286 665.676L577.143 660.273C576.786 660.341 576.018 660.511 575.337 660.511C573.888 660.511 572.882 659.966 572.882 657.955V645.273H577.808V639.818ZM594.189 666.511C600.666 666.511 605.03 663.358 606.053 658.5L599.337 658.057C598.604 660.051 596.729 661.091 594.308 661.091C590.678 661.091 588.376 658.688 588.376 654.784V654.767H606.206V652.773C606.206 643.875 600.82 639.477 593.899 639.477C586.195 639.477 581.2 644.949 581.2 653.028C581.2 661.33 586.126 666.511 594.189 666.511ZM588.376 650.267C588.53 647.284 590.797 644.898 594.018 644.898C597.172 644.898 599.354 647.148 599.371 650.267H588.376ZM610.945 666H618.206V651.188C618.206 647.966 620.558 645.75 623.763 645.75C624.768 645.75 626.149 645.92 626.831 646.142V639.699C626.183 639.545 625.28 639.443 624.547 639.443C621.615 639.443 619.212 641.148 618.257 644.386H617.984V639.818H610.945V666ZM637.847 650.864C637.864 647.489 639.875 645.511 642.807 645.511C645.722 645.511 647.477 647.42 647.46 650.625V666H654.722V649.33C654.722 643.227 651.142 639.477 645.688 639.477C641.801 639.477 638.989 641.386 637.812 644.438H637.506V639.818H630.585V666H637.847V650.864ZM667.911 666.494C671.78 666.494 674.286 664.807 675.564 662.369H675.768V666H682.655V648.341C682.655 642.102 677.371 639.477 671.541 639.477C665.268 639.477 661.143 642.477 660.138 647.25L666.854 647.795C667.348 646.057 668.899 644.778 671.507 644.778C673.979 644.778 675.393 646.023 675.393 648.17V648.273C675.393 649.96 673.604 650.182 669.053 650.625C663.871 651.102 659.217 652.841 659.217 658.688C659.217 663.869 662.916 666.494 667.911 666.494ZM669.99 661.483C667.757 661.483 666.155 660.443 666.155 658.449C666.155 656.403 667.842 655.398 670.399 655.04C671.984 654.818 674.575 654.443 675.445 653.864V656.642C675.445 659.386 673.178 661.483 669.99 661.483ZM702.214 639.818H697.288V633.545H690.027V639.818H686.447V645.273H690.027V658.909C689.993 664.04 693.487 666.58 698.754 666.358C700.629 666.29 701.959 665.915 702.692 665.676L701.55 660.273C701.192 660.341 700.425 660.511 699.743 660.511C698.294 660.511 697.288 659.966 697.288 657.955V645.273H702.214V639.818ZM706.945 666H714.206V639.818H706.945V666ZM710.592 636.443C712.757 636.443 714.53 634.79 714.53 632.761C714.53 630.75 712.757 629.097 710.592 629.097C708.445 629.097 706.672 630.75 706.672 632.761C706.672 634.79 708.445 636.443 710.592 636.443ZM744.432 639.818H736.744L731.324 658.551H731.051L725.614 639.818H717.943L727.097 666H735.278L744.432 639.818ZM759.189 666.511C765.666 666.511 770.03 663.358 771.053 658.5L764.337 658.057C763.604 660.051 761.729 661.091 759.308 661.091C755.678 661.091 753.376 658.688 753.376 654.784V654.767H771.206V652.773C771.206 643.875 765.82 639.477 758.899 639.477C751.195 639.477 746.2 644.949 746.2 653.028C746.2 661.33 751.126 666.511 759.189 666.511ZM753.376 650.267C753.53 647.284 755.797 644.898 759.018 644.898C762.172 644.898 764.354 647.148 764.371 650.267H753.376ZM808.838 647.284C808.19 642.46 804.304 639.477 797.69 639.477C790.991 639.477 786.577 642.58 786.594 647.625C786.577 651.545 789.048 654.085 794.162 655.108L798.696 656.011C800.98 656.472 802.02 657.307 802.054 658.619C802.02 660.17 800.332 661.278 797.793 661.278C795.202 661.278 793.48 660.17 793.037 658.04L785.895 658.415C786.577 663.426 790.838 666.511 797.776 666.511C804.56 666.511 809.418 663.051 809.435 657.886C809.418 654.102 806.946 651.835 801.866 650.795L797.128 649.841C794.69 649.312 793.787 648.477 793.804 647.216C793.787 645.648 795.56 644.625 797.81 644.625C800.332 644.625 801.832 646.006 802.19 647.693L808.838 647.284ZM827.933 639.818H823.007V633.545H815.746V639.818H812.166V645.273H815.746V658.909C815.712 664.04 819.206 666.58 824.473 666.358C826.348 666.29 827.678 665.915 828.411 665.676L827.268 660.273C826.911 660.341 826.143 660.511 825.462 660.511C824.013 660.511 823.007 659.966 823.007 657.955V645.273H827.933V639.818ZM844.212 666.511C852.155 666.511 857.098 661.074 857.098 653.011C857.098 644.898 852.155 639.477 844.212 639.477C836.268 639.477 831.325 644.898 831.325 653.011C831.325 661.074 836.268 666.511 844.212 666.511ZM844.246 660.886C840.581 660.886 838.706 657.528 838.706 652.96C838.706 648.392 840.581 645.017 844.246 645.017C847.842 645.017 849.717 648.392 849.717 652.96C849.717 657.528 847.842 660.886 844.246 660.886ZM861.82 666H869.081V651.188C869.081 647.966 871.433 645.75 874.638 645.75C875.643 645.75 877.024 645.92 877.706 646.142V639.699C877.058 639.545 876.155 639.443 875.422 639.443C872.49 639.443 870.087 641.148 869.132 644.386H868.859V639.818H861.82V666ZM881.46 666H888.722V639.818H881.46V666ZM885.108 636.443C887.273 636.443 889.045 634.79 889.045 632.761C889.045 630.75 887.273 629.097 885.108 629.097C882.96 629.097 881.188 630.75 881.188 632.761C881.188 634.79 882.96 636.443 885.108 636.443ZM906.47 666.511C912.947 666.511 917.311 663.358 918.334 658.5L911.618 658.057C910.885 660.051 909.01 661.091 906.589 661.091C902.959 661.091 900.658 658.688 900.658 654.784V654.767H918.487V652.773C918.487 643.875 913.101 639.477 906.18 639.477C898.476 639.477 893.482 644.949 893.482 653.028C893.482 661.33 898.408 666.511 906.47 666.511ZM900.658 650.267C900.811 647.284 903.078 644.898 906.3 644.898C909.453 644.898 911.635 647.148 911.652 650.267H900.658ZM945.01 647.284C944.362 642.46 940.476 639.477 933.862 639.477C927.163 639.477 922.749 642.58 922.766 647.625C922.749 651.545 925.22 654.085 930.334 655.108L934.868 656.011C937.152 656.472 938.192 657.307 938.226 658.619C938.192 660.17 936.504 661.278 933.964 661.278C931.374 661.278 929.652 660.17 929.209 658.04L922.067 658.415C922.749 663.426 927.01 666.511 933.947 666.511C940.732 666.511 945.589 663.051 945.607 657.886C945.589 654.102 943.118 651.835 938.038 650.795L933.3 649.841C930.862 649.312 929.959 648.477 929.976 647.216C929.959 645.648 931.732 644.625 933.982 644.625C936.504 644.625 938.004 646.006 938.362 647.693L945.01 647.284Z" fill="black"/>
</svg>
