<svg width="1113" height="386" viewBox="0 0 1113 386" fill="none" xmlns="http://www.w3.org/2000/svg">
<rect width="1113" height="386" fill="white"/>
<rect x="2.5" y="161.5" width="256" height="57" stroke="#FE7F2D" stroke-width="5"/>
<rect x="429.5" y="2.5" width="256" height="57" stroke="#1A090D" stroke-width="5"/>
<rect x="854.5" y="2.5" width="256" height="57" stroke="#1A090D" stroke-width="5"/>
<rect x="429.5" y="109.5" width="256" height="57" stroke="#1A090D" stroke-width="5"/>
<rect x="429.5" y="216.5" width="256" height="57" stroke="#1A090D" stroke-width="5"/>
<rect x="429.5" y="326.5" width="256" height="57" stroke="#1A090D" stroke-width="5"/>
<rect x="853.5" y="161.5" width="256" height="57" stroke="#1A090D" stroke-width="5"/>
<rect x="853.5" y="326.5" width="256" height="57" stroke="#1A090D" stroke-width="5"/>
<path d="M17.7436 200H21.3232V197.903H21.4851C21.9879 198.994 23.0874 200.213 25.201 200.213C28.1839 200.213 30.5107 197.852 30.5107 193.472C30.5107 188.972 28.0817 186.739 25.2095 186.739C23.0192 186.739 21.9709 188.043 21.4851 189.108H21.3743V182.545H17.7436V200ZM21.2976 193.455C21.2976 191.119 22.2862 189.628 24.0504 189.628C25.8487 189.628 26.8033 191.188 26.8033 193.455C26.8033 195.739 25.8317 197.324 24.0504 197.324C22.3033 197.324 21.2976 195.79 21.2976 193.455ZM41.3281 194.426C41.3366 196.182 40.1349 197.102 38.831 197.102C37.4588 197.102 36.5724 196.139 36.5639 194.597V186.909H32.9332V195.244C32.9418 198.304 34.7315 200.17 37.3651 200.17C39.3338 200.17 40.7486 199.156 41.3366 197.622H41.473V200H44.9588V186.909H41.3281V194.426ZM54.826 186.909H52.3629V183.773H48.7322V186.909H46.9425V189.636H48.7322V196.455C48.7152 199.02 50.4624 200.29 53.0959 200.179C54.0334 200.145 54.6982 199.957 55.0646 199.838L54.4936 197.136C54.3146 197.17 53.9311 197.256 53.5902 197.256C52.8658 197.256 52.3629 196.983 52.3629 195.977V189.636H54.826V186.909ZM64.1541 186.909H61.6911V183.773H58.0604V186.909H56.2706V189.636H58.0604V196.455C58.0433 199.02 59.7905 200.29 62.424 200.179C63.3615 200.145 64.0263 199.957 64.3928 199.838L63.8217 197.136C63.6428 197.17 63.2592 197.256 62.9183 197.256C62.1939 197.256 61.6911 196.983 61.6911 195.977V189.636H64.1541V186.909ZM72.2933 200.256C76.2649 200.256 78.7365 197.537 78.7365 193.506C78.7365 189.449 76.2649 186.739 72.2933 186.739C68.3217 186.739 65.8501 189.449 65.8501 193.506C65.8501 197.537 68.3217 200.256 72.2933 200.256ZM72.3104 197.443C70.478 197.443 69.5405 195.764 69.5405 193.48C69.5405 191.196 70.478 189.509 72.3104 189.509C74.1087 189.509 75.0462 191.196 75.0462 193.48C75.0462 195.764 74.1087 197.443 72.3104 197.443ZM84.728 192.432C84.7365 190.744 85.7422 189.756 87.2081 189.756C88.6655 189.756 89.5433 190.71 89.5348 192.312V200H93.1655V191.665C93.1655 188.614 91.3757 186.739 88.6484 186.739C86.7053 186.739 85.299 187.693 84.7109 189.219H84.5575V186.909H81.0973V200H84.728V192.432ZM98.1491 200.222C99.2401 200.222 100.186 199.31 100.195 198.176C100.186 197.06 99.2401 196.148 98.1491 196.148C97.0241 196.148 96.0952 197.06 96.1037 198.176C96.0952 199.31 97.0241 200.222 98.1491 200.222ZM114.067 190.642C113.744 188.23 111.8 186.739 108.494 186.739C105.144 186.739 102.937 188.29 102.945 190.812C102.937 192.773 104.173 194.043 106.729 194.554L108.996 195.006C110.138 195.236 110.658 195.653 110.675 196.31C110.658 197.085 109.815 197.639 108.545 197.639C107.249 197.639 106.388 197.085 106.167 196.02L102.596 196.207C102.937 198.713 105.067 200.256 108.536 200.256C111.928 200.256 114.357 198.526 114.366 195.943C114.357 194.051 113.121 192.918 110.582 192.398L108.212 191.92C106.994 191.656 106.542 191.239 106.55 190.608C106.542 189.824 107.428 189.312 108.553 189.312C109.815 189.312 110.565 190.003 110.744 190.847L114.067 190.642ZM123.615 186.909H121.152V183.773H117.521V186.909H115.732V189.636H117.521V196.455C117.504 199.02 119.251 200.29 121.885 200.179C122.822 200.145 123.487 199.957 123.854 199.838L123.283 197.136C123.104 197.17 122.72 197.256 122.379 197.256C121.655 197.256 121.152 196.983 121.152 195.977V189.636H123.615V186.909ZM131.754 200.256C135.726 200.256 138.197 197.537 138.197 193.506C138.197 189.449 135.726 186.739 131.754 186.739C127.783 186.739 125.311 189.449 125.311 193.506C125.311 197.537 127.783 200.256 131.754 200.256ZM131.771 197.443C129.939 197.443 129.001 195.764 129.001 193.48C129.001 191.196 129.939 189.509 131.771 189.509C133.57 189.509 134.507 191.196 134.507 193.48C134.507 195.764 133.57 197.443 131.771 197.443ZM140.558 200H144.189V192.594C144.189 190.983 145.365 189.875 146.967 189.875C147.47 189.875 148.161 189.96 148.501 190.071V186.849C148.178 186.773 147.726 186.722 147.359 186.722C145.893 186.722 144.692 187.574 144.214 189.193H144.078V186.909H140.558V200ZM150.379 200H154.009V186.909H150.379V200ZM152.202 185.222C153.285 185.222 154.171 184.395 154.171 183.381C154.171 182.375 153.285 181.548 152.202 181.548C151.129 181.548 150.242 182.375 150.242 183.381C150.242 184.395 151.129 185.222 152.202 185.222ZM162.884 200.256C166.122 200.256 168.304 198.679 168.815 196.25L165.457 196.028C165.091 197.026 164.153 197.545 162.943 197.545C161.128 197.545 159.977 196.344 159.977 194.392V194.384H168.892V193.386C168.892 188.938 166.199 186.739 162.739 186.739C158.886 186.739 156.389 189.474 156.389 193.514C156.389 197.665 158.852 200.256 162.884 200.256ZM159.977 192.134C160.054 190.642 161.188 189.449 162.798 189.449C164.375 189.449 165.466 190.574 165.474 192.134H159.977ZM182.153 190.642C181.83 188.23 179.886 186.739 176.58 186.739C173.23 186.739 171.023 188.29 171.031 190.812C171.023 192.773 172.259 194.043 174.815 194.554L177.082 195.006C178.224 195.236 178.744 195.653 178.761 196.31C178.744 197.085 177.901 197.639 176.631 197.639C175.335 197.639 174.474 197.085 174.253 196.02L170.682 196.207C171.023 198.713 173.153 200.256 176.622 200.256C180.014 200.256 182.443 198.526 182.452 195.943C182.443 194.051 181.207 192.918 178.668 192.398L176.298 191.92C175.08 191.656 174.628 191.239 174.636 190.608C174.628 189.824 175.514 189.312 176.639 189.312C177.901 189.312 178.651 190.003 178.83 190.847L182.153 190.642ZM186.86 200.222C187.951 200.222 188.897 199.31 188.906 198.176C188.897 197.06 187.951 196.148 186.86 196.148C185.735 196.148 184.806 197.06 184.815 198.176C184.806 199.31 185.735 200.222 186.86 200.222ZM198.849 186.909H196.386V183.773H192.756V186.909H190.966V189.636H192.756V196.455C192.739 199.02 194.486 200.29 197.119 200.179C198.057 200.145 198.722 199.957 199.088 199.838L198.517 197.136C198.338 197.17 197.955 197.256 197.614 197.256C196.889 197.256 196.386 196.983 196.386 195.977V189.636H198.849V186.909ZM206.989 200.256C210.96 200.256 213.432 197.537 213.432 193.506C213.432 189.449 210.96 186.739 206.989 186.739C203.017 186.739 200.545 189.449 200.545 193.506C200.545 197.537 203.017 200.256 206.989 200.256ZM207.006 197.443C205.173 197.443 204.236 195.764 204.236 193.48C204.236 191.196 205.173 189.509 207.006 189.509C208.804 189.509 209.741 191.196 209.741 193.48C209.741 195.764 208.804 197.443 207.006 197.443ZM215.793 200H219.423V192.142C219.423 190.693 220.344 189.73 221.554 189.73C222.747 189.73 223.548 190.548 223.548 191.835V200H227.068V192.006C227.068 190.651 227.844 189.73 229.165 189.73C230.324 189.73 231.193 190.455 231.193 191.912V200H234.815V191.196C234.815 188.358 233.128 186.739 230.69 186.739C228.773 186.739 227.281 187.719 226.744 189.219H226.608C226.19 187.702 224.852 186.739 223.054 186.739C221.29 186.739 219.952 187.676 219.406 189.219H219.253V186.909H215.793V200ZM241.314 182.545H237.683V200H241.314V182.545Z" fill="#FE7F2D"/>
<path d="M460.904 41H464.483V38.9034H464.645C465.148 39.9943 466.248 41.2131 468.361 41.2131C471.344 41.2131 473.671 38.8523 473.671 34.4716C473.671 29.9716 471.242 27.7386 468.37 27.7386C466.179 27.7386 465.131 29.0426 464.645 30.108H464.534V23.5455H460.904V41ZM464.458 34.4545C464.458 32.1193 465.446 30.6278 467.211 30.6278C469.009 30.6278 469.963 32.1875 469.963 34.4545C469.963 36.7386 468.992 38.3239 467.211 38.3239C465.463 38.3239 464.458 36.7898 464.458 34.4545ZM484.488 35.4261C484.497 37.1818 483.295 38.1023 481.991 38.1023C480.619 38.1023 479.733 37.1392 479.724 35.5966V27.9091H476.093V36.2443C476.102 39.304 477.892 41.1705 480.525 41.1705C482.494 41.1705 483.909 40.1562 484.497 38.6222H484.633V41H488.119V27.9091H484.488V35.4261ZM497.986 27.9091H495.523V24.7727H491.892V27.9091H490.103V30.6364H491.892V37.4545C491.875 40.0199 493.623 41.2898 496.256 41.179C497.194 41.1449 497.858 40.9574 498.225 40.8381L497.654 38.1364C497.475 38.1705 497.091 38.2557 496.75 38.2557C496.026 38.2557 495.523 37.983 495.523 36.9773V30.6364H497.986V27.9091ZM507.314 27.9091H504.851V24.7727H501.221V27.9091H499.431V30.6364H501.221V37.4545C501.203 40.0199 502.951 41.2898 505.584 41.179C506.522 41.1449 507.186 40.9574 507.553 40.8381L506.982 38.1364C506.803 38.1705 506.419 38.2557 506.078 38.2557C505.354 38.2557 504.851 37.983 504.851 36.9773V30.6364H507.314V27.9091ZM515.453 41.2557C519.425 41.2557 521.897 38.5369 521.897 34.5057C521.897 30.4489 519.425 27.7386 515.453 27.7386C511.482 27.7386 509.01 30.4489 509.01 34.5057C509.01 38.5369 511.482 41.2557 515.453 41.2557ZM515.471 38.4432C513.638 38.4432 512.701 36.7642 512.701 34.4801C512.701 32.196 513.638 30.5085 515.471 30.5085C517.269 30.5085 518.206 32.196 518.206 34.4801C518.206 36.7642 517.269 38.4432 515.471 38.4432ZM527.888 33.4318C527.897 31.7443 528.902 30.7557 530.368 30.7557C531.826 30.7557 532.703 31.7102 532.695 33.3125V41H536.326V32.6648C536.326 29.6136 534.536 27.7386 531.809 27.7386C529.865 27.7386 528.459 28.6932 527.871 30.2188H527.718V27.9091H524.257V41H527.888V33.4318ZM541.309 41.2216C542.4 41.2216 543.346 40.3097 543.355 39.1761C543.346 38.0597 542.4 37.1477 541.309 37.1477C540.184 37.1477 539.255 38.0597 539.264 39.1761C539.255 40.3097 540.184 41.2216 541.309 41.2216ZM557.228 31.642C556.904 29.2301 554.961 27.7386 551.654 27.7386C548.304 27.7386 546.097 29.2898 546.105 31.8125C546.097 33.7727 547.333 35.0426 549.89 35.554L552.157 36.0057C553.299 36.2358 553.819 36.6534 553.836 37.3097C553.819 38.0852 552.975 38.6392 551.705 38.6392C550.409 38.6392 549.549 38.0852 549.327 37.0199L545.756 37.2074C546.097 39.7131 548.228 41.2557 551.696 41.2557C555.088 41.2557 557.517 39.5256 557.526 36.9432C557.517 35.0511 556.282 33.9176 553.742 33.3977L551.373 32.9205C550.154 32.6562 549.702 32.2386 549.711 31.608C549.702 30.8239 550.588 30.3125 551.713 30.3125C552.975 30.3125 553.725 31.0028 553.904 31.8466L557.228 31.642ZM566.775 27.9091H564.312V24.7727H560.681V27.9091H558.892V30.6364H560.681V37.4545C560.664 40.0199 562.412 41.2898 565.045 41.179C565.983 41.1449 566.647 40.9574 567.014 40.8381L566.443 38.1364C566.264 38.1705 565.88 38.2557 565.539 38.2557C564.815 38.2557 564.312 37.983 564.312 36.9773V30.6364H566.775V27.9091ZM574.914 41.2557C578.886 41.2557 581.358 38.5369 581.358 34.5057C581.358 30.4489 578.886 27.7386 574.914 27.7386C570.943 27.7386 568.471 30.4489 568.471 34.5057C568.471 38.5369 570.943 41.2557 574.914 41.2557ZM574.931 38.4432C573.099 38.4432 572.162 36.7642 572.162 34.4801C572.162 32.196 573.099 30.5085 574.931 30.5085C576.73 30.5085 577.667 32.196 577.667 34.4801C577.667 36.7642 576.73 38.4432 574.931 38.4432ZM583.718 41H587.349V33.5938C587.349 31.983 588.525 30.875 590.127 30.875C590.63 30.875 591.321 30.9602 591.662 31.071V27.8494C591.338 27.7727 590.886 27.7216 590.52 27.7216C589.054 27.7216 587.852 28.5739 587.375 30.1932H587.238V27.9091H583.718V41ZM593.539 41H597.169V27.9091H593.539V41ZM595.363 26.2216C596.445 26.2216 597.331 25.3949 597.331 24.3807C597.331 23.375 596.445 22.5483 595.363 22.5483C594.289 22.5483 593.402 23.375 593.402 24.3807C593.402 25.3949 594.289 26.2216 595.363 26.2216ZM606.044 41.2557C609.282 41.2557 611.464 39.679 611.975 37.25L608.618 37.0284C608.251 38.0256 607.314 38.5455 606.103 38.5455C604.288 38.5455 603.137 37.3438 603.137 35.392V35.3835H612.052V34.3864C612.052 29.9375 609.359 27.7386 605.899 27.7386C602.047 27.7386 599.549 30.4744 599.549 34.5142C599.549 38.6648 602.012 41.2557 606.044 41.2557ZM603.137 33.1335C603.214 31.642 604.348 30.4489 605.958 30.4489C607.535 30.4489 608.626 31.5739 608.635 33.1335H603.137ZM625.314 31.642C624.99 29.2301 623.047 27.7386 619.74 27.7386C616.39 27.7386 614.183 29.2898 614.191 31.8125C614.183 33.7727 615.419 35.0426 617.975 35.554L620.243 36.0057C621.385 36.2358 621.904 36.6534 621.922 37.3097C621.904 38.0852 621.061 38.6392 619.791 38.6392C618.495 38.6392 617.635 38.0852 617.413 37.0199L613.842 37.2074C614.183 39.7131 616.314 41.2557 619.782 41.2557C623.174 41.2557 625.603 39.5256 625.612 36.9432C625.603 35.0511 624.368 33.9176 621.828 33.3977L619.458 32.9205C618.24 32.6562 617.788 32.2386 617.797 31.608C617.788 30.8239 618.674 30.3125 619.799 30.3125C621.061 30.3125 621.811 31.0028 621.99 31.8466L625.314 31.642ZM630.02 41.2216C631.111 41.2216 632.057 40.3097 632.066 39.1761C632.057 38.0597 631.111 37.1477 630.02 37.1477C628.895 37.1477 627.966 38.0597 627.975 39.1761C627.966 40.3097 628.895 41.2216 630.02 41.2216ZM635.047 27.9091V41.5881C635.047 42.5767 634.629 43.071 633.461 43.071C633.308 43.071 633.172 43.071 632.984 43.054V45.892C633.248 45.9006 633.461 45.9091 633.717 45.9091C636.802 45.9091 638.677 44.6818 638.677 41.6477V27.9091H635.047ZM636.853 26.2216C637.936 26.2216 638.822 25.3949 638.822 24.3807C638.822 23.375 637.936 22.5483 636.853 22.5483C635.779 22.5483 634.893 23.375 634.893 24.3807C634.893 25.3949 635.779 26.2216 636.853 26.2216ZM652.478 31.642C652.154 29.2301 650.211 27.7386 646.904 27.7386C643.554 27.7386 641.347 29.2898 641.355 31.8125C641.347 33.7727 642.583 35.0426 645.14 35.554L647.407 36.0057C648.549 36.2358 649.069 36.6534 649.086 37.3097C649.069 38.0852 648.225 38.6392 646.955 38.6392C645.659 38.6392 644.799 38.0852 644.577 37.0199L641.006 37.2074C641.347 39.7131 643.478 41.2557 646.946 41.2557C650.338 41.2557 652.767 39.5256 652.776 36.9432C652.767 35.0511 651.532 33.9176 648.992 33.3977L646.623 32.9205C645.404 32.6562 644.952 32.2386 644.961 31.608C644.952 30.8239 645.838 30.3125 646.963 30.3125C648.225 30.3125 648.975 31.0028 649.154 31.8466L652.478 31.642Z" fill="#1A090D"/>
<path d="M931.197 28.5653H934.734C934.683 25.4545 932.126 23.3068 928.239 23.3068C924.413 23.3068 921.609 25.4205 921.626 28.5909C921.617 31.1648 923.433 32.6392 926.381 33.3466L928.282 33.8239C930.183 34.2841 931.239 34.8295 931.248 36.0057C931.239 37.2841 930.029 38.1534 928.154 38.1534C926.237 38.1534 924.856 37.267 924.737 35.5199H921.165C921.259 39.2955 923.961 41.2472 928.197 41.2472C932.458 41.2472 934.964 39.2102 934.972 36.0142C934.964 33.108 932.773 31.5653 929.739 30.8835L928.171 30.5085C926.654 30.1591 925.384 29.5966 925.41 28.3438C925.41 27.2188 926.407 26.392 928.214 26.392C929.978 26.392 931.06 27.1932 931.197 28.5653ZM944.349 27.9091H941.886V24.7727H938.256V27.9091H936.466V30.6364H938.256V37.4545C938.239 40.0199 939.986 41.2898 942.619 41.179C943.557 41.1449 944.222 40.9574 944.588 40.8381L944.017 38.1364C943.838 38.1705 943.455 38.2557 943.114 38.2557C942.389 38.2557 941.886 37.983 941.886 36.9773V30.6364H944.349V27.9091ZM952.489 41.2557C956.46 41.2557 958.932 38.5369 958.932 34.5057C958.932 30.4489 956.46 27.7386 952.489 27.7386C948.517 27.7386 946.045 30.4489 946.045 34.5057C946.045 38.5369 948.517 41.2557 952.489 41.2557ZM952.506 38.4432C950.673 38.4432 949.736 36.7642 949.736 34.4801C949.736 32.196 950.673 30.5085 952.506 30.5085C954.304 30.5085 955.241 32.196 955.241 34.4801C955.241 36.7642 954.304 38.4432 952.506 38.4432ZM961.293 41H964.923V33.5938C964.923 31.983 966.099 30.875 967.702 30.875C968.205 30.875 968.895 30.9602 969.236 31.071V27.8494C968.912 27.7727 968.46 27.7216 968.094 27.7216C966.628 27.7216 965.426 28.5739 964.949 30.1932H964.812V27.9091H961.293V41ZM973.753 45.9091C976.455 45.9091 977.886 44.5284 978.628 42.4148L983.716 27.9261L979.872 27.9091L977.136 37.5227H977L974.29 27.9091H970.472L975.168 41.375L974.955 41.929C974.477 43.1562 973.565 43.2159 972.287 42.8239L971.469 45.5341C971.989 45.7557 972.832 45.9091 973.753 45.9091ZM985.642 41H989.222V38.9034H989.384C989.886 39.9943 990.986 41.2131 993.099 41.2131C996.082 41.2131 998.409 38.8523 998.409 34.4716C998.409 29.9716 995.98 27.7386 993.108 27.7386C990.918 27.7386 989.869 29.0426 989.384 30.108H989.273V23.5455H985.642V41ZM989.196 34.4545C989.196 32.1193 990.185 30.6278 991.949 30.6278C993.747 30.6278 994.702 32.1875 994.702 34.4545C994.702 36.7386 993.73 38.3239 991.949 38.3239C990.202 38.3239 989.196 36.7898 989.196 34.4545ZM1006.75 41.2557C1010.72 41.2557 1013.19 38.5369 1013.19 34.5057C1013.19 30.4489 1010.72 27.7386 1006.75 27.7386C1002.77 27.7386 1000.3 30.4489 1000.3 34.5057C1000.3 38.5369 1002.77 41.2557 1006.75 41.2557ZM1006.76 38.4432C1004.93 38.4432 1003.99 36.7642 1003.99 34.4801C1003.99 32.196 1004.93 30.5085 1006.76 30.5085C1008.56 30.5085 1009.5 32.196 1009.5 34.4801C1009.5 36.7642 1008.56 38.4432 1006.76 38.4432ZM1021.47 41.2557C1025.44 41.2557 1027.91 38.5369 1027.91 34.5057C1027.91 30.4489 1025.44 27.7386 1021.47 27.7386C1017.49 27.7386 1015.02 30.4489 1015.02 34.5057C1015.02 38.5369 1017.49 41.2557 1021.47 41.2557ZM1021.48 38.4432C1019.65 38.4432 1018.71 36.7642 1018.71 34.4801C1018.71 32.196 1019.65 30.5085 1021.48 30.5085C1023.28 30.5085 1024.22 32.196 1024.22 34.4801C1024.22 36.7642 1023.28 38.4432 1021.48 38.4432ZM1030.27 41H1033.9V36.8409L1034.88 35.7244L1038.45 41H1042.7L1037.6 33.5767L1042.46 27.9091H1038.29L1034.1 32.8778H1033.9V23.5455H1030.27V41Z" fill="#1A090D"/>
<path d="M465.641 148H454.178V150.753H465.641V148ZM470.815 148.247C472.749 148.247 474.002 147.403 474.641 146.185H474.744V148H478.187V139.17C478.187 136.051 475.545 134.739 472.63 134.739C469.494 134.739 467.431 136.239 466.928 138.625L470.286 138.898C470.533 138.028 471.309 137.389 472.613 137.389C473.849 137.389 474.556 138.011 474.556 139.085V139.136C474.556 139.98 473.661 140.091 471.386 140.312C468.795 140.551 466.468 141.42 466.468 144.344C466.468 146.935 468.317 148.247 470.815 148.247ZM471.854 145.741C470.738 145.741 469.937 145.222 469.937 144.224C469.937 143.202 470.781 142.699 472.059 142.52C472.852 142.409 474.147 142.222 474.582 141.932V143.321C474.582 144.693 473.448 145.741 471.854 145.741ZM481.004 148H484.634V140.594C484.634 138.983 485.81 137.875 487.413 137.875C487.915 137.875 488.606 137.96 488.947 138.071V134.849C488.623 134.773 488.171 134.722 487.805 134.722C486.339 134.722 485.137 135.574 484.66 137.193H484.523V134.909H481.004V148ZM490.824 148H494.455V140.594C494.455 138.983 495.631 137.875 497.233 137.875C497.736 137.875 498.426 137.96 498.767 138.071V134.849C498.443 134.773 497.991 134.722 497.625 134.722C496.159 134.722 494.957 135.574 494.48 137.193H494.344V134.909H490.824V148ZM504.002 148.247C505.937 148.247 507.19 147.403 507.829 146.185H507.931V148H511.374V139.17C511.374 136.051 508.732 134.739 505.817 134.739C502.681 134.739 500.619 136.239 500.116 138.625L503.474 138.898C503.721 138.028 504.496 137.389 505.8 137.389C507.036 137.389 507.744 138.011 507.744 139.085V139.136C507.744 139.98 506.849 140.091 504.573 140.312C501.982 140.551 499.656 141.42 499.656 144.344C499.656 146.935 501.505 148.247 504.002 148.247ZM505.042 145.741C503.925 145.741 503.124 145.222 503.124 144.224C503.124 143.202 503.968 142.699 505.246 142.52C506.039 142.409 507.335 142.222 507.769 141.932V143.321C507.769 144.693 506.636 145.741 505.042 145.741ZM515.964 152.909C518.665 152.909 520.097 151.528 520.839 149.415L525.927 134.926L522.083 134.909L519.347 144.523H519.211L516.501 134.909H512.683L517.379 148.375L517.165 148.929C516.688 150.156 515.776 150.216 514.498 149.824L513.68 152.534C514.2 152.756 515.043 152.909 515.964 152.909ZM535.884 148H524.42V150.753H535.884V148ZM548.216 138.642C547.892 136.23 545.949 134.739 542.642 134.739C539.293 134.739 537.085 136.29 537.094 138.812C537.085 140.773 538.321 142.043 540.878 142.554L543.145 143.006C544.287 143.236 544.807 143.653 544.824 144.31C544.807 145.085 543.963 145.639 542.693 145.639C541.398 145.639 540.537 145.085 540.315 144.02L536.744 144.207C537.085 146.713 539.216 148.256 542.685 148.256C546.077 148.256 548.506 146.526 548.514 143.943C548.506 142.051 547.27 140.918 544.73 140.398L542.361 139.92C541.142 139.656 540.69 139.239 540.699 138.608C540.69 137.824 541.577 137.312 542.702 137.312C543.963 137.312 544.713 138.003 544.892 138.847L548.216 138.642ZM557.763 134.909H555.3V131.773H551.67V134.909H549.88V137.636H551.67V144.455C551.653 147.02 553.4 148.29 556.033 148.179C556.971 148.145 557.636 147.957 558.002 147.838L557.431 145.136C557.252 145.17 556.869 145.256 556.528 145.256C555.803 145.256 555.3 144.983 555.3 143.977V137.636H557.763V134.909ZM560.129 148H563.759V140.594C563.759 138.983 564.935 137.875 566.538 137.875C567.04 137.875 567.731 137.96 568.072 138.071V134.849C567.748 134.773 567.296 134.722 566.93 134.722C565.464 134.722 564.262 135.574 563.785 137.193H563.648V134.909H560.129V148ZM578.344 142.426C578.352 144.182 577.151 145.102 575.847 145.102C574.474 145.102 573.588 144.139 573.58 142.597V134.909H569.949V143.244C569.957 146.304 571.747 148.17 574.381 148.17C576.349 148.17 577.764 147.156 578.352 145.622H578.489V148H581.974V134.909H578.344V142.426ZM590.793 148.256C594.279 148.256 596.469 146.21 596.64 143.202H593.214C593.001 144.599 592.08 145.384 590.836 145.384C589.14 145.384 588.04 143.96 588.04 141.455C588.04 138.983 589.148 137.568 590.836 137.568C592.165 137.568 593.018 138.446 593.214 139.75H596.64C596.487 136.724 594.194 134.739 590.776 134.739C586.805 134.739 584.35 137.491 584.35 141.506C584.35 145.486 586.762 148.256 590.793 148.256ZM605.928 134.909H603.464V131.773H599.834V134.909H598.044V137.636H599.834V144.455C599.817 147.02 601.564 148.29 604.197 148.179C605.135 148.145 605.8 147.957 606.166 147.838L605.595 145.136C605.416 145.17 605.033 145.256 604.692 145.256C603.967 145.256 603.464 144.983 603.464 143.977V137.636H605.928V134.909ZM616.688 142.426C616.696 144.182 615.494 145.102 614.19 145.102C612.818 145.102 611.932 144.139 611.923 142.597V134.909H608.293V143.244C608.301 146.304 610.091 148.17 612.724 148.17C614.693 148.17 616.108 147.156 616.696 145.622H616.832V148H620.318V134.909H616.688V142.426ZM623.222 148H626.853V140.594C626.853 138.983 628.029 137.875 629.631 137.875C630.134 137.875 630.825 137.96 631.165 138.071V134.849C630.842 134.773 630.39 134.722 630.023 134.722C628.558 134.722 627.356 135.574 626.879 137.193H626.742V134.909H623.222V148ZM638.399 148.256C641.638 148.256 643.82 146.679 644.331 144.25L640.973 144.028C640.607 145.026 639.669 145.545 638.459 145.545C636.643 145.545 635.493 144.344 635.493 142.392V142.384H644.408V141.386C644.408 136.938 641.714 134.739 638.254 134.739C634.402 134.739 631.905 137.474 631.905 141.514C631.905 145.665 634.368 148.256 638.399 148.256ZM635.493 140.134C635.57 138.642 636.703 137.449 638.314 137.449C639.891 137.449 640.982 138.574 640.99 140.134H635.493ZM657.669 138.642C657.345 136.23 655.402 134.739 652.095 134.739C648.746 134.739 646.538 136.29 646.547 138.812C646.538 140.773 647.774 142.043 650.331 142.554L652.598 143.006C653.74 143.236 654.26 143.653 654.277 144.31C654.26 145.085 653.416 145.639 652.146 145.639C650.851 145.639 649.99 145.085 649.768 144.02L646.197 144.207C646.538 146.713 648.669 148.256 652.138 148.256C655.53 148.256 657.959 146.526 657.967 143.943C657.959 142.051 656.723 140.918 654.183 140.398L651.814 139.92C650.595 139.656 650.143 139.239 650.152 138.608C650.143 137.824 651.03 137.312 652.155 137.312C653.416 137.312 654.166 138.003 654.345 138.847L657.669 138.642Z" fill="#1A090D"/>
<path d="M493.735 255H482.272V257.753H493.735V255ZM506.067 245.642C505.744 243.23 503.8 241.739 500.494 241.739C497.144 241.739 494.937 243.29 494.945 245.812C494.937 247.773 496.173 249.043 498.729 249.554L500.996 250.006C502.138 250.236 502.658 250.653 502.675 251.31C502.658 252.085 501.815 252.639 500.545 252.639C499.249 252.639 498.388 252.085 498.167 251.02L494.596 251.207C494.937 253.713 497.067 255.256 500.536 255.256C503.928 255.256 506.357 253.526 506.366 250.943C506.357 249.051 505.121 247.918 502.582 247.398L500.212 246.92C498.994 246.656 498.542 246.239 498.55 245.608C498.542 244.824 499.428 244.312 500.553 244.312C501.815 244.312 502.565 245.003 502.744 245.847L506.067 245.642ZM514.618 255.256C517.857 255.256 520.038 253.679 520.55 251.25L517.192 251.028C516.825 252.026 515.888 252.545 514.678 252.545C512.862 252.545 511.712 251.344 511.712 249.392V249.384H520.626V248.386C520.626 243.938 517.933 241.739 514.473 241.739C510.621 241.739 508.124 244.474 508.124 248.514C508.124 252.665 510.587 255.256 514.618 255.256ZM511.712 247.134C511.788 245.642 512.922 244.449 514.533 244.449C516.109 244.449 517.2 245.574 517.209 247.134H511.712ZM526.626 237.545H522.996V255H526.626V237.545ZM535.501 255.256C538.739 255.256 540.921 253.679 541.433 251.25L538.075 251.028C537.708 252.026 536.771 252.545 535.56 252.545C533.745 252.545 532.594 251.344 532.594 249.392V249.384H541.509V248.386C541.509 243.938 538.816 241.739 535.356 241.739C531.504 241.739 529.006 244.474 529.006 248.514C529.006 252.665 531.469 255.256 535.501 255.256ZM532.594 247.134C532.671 245.642 533.805 244.449 535.415 244.449C536.992 244.449 538.083 245.574 538.092 247.134H532.594ZM549.793 255.256C553.279 255.256 555.469 253.21 555.64 250.202H552.214C552.001 251.599 551.08 252.384 549.836 252.384C548.14 252.384 547.04 250.96 547.04 248.455C547.04 245.983 548.148 244.568 549.836 244.568C551.165 244.568 552.018 245.446 552.214 246.75H555.64C555.487 243.724 553.194 241.739 549.776 241.739C545.805 241.739 543.35 244.491 543.35 248.506C543.35 252.486 545.762 255.256 549.793 255.256ZM564.928 241.909H562.464V238.773H558.834V241.909H557.044V244.636H558.834V251.455C558.817 254.02 560.564 255.29 563.197 255.179C564.135 255.145 564.8 254.957 565.166 254.838L564.595 252.136C564.416 252.17 564.033 252.256 563.692 252.256C562.967 252.256 562.464 251.983 562.464 250.977V244.636H564.928V241.909ZM577.29 255H565.827V257.753H577.29V255ZM583.554 255.213C585.668 255.213 586.767 253.994 587.27 252.903H587.423V255H591.003V237.545H587.381V244.108H587.27C586.784 243.043 585.736 241.739 583.545 241.739C580.673 241.739 578.244 243.972 578.244 248.472C578.244 252.852 580.571 255.213 583.554 255.213ZM584.705 252.324C582.923 252.324 581.952 250.739 581.952 248.455C581.952 246.188 582.906 244.628 584.705 244.628C586.469 244.628 587.457 246.119 587.457 248.455C587.457 250.79 586.452 252.324 584.705 252.324ZM597.721 255.247C599.656 255.247 600.908 254.403 601.548 253.185H601.65V255H605.093V246.17C605.093 243.051 602.451 241.739 599.536 241.739C596.4 241.739 594.337 243.239 593.835 245.625L597.192 245.898C597.44 245.028 598.215 244.389 599.519 244.389C600.755 244.389 601.462 245.011 601.462 246.085V246.136C601.462 246.98 600.567 247.091 598.292 247.312C595.701 247.551 593.374 248.42 593.374 251.344C593.374 253.935 595.224 255.247 597.721 255.247ZM598.761 252.741C597.644 252.741 596.843 252.222 596.843 251.224C596.843 250.202 597.687 249.699 598.965 249.52C599.758 249.409 601.053 249.222 601.488 248.932V250.321C601.488 251.693 600.354 252.741 598.761 252.741ZM614.873 241.909H612.41V238.773H608.779V241.909H606.989V244.636H608.779V251.455C608.762 254.02 610.509 255.29 613.143 255.179C614.08 255.145 614.745 254.957 615.112 254.838L614.54 252.136C614.362 252.17 613.978 252.256 613.637 252.256C612.913 252.256 612.41 251.983 612.41 250.977V244.636H614.873V241.909ZM620.971 255.247C622.906 255.247 624.158 254.403 624.798 253.185H624.9V255H628.343V246.17C628.343 243.051 625.701 241.739 622.786 241.739C619.65 241.739 617.587 243.239 617.085 245.625L620.442 245.898C620.69 245.028 621.465 244.389 622.769 244.389C624.005 244.389 624.712 245.011 624.712 246.085V246.136C624.712 246.98 623.817 247.091 621.542 247.312C618.951 247.551 616.624 248.42 616.624 251.344C616.624 253.935 618.474 255.247 620.971 255.247ZM622.011 252.741C620.894 252.741 620.093 252.222 620.093 251.224C620.093 250.202 620.937 249.699 622.215 249.52C623.008 249.409 624.303 249.222 624.738 248.932V250.321C624.738 251.693 623.604 252.741 622.011 252.741Z" fill="#1A090D"/>
<path d="M462.698 367.062V364.344C460.678 364.344 460.269 363.568 460.269 361.923V359.435C460.269 358.122 459.706 356.946 457.235 356.443V356.102C459.706 355.599 460.269 354.423 460.269 353.119V350.631C460.269 348.977 460.678 348.202 462.698 348.202V345.491C459.255 345.491 456.792 346.062 456.792 350.264V352.148C456.792 353.895 456.135 354.636 454.175 354.636V357.909C456.135 357.909 456.792 358.651 456.792 360.398V362.29C456.792 366.491 459.255 367.062 462.698 367.062ZM474.223 361.727C474.231 363.824 475.569 365.605 478.066 365.605C480.538 365.605 481.919 363.824 481.91 361.727V360.807C481.919 358.693 480.572 356.929 478.066 356.929C475.603 356.929 474.231 358.71 474.223 360.807V361.727ZM465.265 351.739C465.274 353.835 466.612 355.599 469.1 355.599C471.581 355.599 472.961 353.852 472.953 351.739V350.818C472.961 348.705 471.615 346.94 469.1 346.94C466.663 346.94 465.274 348.705 465.265 350.818V351.739ZM466.1 365H468.325L480.325 347.545H478.1L466.1 365ZM476.703 360.807C476.711 359.972 477.044 359.111 478.066 359.111C479.14 359.111 479.422 359.972 479.413 360.807V361.727C479.422 362.562 479.106 363.406 478.066 363.406C477.027 363.406 476.711 362.537 476.703 361.727V360.807ZM467.762 350.818C467.771 350.009 468.086 349.122 469.1 349.122C470.174 349.122 470.464 349.983 470.456 350.818V351.739C470.464 352.574 470.14 353.418 469.1 353.418C468.095 353.418 467.771 352.574 467.762 351.739V350.818ZM496.797 365.256C500.283 365.256 502.473 363.21 502.644 360.202H499.218C499.005 361.599 498.084 362.384 496.84 362.384C495.144 362.384 494.044 360.96 494.044 358.455C494.044 355.983 495.152 354.568 496.84 354.568C498.169 354.568 499.022 355.446 499.218 356.75H502.644C502.49 353.724 500.198 351.739 496.78 351.739C492.809 351.739 490.354 354.491 490.354 358.506C490.354 362.486 492.766 365.256 496.797 365.256ZM510.883 365.256C514.855 365.256 517.326 362.537 517.326 358.506C517.326 354.449 514.855 351.739 510.883 351.739C506.912 351.739 504.44 354.449 504.44 358.506C504.44 362.537 506.912 365.256 510.883 365.256ZM510.9 362.443C509.068 362.443 508.13 360.764 508.13 358.48C508.13 356.196 509.068 354.509 510.9 354.509C512.699 354.509 513.636 356.196 513.636 358.48C513.636 360.764 512.699 362.443 510.9 362.443ZM519.687 365H523.318V357.142C523.318 355.693 524.238 354.73 525.449 354.73C526.642 354.73 527.443 355.548 527.443 356.835V365H530.963V357.006C530.963 355.651 531.738 354.73 533.059 354.73C534.218 354.73 535.088 355.455 535.088 356.912V365H538.71V356.196C538.71 353.358 537.022 351.739 534.585 351.739C532.667 351.739 531.176 352.719 530.639 354.219H530.502C530.085 352.702 528.747 351.739 526.949 351.739C525.184 351.739 523.846 352.676 523.301 354.219H523.147V351.909H519.687V365ZM541.578 369.909H545.208V362.903H545.319C545.822 363.994 546.922 365.213 549.035 365.213C552.018 365.213 554.345 362.852 554.345 358.472C554.345 353.972 551.916 351.739 549.044 351.739C546.853 351.739 545.805 353.043 545.319 354.108H545.157V351.909H541.578V369.909ZM545.132 358.455C545.132 356.119 546.12 354.628 547.885 354.628C549.683 354.628 550.637 356.188 550.637 358.455C550.637 360.739 549.666 362.324 547.885 362.324C546.137 362.324 545.132 360.79 545.132 358.455ZM562.68 365.256C566.652 365.256 569.123 362.537 569.123 358.506C569.123 354.449 566.652 351.739 562.68 351.739C558.708 351.739 556.237 354.449 556.237 358.506C556.237 362.537 558.708 365.256 562.68 365.256ZM562.697 362.443C560.865 362.443 559.927 360.764 559.927 358.48C559.927 356.196 560.865 354.509 562.697 354.509C564.495 354.509 565.433 356.196 565.433 358.48C565.433 360.764 564.495 362.443 562.697 362.443ZM575.115 357.432C575.123 355.744 576.129 354.756 577.595 354.756C579.052 354.756 579.93 355.71 579.922 357.312V365H583.552V356.665C583.552 353.614 581.762 351.739 579.035 351.739C577.092 351.739 575.686 352.693 575.098 354.219H574.944V351.909H571.484V365H575.115V357.432ZM592.38 365.256C595.618 365.256 597.8 363.679 598.311 361.25L594.953 361.028C594.587 362.026 593.65 362.545 592.439 362.545C590.624 362.545 589.473 361.344 589.473 359.392V359.384H598.388V358.386C598.388 353.938 595.695 351.739 592.235 351.739C588.382 351.739 585.885 354.474 585.885 358.514C585.885 362.665 588.348 365.256 592.38 365.256ZM589.473 357.134C589.55 355.642 590.684 354.449 592.294 354.449C593.871 354.449 594.962 355.574 594.971 357.134H589.473ZM604.388 357.432C604.397 355.744 605.402 354.756 606.868 354.756C608.326 354.756 609.203 355.71 609.195 357.312V365H612.826V356.665C612.826 353.614 611.036 351.739 608.309 351.739C606.365 351.739 604.959 352.693 604.371 354.219H604.218V351.909H600.757V365H604.388V357.432ZM622.65 351.909H620.187V348.773H616.556V351.909H614.767V354.636H616.556V361.455C616.539 364.02 618.287 365.29 620.92 365.179C621.858 365.145 622.522 364.957 622.889 364.838L622.318 362.136C622.139 362.17 621.755 362.256 621.414 362.256C620.69 362.256 620.187 361.983 620.187 360.977V354.636H622.65V351.909ZM640.09 361.727C640.098 363.824 641.436 365.605 643.934 365.605C646.405 365.605 647.786 363.824 647.777 361.727V360.807C647.786 358.693 646.439 356.929 643.934 356.929C641.471 356.929 640.098 358.71 640.09 360.807V361.727ZM631.132 351.739C631.141 353.835 632.479 355.599 634.968 355.599C637.448 355.599 638.828 353.852 638.82 351.739V350.818C638.828 348.705 637.482 346.94 634.968 346.94C632.53 346.94 631.141 348.705 631.132 350.818V351.739ZM631.968 365H634.192L646.192 347.545H643.968L631.968 365ZM642.57 360.807C642.578 359.972 642.911 359.111 643.934 359.111C645.007 359.111 645.289 359.972 645.28 360.807V361.727C645.289 362.562 644.973 363.406 643.934 363.406C642.894 363.406 642.578 362.537 642.57 361.727V360.807ZM633.63 350.818C633.638 350.009 633.953 349.122 634.968 349.122C636.042 349.122 636.331 349.983 636.323 350.818V351.739C636.331 352.574 636.007 353.418 634.968 353.418C633.962 353.418 633.638 352.574 633.63 351.739V350.818ZM650.3 345.483V348.202C652.32 348.202 652.729 348.977 652.729 350.622V353.111C652.729 354.423 653.292 355.599 655.763 356.102V356.443C653.292 356.946 652.729 358.122 652.729 359.426V361.915C652.729 363.568 652.32 364.344 650.3 364.344V367.054C653.743 367.054 656.206 366.483 656.206 362.281V360.398C656.206 358.651 656.863 357.909 658.823 357.909V354.636C656.863 354.636 656.206 353.895 656.206 352.148V350.256C656.206 346.054 653.743 345.483 650.3 345.483Z" fill="#1A090D"/>
<path d="M916.933 188.656C916.447 184.625 913.396 182.307 909.357 182.307C904.746 182.307 901.226 185.562 901.226 191.273C901.226 196.966 904.686 200.239 909.357 200.239C913.831 200.239 916.533 197.264 916.933 194.051L913.2 194.034C912.851 195.901 911.385 196.974 909.416 196.974C906.766 196.974 904.967 195.006 904.967 191.273C904.967 187.642 906.74 185.571 909.442 185.571C911.462 185.571 912.919 186.739 913.2 188.656H916.933ZM923.142 182.545H919.511V200H923.142V182.545ZM931.965 200.256C935.937 200.256 938.408 197.537 938.408 193.506C938.408 189.449 935.937 186.739 931.965 186.739C927.994 186.739 925.522 189.449 925.522 193.506C925.522 197.537 927.994 200.256 931.965 200.256ZM931.982 197.443C930.15 197.443 929.212 195.764 929.212 193.48C929.212 191.196 930.15 189.509 931.982 189.509C933.781 189.509 934.718 191.196 934.718 193.48C934.718 195.764 933.781 197.443 931.982 197.443ZM949.164 194.426C949.173 196.182 947.971 197.102 946.667 197.102C945.295 197.102 944.408 196.139 944.4 194.597V186.909H940.769V195.244C940.778 198.304 942.567 200.17 945.201 200.17C947.17 200.17 948.585 199.156 949.173 197.622H949.309V200H952.795V186.909H949.164V194.426ZM960.523 200.213C962.636 200.213 963.736 198.994 964.239 197.903H964.392V200H967.972V182.545H964.349V189.108H964.239C963.753 188.043 962.705 186.739 960.514 186.739C957.642 186.739 955.213 188.972 955.213 193.472C955.213 197.852 957.54 200.213 960.523 200.213ZM961.673 197.324C959.892 197.324 958.92 195.739 958.92 193.455C958.92 191.188 959.875 189.628 961.673 189.628C963.438 189.628 964.426 191.119 964.426 193.455C964.426 195.79 963.42 197.324 961.673 197.324ZM986.425 188.656C985.94 184.625 982.888 182.307 978.849 182.307C974.238 182.307 970.718 185.562 970.718 191.273C970.718 196.966 974.178 200.239 978.849 200.239C983.323 200.239 986.025 197.264 986.425 194.051L982.692 194.034C982.343 195.901 980.877 196.974 978.908 196.974C976.258 196.974 974.46 195.006 974.46 191.273C974.46 187.642 976.232 185.571 978.934 185.571C980.954 185.571 982.411 186.739 982.692 188.656H986.425ZM992.737 200.247C994.671 200.247 995.924 199.403 996.563 198.185H996.665V200H1000.11V191.17C1000.11 188.051 997.467 186.739 994.552 186.739C991.415 186.739 989.353 188.239 988.85 190.625L992.208 190.898C992.455 190.028 993.231 189.389 994.535 189.389C995.771 189.389 996.478 190.011 996.478 191.085V191.136C996.478 191.98 995.583 192.091 993.308 192.312C990.717 192.551 988.39 193.42 988.39 196.344C988.39 198.935 990.239 200.247 992.737 200.247ZM993.776 197.741C992.66 197.741 991.859 197.222 991.859 196.224C991.859 195.202 992.702 194.699 993.981 194.52C994.773 194.409 996.069 194.222 996.504 193.932V195.321C996.504 196.693 995.37 197.741 993.776 197.741ZM1006.56 192.432C1006.56 190.744 1007.57 189.756 1009.04 189.756C1010.49 189.756 1011.37 190.71 1011.36 192.312V200H1014.99V191.665C1014.99 188.614 1013.2 186.739 1010.48 186.739C1008.53 186.739 1007.13 187.693 1006.54 189.219H1006.39V186.909H1002.93V200H1006.56V192.432ZM1021.49 192.432C1021.49 190.744 1022.5 189.756 1023.97 189.756C1025.42 189.756 1026.3 190.71 1026.29 192.312V200H1029.92V191.665C1029.92 188.614 1028.13 186.739 1025.41 186.739C1023.46 186.739 1022.06 187.693 1021.47 189.219H1021.32V186.909H1017.86V200H1021.49V192.432ZM1038.7 200.256C1042.67 200.256 1045.14 197.537 1045.14 193.506C1045.14 189.449 1042.67 186.739 1038.7 186.739C1034.73 186.739 1032.26 189.449 1032.26 193.506C1032.26 197.537 1034.73 200.256 1038.7 200.256ZM1038.72 197.443C1036.88 197.443 1035.95 195.764 1035.95 193.48C1035.95 191.196 1036.88 189.509 1038.72 189.509C1040.51 189.509 1041.45 191.196 1041.45 193.48C1041.45 195.764 1040.51 197.443 1038.72 197.443ZM1051.13 192.432C1051.14 190.744 1052.15 189.756 1053.61 189.756C1055.07 189.756 1055.95 190.71 1055.94 192.312V200H1059.57V191.665C1059.57 188.614 1057.78 186.739 1055.05 186.739C1053.11 186.739 1051.71 187.693 1051.12 189.219H1050.96V186.909H1047.5V200H1051.13V192.432Z" fill="#1A090D"/>
<path d="M937.641 365H941.238L944.553 353.588H944.69L948.013 365H951.61L956.604 347.545H952.573L949.684 359.699H949.531L946.352 347.545H942.9L939.712 359.673H939.567L936.678 347.545H932.647L937.641 365ZM963.071 365.256C966.31 365.256 968.491 363.679 969.003 361.25L965.645 361.028C965.278 362.026 964.341 362.545 963.131 362.545C961.315 362.545 960.165 361.344 960.165 359.392V359.384H969.08V358.386C969.08 353.938 966.386 351.739 962.926 351.739C959.074 351.739 956.577 354.474 956.577 358.514C956.577 362.665 959.04 365.256 963.071 365.256ZM960.165 357.134C960.241 355.642 961.375 354.449 962.986 354.449C964.562 354.449 965.653 355.574 965.662 357.134H960.165ZM971.517 365H975.097V362.903H975.259C975.761 363.994 976.861 365.213 978.974 365.213C981.957 365.213 984.284 362.852 984.284 358.472C984.284 353.972 981.855 351.739 978.983 351.739C976.793 351.739 975.744 353.043 975.259 354.108H975.148V347.545H971.517V365ZM975.071 358.455C975.071 356.119 976.06 354.628 977.824 354.628C979.622 354.628 980.577 356.188 980.577 358.455C980.577 360.739 979.605 362.324 977.824 362.324C976.077 362.324 975.071 360.79 975.071 358.455ZM997.599 355.642C997.275 353.23 995.332 351.739 992.025 351.739C988.675 351.739 986.468 353.29 986.477 355.812C986.468 357.773 987.704 359.043 990.261 359.554L992.528 360.006C993.67 360.236 994.19 360.653 994.207 361.31C994.19 362.085 993.346 362.639 992.076 362.639C990.781 362.639 989.92 362.085 989.698 361.02L986.127 361.207C986.468 363.713 988.599 365.256 992.067 365.256C995.46 365.256 997.888 363.526 997.897 360.943C997.888 359.051 996.653 357.918 994.113 357.398L991.744 356.92C990.525 356.656 990.073 356.239 990.082 355.608C990.073 354.824 990.96 354.312 992.085 354.312C993.346 354.312 994.096 355.003 994.275 355.847L997.599 355.642ZM1000.18 365H1003.81V351.909H1000.18V365ZM1002.01 350.222C1003.09 350.222 1003.98 349.395 1003.98 348.381C1003.98 347.375 1003.09 346.548 1002.01 346.548C1000.93 346.548 1000.05 347.375 1000.05 348.381C1000.05 349.395 1000.93 350.222 1002.01 350.222ZM1013.69 351.909H1011.22V348.773H1007.59V351.909H1005.8V354.636H1007.59V361.455C1007.57 364.02 1009.32 365.29 1011.96 365.179C1012.89 365.145 1013.56 364.957 1013.92 364.838L1013.35 362.136C1013.17 362.17 1012.79 362.256 1012.45 362.256C1011.73 362.256 1011.22 361.983 1011.22 360.977V354.636H1013.69V351.909ZM1021.88 365.256C1025.11 365.256 1027.3 363.679 1027.81 361.25L1024.45 361.028C1024.08 362.026 1023.15 362.545 1021.94 362.545C1020.12 362.545 1018.97 361.344 1018.97 359.392V359.384H1027.88V358.386C1027.88 353.938 1025.19 351.739 1021.73 351.739C1017.88 351.739 1015.38 354.474 1015.38 358.514C1015.38 362.665 1017.84 365.256 1021.88 365.256ZM1018.97 357.134C1019.05 355.642 1020.18 354.449 1021.79 354.449C1023.37 354.449 1024.46 355.574 1024.47 357.134H1018.97Z" fill="#1A090D"/>
<path d="M356.735 64.1418C367.564 69.12 377.644 64.2641 388.59 66.926C383.816 73.7209 374.773 87.9798 374.68 97.0218M374.307 74.6488C342.621 89.9086 318.478 116.529 287.491 132.893L374.307 74.6488Z" stroke="#FE7F2D" stroke-width="5" stroke-miterlimit="10" stroke-linecap="round" stroke-linejoin="round"/>
<path d="M805.183 12.7604C810.706 22.9733 821.774 25.0891 828.836 33.5665C820.788 36.066 804.676 41.8815 798.956 48.8701M812.629 31.2251C777.843 24.5721 741.976 31.182 707.058 25.7978L812.629 31.2251Z" stroke="#FE7F2D" stroke-width="5" stroke-miterlimit="10" stroke-linecap="round" stroke-linejoin="round"/>
<path d="M802.493 332.181C809.709 341.808 820.987 342.539 829.42 350.214C821.919 353.767 807.043 361.7 802.616 369.497M813.035 349.909C777.587 347.608 743.372 358.86 708.014 357.859L813.035 349.909Z" stroke="#FE7F2D" stroke-width="5" stroke-miterlimit="10" stroke-linecap="round" stroke-linejoin="round"/>
<path d="M383.803 213.057C387.378 224.405 397.839 228.151 403.234 237.92C394.902 239.375 378.076 243.129 371.218 249.559M387.779 233.217C354.901 221.438 318.582 223.236 285.347 212.753L387.779 233.217Z" stroke="#FE7F2D" stroke-width="5" stroke-miterlimit="10" stroke-linecap="round" stroke-linejoin="round"/>
<path d="M809.99 140.563C813.565 151.912 824.026 155.658 829.421 165.427C821.089 166.882 804.263 170.636 797.405 177.066M813.967 160.724C781.088 148.945 744.769 150.743 711.534 140.259L813.967 160.724Z" stroke="#FE7F2D" stroke-width="5" stroke-miterlimit="10" stroke-linecap="round" stroke-linejoin="round"/>
<path d="M275.867 247.773C292.654 260.195 307.317 276.278 325.897 286.116C331.577 289.122 345.013 296.177 351.942 291.568C357.65 287.767 354.49 283.109 349.838 280.238C345.138 277.339 335.021 275.231 330.656 280.663C324.897 287.831 334.238 297.346 338.651 301.743C352.899 315.937 371.965 323.797 387.853 335.828" stroke="#FE7F2D" stroke-width="5" stroke-miterlimit="10" stroke-linecap="round" stroke-linejoin="round"/>
<path d="M372.588 342.871C381.7 339.148 389.938 343.531 399.088 341.726C395.302 335.934 388.17 323.811 388.327 316.33" stroke="#FE7F2D" stroke-width="5" stroke-miterlimit="10" stroke-linecap="round" stroke-linejoin="round"/>
<path d="M392.194 168.927C395.957 159.972 404.72 156.591 409.836 148.771C403.195 148.029 389.846 145.888 384.783 141.221M278 176.686C316.94 175.722 359.49 157.237 399.446 152.585L278 176.686Z" stroke="#FE7F2D" stroke-width="5" stroke-miterlimit="10" stroke-linecap="round" stroke-linejoin="round"/>
<path d="M816.194 231.927C819.957 222.972 828.72 219.591 833.836 211.771C827.195 211.029 813.846 208.888 808.783 204.221M702 239.686C740.94 238.722 783.49 220.237 823.446 215.585L702 239.686Z" stroke="#FE7F2D" stroke-width="5" stroke-miterlimit="10" stroke-linecap="round" stroke-linejoin="round"/>
</svg>
